M48
; DRILL file {KiCad 9.0.3} date 2025-08-15T19:38:58+0200
; FORMAT={-:-/ absolute / metric / decimal}
; #@! TF.CreationDate,2025-08-15T19:38:58+02:00
; #@! TF.GenerationSoftware,Kicad,Pcbnew,9.0.3
; #@! TF.FileFunction,Plated,1,2,PTH
FMAT,2
METRIC
; #@! TA.AperFunction,Plated,PTH,ViaDrill
T1C0.300
; #@! TA.AperFunction,Plated,PTH,ViaDrill
T2C0.600
; #@! TA.AperFunction,Plated,PTH,ComponentDrill
T3C0.600
; #@! TA.AperFunction,Plated,PTH,ComponentDrill
T4C0.889
; #@! TA.AperFunction,Plated,PTH,ComponentDrill
T5C1.000
; #@! TA.AperFunction,Plated,PTH,ComponentDrill
T6C1.020
; #@! TA.AperFunction,Plated,PTH,ComponentDrill
T7C1.100
; #@! TA.AperFunction,Plated,PTH,ComponentDrill
T8C1.397
%
G90
G05
T1
X16.31Y-53.04
X20.44Y-53.92
X20.45Y-56.35
X28.66Y-50.43
X30.81Y-50.32
X45.08Y-62.21
X45.31Y-70.68
X47.75Y-62.21
X47.84Y-51.67
X48.065Y-56.745
X48.94Y-49.17
X48.94Y-51.01
X49.26Y-38.9
X49.42Y-62.21
X49.52Y-56.88
X51.62Y-67.48
X51.7Y-70.67
X54.48Y-56.94
X54.5Y-61.18
X54.8Y-71.06
X54.8Y-72.94
X55.08Y-40.67
X56.25Y-58.54
X57.289Y-56.04
X58.58Y-64.95
X59.67Y-39.73
X59.68Y-37.41
X61.24Y-35.48
X72.4Y-65.08
X75.4Y-57.86
X75.89Y-56.28
X76.66Y-59.14
X77.37Y-65.14
X77.77Y-58.07
X82.98Y-36.19
X84.37Y-48.42
X84.38Y-39.26
X85.47Y-58.03
X85.57Y-47.65
X85.62Y-61.68
X85.78Y-59.16
X89.21Y-47.65
X89.22Y-59.16
X89.29Y-62.32
X89.37Y-58.17
X90.18Y-39.76
X91.44Y-65.13
X92.8Y-50.21
X93.81Y-59.79
X93.81Y-63.21
X95.42Y-60.05
X96.76Y-62.29
X96.85Y-63.5
X96.86Y-42.8
X97.67Y-54.47
X97.68Y-59.99
X97.68Y-62.63
X98.53Y-63.45
X99.23Y-42.63
X99.24Y-57.32
X110.9Y-59.34
X111.18Y-42.0
X111.36Y-63.51
X112.7Y-64.79
X117.88Y-70.49
X122.22Y-39.47
X127.31Y-38.85
T2
X71.0Y-43.89
T4
X20.438Y-57.99
X22.977Y-57.99
X25.517Y-57.99
X33.137Y-45.29
X33.137Y-47.83
X33.137Y-50.37
X115.32Y-58.01
X117.86Y-58.01
X120.4Y-58.01
X128.02Y-45.31
X128.02Y-47.85
X128.02Y-50.39
T5
X45.08Y-36.62
X45.08Y-39.16
X45.08Y-41.7
X45.08Y-44.24
X45.08Y-46.78
X45.08Y-49.32
X45.08Y-51.86
X45.08Y-54.4
X122.23Y-36.48
X124.77Y-36.48
X127.31Y-36.48
T6
X122.05Y-62.96
X122.05Y-65.96
T7
X50.0Y-36.18
X50.0Y-40.68
X56.5Y-36.18
X56.5Y-40.68
X57.17Y-67.36
X57.17Y-71.86
X63.67Y-67.36
X63.67Y-71.86
X66.74Y-67.36
X66.74Y-71.86
X73.24Y-67.36
X73.24Y-71.86
X76.39Y-67.36
X76.39Y-71.86
X82.89Y-67.36
X82.89Y-71.86
X85.94Y-67.37
X85.94Y-71.87
X88.62Y-36.25
X88.62Y-40.75
X92.44Y-67.37
X92.44Y-71.87
X95.12Y-36.25
X95.12Y-40.75
T8
X16.31Y-40.21
X16.31Y-55.45
X29.645Y-40.21
X29.645Y-55.45
X111.15Y-55.58
X111.21Y-40.08
X124.45Y-55.53
X124.51Y-40.03
T3
G00X44.18Y-69.375
M15
G01X44.18Y-70.475
M16
G05
G00X44.18Y-73.705
M15
G01X44.18Y-74.505
M16
G05
G00X52.82Y-69.375
M15
G01X52.82Y-70.475
M16
G05
G00X52.82Y-73.705
M15
G01X52.82Y-74.505
M16
G05
M30
