%TF.GenerationSoftware,KiCad,Pcbnew,9.0.3*%
%TF.CreationDate,2025-08-15T19:38:51+02:00*%
%TF.ProjectId,Drone_Controller,44726f6e-655f-4436-9f6e-74726f6c6c65,rev?*%
%TF.SameCoordinates,Original*%
%TF.FileFunction,Copper,L1,Top*%
%TF.FilePolarity,Positive*%
%FSLAX46Y46*%
G04 Gerber Fmt 4.6, Leading zero omitted, Abs format (unit mm)*
G04 Created by KiCad (PCBNEW 9.0.3) date 2025-08-15 19:38:51*
%MOMM*%
%LPD*%
G01*
G04 APERTURE LIST*
G04 Aperture macros list*
%AMRoundRect*
0 Rectangle with rounded corners*
0 $1 Rounding radius*
0 $2 $3 $4 $5 $6 $7 $8 $9 X,Y pos of 4 corners*
0 Add a 4 corners polygon primitive as box body*
4,1,4,$2,$3,$4,$5,$6,$7,$8,$9,$2,$3,0*
0 Add four circle primitives for the rounded corners*
1,1,$1+$1,$2,$3*
1,1,$1+$1,$4,$5*
1,1,$1+$1,$6,$7*
1,1,$1+$1,$8,$9*
0 Add four rect primitives between the rounded corners*
20,1,$1+$1,$2,$3,$4,$5,0*
20,1,$1+$1,$4,$5,$6,$7,0*
20,1,$1+$1,$6,$7,$8,$9,0*
20,1,$1+$1,$8,$9,$2,$3,0*%
G04 Aperture macros list end*
%TA.AperFunction,SMDPad,CuDef*%
%ADD10R,1.500000X0.900000*%
%TD*%
%TA.AperFunction,SMDPad,CuDef*%
%ADD11R,0.900000X1.500000*%
%TD*%
%TA.AperFunction,HeatsinkPad*%
%ADD12R,3.900000X3.900000*%
%TD*%
%TA.AperFunction,HeatsinkPad*%
%ADD13R,3.300000X2.410000*%
%TD*%
%TA.AperFunction,SMDPad,CuDef*%
%ADD14RoundRect,0.150000X0.150000X-0.825000X0.150000X0.825000X-0.150000X0.825000X-0.150000X-0.825000X0*%
%TD*%
%TA.AperFunction,ComponentPad*%
%ADD15C,2.000000*%
%TD*%
%TA.AperFunction,SMDPad,CuDef*%
%ADD16RoundRect,0.150000X-0.150000X-0.425000X0.150000X-0.425000X0.150000X0.425000X-0.150000X0.425000X0*%
%TD*%
%TA.AperFunction,SMDPad,CuDef*%
%ADD17RoundRect,0.075000X-0.075000X-0.500000X0.075000X-0.500000X0.075000X0.500000X-0.075000X0.500000X0*%
%TD*%
%TA.AperFunction,HeatsinkPad*%
%ADD18O,1.000000X2.100000*%
%TD*%
%TA.AperFunction,HeatsinkPad*%
%ADD19O,1.000000X1.800000*%
%TD*%
%TA.AperFunction,SMDPad,CuDef*%
%ADD20RoundRect,0.200000X0.275000X-0.200000X0.275000X0.200000X-0.275000X0.200000X-0.275000X-0.200000X0*%
%TD*%
%TA.AperFunction,SMDPad,CuDef*%
%ADD21RoundRect,0.200000X0.200000X0.275000X-0.200000X0.275000X-0.200000X-0.275000X0.200000X-0.275000X0*%
%TD*%
%TA.AperFunction,SMDPad,CuDef*%
%ADD22RoundRect,0.200000X-0.200000X-0.275000X0.200000X-0.275000X0.200000X0.275000X-0.200000X0.275000X0*%
%TD*%
%TA.AperFunction,SMDPad,CuDef*%
%ADD23RoundRect,0.225000X-0.225000X-0.250000X0.225000X-0.250000X0.225000X0.250000X-0.225000X0.250000X0*%
%TD*%
%TA.AperFunction,ComponentPad*%
%ADD24RoundRect,0.250001X-0.499999X-0.499999X0.499999X-0.499999X0.499999X0.499999X-0.499999X0.499999X0*%
%TD*%
%TA.AperFunction,ComponentPad*%
%ADD25C,1.500000*%
%TD*%
%TA.AperFunction,SMDPad,CuDef*%
%ADD26RoundRect,0.218750X-0.218750X-0.256250X0.218750X-0.256250X0.218750X0.256250X-0.218750X0.256250X0*%
%TD*%
%TA.AperFunction,SMDPad,CuDef*%
%ADD27RoundRect,0.200000X-0.275000X0.200000X-0.275000X-0.200000X0.275000X-0.200000X0.275000X0.200000X0*%
%TD*%
%TA.AperFunction,ComponentPad*%
%ADD28C,1.778000*%
%TD*%
%TA.AperFunction,ComponentPad*%
%ADD29C,2.286000*%
%TD*%
%TA.AperFunction,ComponentPad*%
%ADD30R,1.700000X1.700000*%
%TD*%
%TA.AperFunction,ComponentPad*%
%ADD31C,1.700000*%
%TD*%
%TA.AperFunction,SMDPad,CuDef*%
%ADD32RoundRect,0.375000X0.375000X-0.625000X0.375000X0.625000X-0.375000X0.625000X-0.375000X-0.625000X0*%
%TD*%
%TA.AperFunction,SMDPad,CuDef*%
%ADD33RoundRect,0.500000X1.400000X-0.500000X1.400000X0.500000X-1.400000X0.500000X-1.400000X-0.500000X0*%
%TD*%
%TA.AperFunction,SMDPad,CuDef*%
%ADD34RoundRect,0.140000X0.170000X-0.140000X0.170000X0.140000X-0.170000X0.140000X-0.170000X-0.140000X0*%
%TD*%
%TA.AperFunction,SMDPad,CuDef*%
%ADD35RoundRect,0.140000X-0.140000X-0.170000X0.140000X-0.170000X0.140000X0.170000X-0.140000X0.170000X0*%
%TD*%
%TA.AperFunction,SMDPad,CuDef*%
%ADD36RoundRect,0.218750X0.256250X-0.218750X0.256250X0.218750X-0.256250X0.218750X-0.256250X-0.218750X0*%
%TD*%
%TA.AperFunction,ViaPad*%
%ADD37C,0.700000*%
%TD*%
%TA.AperFunction,ViaPad*%
%ADD38C,1.000000*%
%TD*%
%TA.AperFunction,ViaPad*%
%ADD39C,0.600000*%
%TD*%
%TA.AperFunction,Conductor*%
%ADD40C,0.300000*%
%TD*%
%TA.AperFunction,Conductor*%
%ADD41C,0.500000*%
%TD*%
G04 APERTURE END LIST*
D10*
%TO.P,U2,1,GND*%
%TO.N,GND*%
X63750000Y-36170000D03*
%TO.P,U2,2,3V3*%
%TO.N,+3.3V*%
X63750000Y-37440000D03*
%TO.P,U2,3,EN*%
%TO.N,Net-(U2-EN)*%
X63750000Y-38710000D03*
%TO.P,U2,4,IO4*%
%TO.N,unconnected-(U2-IO4-Pad4)*%
X63750000Y-39980000D03*
%TO.P,U2,5,IO5*%
%TO.N,unconnected-(U2-IO5-Pad5)*%
X63750000Y-41250000D03*
%TO.P,U2,6,IO6*%
%TO.N,unconnected-(U2-IO6-Pad6)*%
X63750000Y-42520000D03*
%TO.P,U2,7,IO7*%
%TO.N,unconnected-(U2-IO7-Pad7)*%
X63750000Y-43790000D03*
%TO.P,U2,8,IO15*%
%TO.N,unconnected-(U2-IO15-Pad8)*%
X63750000Y-45060000D03*
%TO.P,U2,9,IO16*%
%TO.N,unconnected-(U2-IO16-Pad9)*%
X63750000Y-46330000D03*
%TO.P,U2,10,IO17*%
%TO.N,unconnected-(U2-IO17-Pad10)*%
X63750000Y-47600000D03*
%TO.P,U2,11,IO18*%
%TO.N,unconnected-(U2-IO18-Pad11)*%
X63750000Y-48870000D03*
%TO.P,U2,12,IO8*%
%TO.N,/LCD_RST*%
X63750000Y-50140000D03*
%TO.P,U2,13,USB_D-*%
%TO.N,/USB_D-*%
X63750000Y-51410000D03*
%TO.P,U2,14,USB_D+*%
%TO.N,/USB_D+*%
X63750000Y-52680000D03*
D11*
%TO.P,U2,15,IO3*%
%TO.N,unconnected-(U2-IO3-Pad15)*%
X65515000Y-53930000D03*
%TO.P,U2,16,IO46*%
%TO.N,/LEFT_V*%
X66785000Y-53930000D03*
%TO.P,U2,17,IO9*%
%TO.N,/LCD_AO*%
X68055000Y-53930000D03*
%TO.P,U2,18,IO10*%
%TO.N,/LCD_CS*%
X69325000Y-53930000D03*
%TO.P,U2,19,IO11*%
%TO.N,/SPI1_MOSI*%
X70595000Y-53930000D03*
%TO.P,U2,20,IO12*%
%TO.N,/SPI1_SCK*%
X71865000Y-53930000D03*
%TO.P,U2,21,IO13*%
%TO.N,unconnected-(U2-IO13-Pad21)*%
X73135000Y-53930000D03*
%TO.P,U2,22,IO14*%
%TO.N,unconnected-(U2-IO14-Pad22)*%
X74405000Y-53930000D03*
%TO.P,U2,23,IO21*%
%TO.N,unconnected-(U2-IO21-Pad23)*%
X75675000Y-53930000D03*
%TO.P,U2,24,IO47*%
%TO.N,/RIGHT_H*%
X76945000Y-53930000D03*
%TO.P,U2,25,IO48*%
%TO.N,/RIGHT_V*%
X78215000Y-53930000D03*
%TO.P,U2,26,IO45*%
%TO.N,/LEFT_H*%
X79485000Y-53930000D03*
D10*
%TO.P,U2,27,IO0*%
%TO.N,Net-(U2-IO0)*%
X81250000Y-52680000D03*
%TO.P,U2,28,IO35*%
%TO.N,unconnected-(U2-IO35-Pad28)*%
X81250000Y-51410000D03*
%TO.P,U2,29,IO36*%
%TO.N,unconnected-(U2-IO36-Pad29)*%
X81250000Y-50140000D03*
%TO.P,U2,30,IO37*%
%TO.N,unconnected-(U2-IO37-Pad30)*%
X81250000Y-48870000D03*
%TO.P,U2,31,IO38*%
%TO.N,/MCU_IN_BAT*%
X81250000Y-47600000D03*
%TO.P,U2,32,IO39*%
%TO.N,/SW_1*%
X81250000Y-46330000D03*
%TO.P,U2,33,IO40*%
%TO.N,/SW_2*%
X81250000Y-45060000D03*
%TO.P,U2,34,IO41*%
%TO.N,/SW_3*%
X81250000Y-43790000D03*
%TO.P,U2,35,IO42*%
%TO.N,/SW_4*%
X81250000Y-42520000D03*
%TO.P,U2,36,RXD0*%
%TO.N,/TXD0*%
X81250000Y-41250000D03*
%TO.P,U2,37,TXD0*%
%TO.N,/RXD0*%
X81250000Y-39980000D03*
%TO.P,U2,38,IO2*%
%TO.N,unconnected-(U2-IO2-Pad38)*%
X81250000Y-38710000D03*
%TO.P,U2,39,IO1*%
%TO.N,unconnected-(U2-IO1-Pad39)*%
X81250000Y-37440000D03*
%TO.P,U2,40,GND*%
%TO.N,GND*%
X81250000Y-36170000D03*
D12*
%TO.P,U2,41,GND*%
X71000000Y-43890000D03*
%TD*%
D13*
%TO.P,U1,9,EPAD*%
%TO.N,GND*%
X117880000Y-70490000D03*
D14*
%TO.P,U1,8,CE*%
%TO.N,Net-(U1-CE)*%
X115975000Y-68015000D03*
%TO.P,U1,7,~{CHRG}*%
%TO.N,Net-(D2-K)*%
X117245000Y-68015000D03*
%TO.P,U1,6,~{STDBY}*%
%TO.N,Net-(D3-K)*%
X118515000Y-68015000D03*
%TO.P,U1,5,BAT*%
%TO.N,/BAT+*%
X119785000Y-68015000D03*
%TO.P,U1,4,V_{CC}*%
%TO.N,Net-(U1-CE)*%
X119785000Y-72965000D03*
%TO.P,U1,3,GND*%
%TO.N,GND*%
X118515000Y-72965000D03*
%TO.P,U1,2,PROG*%
%TO.N,Net-(U1-PROG)*%
X117245000Y-72965000D03*
%TO.P,U1,1,TEMP*%
%TO.N,Net-(U1-TEMP)*%
X115975000Y-72965000D03*
%TD*%
D15*
%TO.P,SW1,1,1*%
%TO.N,GND*%
X56500000Y-40680000D03*
X50000000Y-40680000D03*
%TO.P,SW1,2,2*%
%TO.N,Net-(U2-EN)*%
X56500000Y-36180000D03*
X50000000Y-36180000D03*
%TD*%
D16*
%TO.P,J9,A1,GND*%
%TO.N,GND*%
X45300000Y-69350000D03*
%TO.P,J9,A4,VBUS*%
%TO.N,VBUS*%
X46100000Y-69350000D03*
D17*
%TO.P,J9,A5,CC1*%
%TO.N,Net-(J9-CC1)*%
X47250000Y-69350000D03*
%TO.P,J9,A6,D+*%
%TO.N,/USB_D+*%
X48250000Y-69350000D03*
%TO.P,J9,A7,D-*%
%TO.N,/USB_D-*%
X48750000Y-69350000D03*
%TO.P,J9,A8,SBU1*%
%TO.N,unconnected-(J9-SBU1-PadA8)*%
X49750000Y-69350000D03*
D16*
%TO.P,J9,A9,VBUS*%
%TO.N,VBUS*%
X50900000Y-69350000D03*
%TO.P,J9,A12,GND*%
%TO.N,GND*%
X51700000Y-69350000D03*
%TO.P,J9,B1,GND*%
X51700000Y-69350000D03*
%TO.P,J9,B4,VBUS*%
%TO.N,VBUS*%
X50900000Y-69350000D03*
D17*
%TO.P,J9,B5,CC2*%
%TO.N,Net-(J9-CC2)*%
X50250000Y-69350000D03*
%TO.P,J9,B6,D+*%
%TO.N,/USB_D+*%
X49250000Y-69350000D03*
%TO.P,J9,B7,D-*%
%TO.N,/USB_D-*%
X47750000Y-69350000D03*
%TO.P,J9,B8,SBU2*%
%TO.N,unconnected-(J9-SBU2-PadB8)*%
X46750000Y-69350000D03*
D16*
%TO.P,J9,B9,VBUS*%
%TO.N,VBUS*%
X46100000Y-69350000D03*
%TO.P,J9,B12,GND*%
%TO.N,GND*%
X45300000Y-69350000D03*
D18*
%TO.P,J9,S1,SHIELD*%
%TO.N,unconnected-(J9-SHIELD-PadS1)*%
X44180000Y-69925000D03*
D19*
%TO.N,unconnected-(J9-SHIELD-PadS1)_1*%
X44180000Y-74105000D03*
D18*
%TO.N,unconnected-(J9-SHIELD-PadS1)_2*%
X52820000Y-69925000D03*
D19*
%TO.N,unconnected-(J9-SHIELD-PadS1)_3*%
X52820000Y-74105000D03*
%TD*%
D20*
%TO.P,R16,2*%
%TO.N,VBUS*%
X54710000Y-68200000D03*
%TO.P,R16,1*%
%TO.N,Net-(U1-CE)*%
X54710000Y-69850000D03*
%TD*%
D21*
%TO.P,R8,1*%
%TO.N,GND*%
X90065000Y-65140000D03*
%TO.P,R8,2*%
%TO.N,/SW_4*%
X88415000Y-65140000D03*
%TD*%
D22*
%TO.P,R1,1*%
%TO.N,GND*%
X59870000Y-64960000D03*
%TO.P,R1,2*%
%TO.N,/SW_1*%
X61520000Y-64960000D03*
%TD*%
D20*
%TO.P,R18,1*%
%TO.N,GND*%
X114400000Y-74740000D03*
%TO.P,R18,2*%
%TO.N,Net-(U1-TEMP)*%
X114400000Y-73090000D03*
%TD*%
D22*
%TO.P,R2,1*%
%TO.N,+3.3V*%
X58680000Y-52690000D03*
%TO.P,R2,2*%
%TO.N,/USB_D+*%
X60330000Y-52690000D03*
%TD*%
D23*
%TO.P,C11,1*%
%TO.N,VBUS*%
X97670000Y-54470000D03*
%TO.P,C11,2*%
%TO.N,GND*%
X99220000Y-54470000D03*
%TD*%
D24*
%TO.P,BT1,1,+*%
%TO.N,/BAT+*%
X122050000Y-62960000D03*
D25*
%TO.P,BT1,2,-*%
%TO.N,GND*%
X122050000Y-65960000D03*
%TD*%
D22*
%TO.P,R5,1*%
%TO.N,GND*%
X78920000Y-65120000D03*
%TO.P,R5,2*%
%TO.N,/SW_3*%
X80570000Y-65120000D03*
%TD*%
D26*
%TO.P,D2,1,K*%
%TO.N,Net-(D2-K)*%
X110085000Y-67510000D03*
%TO.P,D2,2,A*%
%TO.N,Net-(D2-A)*%
X111660000Y-67510000D03*
%TD*%
D20*
%TO.P,R20,1*%
%TO.N,+3.3V*%
X98180000Y-39480000D03*
%TO.P,R20,2*%
%TO.N,Net-(U2-IO0)*%
X98180000Y-37830000D03*
%TD*%
D21*
%TO.P,R14,2*%
%TO.N,Net-(D2-A)*%
X113035000Y-67510000D03*
%TO.P,R14,1*%
%TO.N,Net-(U1-CE)*%
X114685000Y-67510000D03*
%TD*%
%TO.P,R6,1*%
%TO.N,Net-(J9-CC1)*%
X46975000Y-66460000D03*
%TO.P,R6,2*%
%TO.N,GND*%
X45325000Y-66460000D03*
%TD*%
D27*
%TO.P,R22,1*%
%TO.N,GND*%
X119740000Y-60610000D03*
%TO.P,R22,2*%
%TO.N,/MCU_IN_BAT*%
X119740000Y-62260000D03*
%TD*%
D28*
%TO.P,U5,H1,H+*%
%TO.N,+3.3V*%
X128020000Y-50390000D03*
%TO.P,U5,H2,H*%
%TO.N,/RIGHT_H*%
X128020000Y-47850000D03*
%TO.P,U5,H3,H-*%
%TO.N,GND*%
X128020000Y-45310000D03*
D29*
%TO.P,U5,S1,SHIELD*%
X111150000Y-55580000D03*
%TO.P,U5,S2,SHIELD__1*%
X124450000Y-55530000D03*
%TO.P,U5,S3,SHIELD__2*%
X124510000Y-40030000D03*
%TO.P,U5,S4,SHIELD__3*%
X111210000Y-40080000D03*
D28*
%TO.P,U5,V1,V+*%
%TO.N,+3.3V*%
X115320000Y-58010000D03*
%TO.P,U5,V2,V*%
%TO.N,/RIGHT_V*%
X117860000Y-58010000D03*
%TO.P,U5,V3,V-*%
%TO.N,GND*%
X120400000Y-58010000D03*
%TD*%
D30*
%TO.P,J2,1,Pin_1*%
%TO.N,+3.3V*%
X45080000Y-36620000D03*
D31*
%TO.P,J2,2,Pin_2*%
%TO.N,/SPI1_SCK*%
X45080000Y-39160000D03*
%TO.P,J2,3,Pin_3*%
%TO.N,/SPI1_MOSI*%
X45080000Y-41700000D03*
%TO.P,J2,4,Pin_4*%
%TO.N,/LCD_AO*%
X45080000Y-44240000D03*
%TO.P,J2,5,Pin_5*%
%TO.N,/LCD_RST*%
X45080000Y-46780000D03*
%TO.P,J2,6,Pin_6*%
%TO.N,/LCD_CS*%
X45080000Y-49320000D03*
%TO.P,J2,7,Pin_7*%
%TO.N,GND*%
X45080000Y-51860000D03*
%TO.P,J2,8,Pin_8*%
%TO.N,+3.3V*%
X45080000Y-54400000D03*
%TD*%
D22*
%TO.P,R7,1*%
%TO.N,Net-(J9-CC2)*%
X51410000Y-66040000D03*
%TO.P,R7,2*%
%TO.N,GND*%
X53060000Y-66040000D03*
%TD*%
D27*
%TO.P,R15,1*%
%TO.N,Net-(U1-CE)*%
X116680000Y-60700000D03*
%TO.P,R15,2*%
%TO.N,Net-(D3-A)*%
X116680000Y-62350000D03*
%TD*%
D22*
%TO.P,R19,1*%
%TO.N,+3.3V*%
X47610000Y-42950000D03*
%TO.P,R19,2*%
%TO.N,Net-(U2-EN)*%
X49260000Y-42950000D03*
%TD*%
D32*
%TO.P,U3,1,GND*%
%TO.N,GND*%
X92797500Y-52350000D03*
%TO.P,U3,2,VO*%
%TO.N,+3.3V*%
X95097500Y-52350000D03*
D33*
X95097500Y-46050000D03*
D32*
%TO.P,U3,3,VI*%
%TO.N,VBUS*%
X97397500Y-52350000D03*
%TD*%
D30*
%TO.P,J1,1,Pin_1*%
%TO.N,/TXD0*%
X122230000Y-36480000D03*
D31*
%TO.P,J1,2,Pin_2*%
%TO.N,/RXD0*%
X124770000Y-36480000D03*
%TO.P,J1,3,Pin_3*%
%TO.N,GND*%
X127310000Y-36480000D03*
%TD*%
D15*
%TO.P,SW6,1,1*%
%TO.N,+3.3V*%
X92440000Y-71870000D03*
X85940000Y-71870000D03*
%TO.P,SW6,2,2*%
%TO.N,/SW_4*%
X92440000Y-67370000D03*
X85940000Y-67370000D03*
%TD*%
D21*
%TO.P,R17,1*%
%TO.N,GND*%
X118820000Y-74940000D03*
%TO.P,R17,2*%
%TO.N,Net-(U1-PROG)*%
X117170000Y-74940000D03*
%TD*%
%TO.P,R4,1*%
%TO.N,GND*%
X70850000Y-65050000D03*
%TO.P,R4,2*%
%TO.N,/SW_2*%
X69200000Y-65050000D03*
%TD*%
D34*
%TO.P,C3,1*%
%TO.N,+3.3V*%
X61230000Y-37330000D03*
%TO.P,C3,2*%
%TO.N,GND*%
X61230000Y-36370000D03*
%TD*%
D15*
%TO.P,SW4,1,1*%
%TO.N,+3.3V*%
X73240000Y-71860000D03*
X66740000Y-71860000D03*
%TO.P,SW4,2,2*%
%TO.N,/SW_2*%
X73240000Y-67360000D03*
X66740000Y-67360000D03*
%TD*%
D27*
%TO.P,R3,1*%
%TO.N,Net-(D1-K)*%
X95420000Y-57490000D03*
%TO.P,R3,2*%
%TO.N,GND*%
X95420000Y-59140000D03*
%TD*%
D28*
%TO.P,U4,H1,H+*%
%TO.N,+3.3V*%
X33137500Y-50370000D03*
%TO.P,U4,H2,H*%
%TO.N,/LEFT_H*%
X33137500Y-47830000D03*
%TO.P,U4,H3,H-*%
%TO.N,GND*%
X33137500Y-45290000D03*
D29*
%TO.P,U4,S1,SHIELD*%
X16310000Y-55450000D03*
%TO.P,U4,S2,SHIELD__1*%
X29645000Y-55450000D03*
%TO.P,U4,S3,SHIELD__2*%
X29645000Y-40210000D03*
%TO.P,U4,S4,SHIELD__3*%
X16310000Y-40210000D03*
D28*
%TO.P,U4,V1,V+*%
%TO.N,+3.3V*%
X20437500Y-57990000D03*
%TO.P,U4,V2,V*%
%TO.N,/LEFT_V*%
X22977500Y-57990000D03*
%TO.P,U4,V3,V-*%
%TO.N,GND*%
X25517500Y-57990000D03*
%TD*%
D34*
%TO.P,C2,1*%
%TO.N,+3.3V*%
X62250000Y-37330000D03*
%TO.P,C2,2*%
%TO.N,GND*%
X62250000Y-36370000D03*
%TD*%
D35*
%TO.P,C1,1*%
%TO.N,/BAT+*%
X121510000Y-64450000D03*
%TO.P,C1,2*%
%TO.N,GND*%
X122470000Y-64450000D03*
%TD*%
D15*
%TO.P,SW2,1,1*%
%TO.N,GND*%
X95120000Y-40750000D03*
X88620000Y-40750000D03*
%TO.P,SW2,2,2*%
%TO.N,Net-(U2-IO0)*%
X95120000Y-36250000D03*
X88620000Y-36250000D03*
%TD*%
%TO.P,SW5,1,1*%
%TO.N,+3.3V*%
X82890000Y-71860000D03*
X76390000Y-71860000D03*
%TO.P,SW5,2,2*%
%TO.N,/SW_3*%
X82890000Y-67360000D03*
X76390000Y-67360000D03*
%TD*%
D23*
%TO.P,C12,1*%
%TO.N,+3.3V*%
X97690000Y-55990000D03*
%TO.P,C12,2*%
%TO.N,GND*%
X99240000Y-55990000D03*
%TD*%
D15*
%TO.P,SW3,1,1*%
%TO.N,+3.3V*%
X63670000Y-71860000D03*
X57170000Y-71860000D03*
%TO.P,SW3,2,2*%
%TO.N,/SW_1*%
X63670000Y-67360000D03*
X57170000Y-67360000D03*
%TD*%
D36*
%TO.P,D3,1,K*%
%TO.N,Net-(D3-K)*%
X116680000Y-65335000D03*
%TO.P,D3,2,A*%
%TO.N,Net-(D3-A)*%
X116680000Y-63760000D03*
%TD*%
%TO.P,D1,1,K*%
%TO.N,Net-(D1-K)*%
X95380000Y-56010000D03*
%TO.P,D1,2,A*%
%TO.N,+3.3V*%
X95380000Y-54435000D03*
%TD*%
D27*
%TO.P,R21,1*%
%TO.N,/MCU_IN_BAT*%
X119730000Y-63740000D03*
%TO.P,R21,2*%
%TO.N,/BAT+*%
X119730000Y-65390000D03*
%TD*%
D37*
%TO.N,Net-(U1-CE)*%
X54800000Y-71060000D03*
X54800000Y-72940000D03*
D38*
%TO.N,GND*%
X71000000Y-43890000D03*
D37*
X117880000Y-70490000D03*
%TO.N,+3.3V*%
X48940000Y-49170000D03*
X48940000Y-51010000D03*
%TO.N,Net-(U2-IO0)*%
X84380000Y-39260000D03*
X84370000Y-48420000D03*
%TO.N,/TXD0*%
X122220000Y-39470000D03*
X99230000Y-42630000D03*
X96860000Y-42800000D03*
%TO.N,/MCU_IN_BAT*%
X85570000Y-47650000D03*
X93810000Y-63210000D03*
X96850000Y-63500000D03*
X89210000Y-47650000D03*
X93810000Y-59790000D03*
X98530000Y-63450000D03*
X111360000Y-63510000D03*
X112700000Y-64790000D03*
D39*
%TO.N,VBUS*%
X97670000Y-54470000D03*
D37*
X96760000Y-62290000D03*
X89290000Y-62320000D03*
X85620000Y-61680000D03*
%TO.N,GND*%
X45310000Y-70680000D03*
X51700000Y-70670000D03*
X51620000Y-67480000D03*
%TO.N,+3.3V*%
X110900000Y-59340000D03*
X30810000Y-50320000D03*
X28660000Y-50430000D03*
X20450000Y-56350000D03*
X20440000Y-53920000D03*
X45080000Y-62210000D03*
X97680000Y-62630000D03*
X97680000Y-59990000D03*
D39*
%TO.N,GND*%
X91440000Y-65130000D03*
D37*
%TO.N,/USB_D+*%
X49420000Y-62210000D03*
X49520000Y-56880000D03*
%TO.N,/USB_D-*%
X48065000Y-56745000D03*
X47750000Y-62210000D03*
%TO.N,/LEFT_V*%
X54480000Y-56940000D03*
X54500000Y-61180000D03*
%TO.N,/RIGHT_H*%
X85470000Y-58030000D03*
D39*
X75890000Y-56280000D03*
X77770000Y-58070000D03*
D37*
X89370000Y-58170000D03*
%TO.N,/RIGHT_V*%
X89220000Y-59160000D03*
X85780000Y-59160000D03*
D39*
X75400000Y-57860000D03*
X76660000Y-59140000D03*
%TO.N,GND*%
X90180000Y-39760000D03*
D37*
X82980000Y-36190000D03*
X111180000Y-42000000D03*
X127310000Y-38850000D03*
D39*
X99240000Y-57320000D03*
D37*
X95420000Y-60050000D03*
D39*
X92800000Y-50210000D03*
D37*
X58580000Y-64950000D03*
D39*
X72400000Y-65080000D03*
X77370000Y-65140000D03*
D37*
%TO.N,+3.3V*%
X59680000Y-37410000D03*
X59670000Y-39730000D03*
%TO.N,GND*%
X55080000Y-40670000D03*
X61240000Y-35480000D03*
X49260000Y-38900000D03*
X47840000Y-51670000D03*
D39*
%TO.N,/LCD_AO*%
X57289000Y-56040000D03*
D37*
X56250000Y-58540000D03*
%TO.N,GND*%
X16310000Y-53040000D03*
%TD*%
D40*
%TO.N,/MCU_IN_BAT*%
X89210000Y-55650000D02*
X89210000Y-47650000D01*
X93350000Y-59790000D02*
X89210000Y-55650000D01*
X93810000Y-59790000D02*
X93350000Y-59790000D01*
%TO.N,/RIGHT_V*%
X113593625Y-61490000D02*
X117073625Y-58010000D01*
X89760000Y-61490000D02*
X113593625Y-61490000D01*
X89220000Y-60950000D02*
X89760000Y-61490000D01*
X117073625Y-58010000D02*
X117860000Y-58010000D01*
X89220000Y-59160000D02*
X89220000Y-60950000D01*
%TO.N,/USB_D-*%
X60350226Y-51410000D02*
X63750000Y-51410000D01*
X50920000Y-53890000D02*
X58739774Y-53890000D01*
X59579000Y-52181226D02*
X60350226Y-51410000D01*
X48065000Y-56745000D02*
X50920000Y-53890000D01*
X58739774Y-53890000D02*
X59579000Y-53050774D01*
X59579000Y-53050774D02*
X59579000Y-52181226D01*
%TO.N,/LCD_AO*%
X42629000Y-56897521D02*
X42629000Y-46691000D01*
X44071479Y-58340000D02*
X42629000Y-56897521D01*
X56250000Y-58540000D02*
X56050000Y-58340000D01*
X42629000Y-46691000D02*
X45080000Y-44240000D01*
X56050000Y-58340000D02*
X44071479Y-58340000D01*
%TO.N,/SPI1_MOSI*%
X70595000Y-55541480D02*
X70595000Y-53930000D01*
X42280000Y-59310000D02*
X66826480Y-59310000D01*
X41280000Y-58310000D02*
X42280000Y-59310000D01*
X66826480Y-59310000D02*
X70595000Y-55541480D01*
X45080000Y-42180000D02*
X41280000Y-45980000D01*
X41280000Y-45980000D02*
X41280000Y-58310000D01*
X45080000Y-41700000D02*
X45080000Y-42180000D01*
%TO.N,GND*%
X95420000Y-59140000D02*
X95420000Y-60050000D01*
%TO.N,/MCU_IN_BAT*%
X85330000Y-47600000D02*
X81250000Y-47600000D01*
X85570000Y-47650000D02*
X85380000Y-47650000D01*
X85380000Y-47650000D02*
X85330000Y-47600000D01*
%TO.N,/TXD0*%
X99750000Y-43150000D02*
X118540000Y-43150000D01*
X99230000Y-42630000D02*
X99750000Y-43150000D01*
X118540000Y-43150000D02*
X122220000Y-39470000D01*
%TO.N,VBUS*%
X96730000Y-62320000D02*
X96760000Y-62290000D01*
X89290000Y-62320000D02*
X96730000Y-62320000D01*
X54710000Y-66540000D02*
X54710000Y-68200000D01*
X60451774Y-65786000D02*
X55464000Y-65786000D01*
X60769000Y-64451226D02*
X60769000Y-65468774D01*
X63520226Y-61700000D02*
X60769000Y-64451226D01*
X85330000Y-61680000D02*
X85310000Y-61700000D01*
X85310000Y-61700000D02*
X63520226Y-61700000D01*
X85620000Y-61680000D02*
X85330000Y-61680000D01*
X60769000Y-65468774D02*
X60451774Y-65786000D01*
X55464000Y-65786000D02*
X54710000Y-66540000D01*
%TO.N,/SW_1*%
X67620000Y-63410000D02*
X63670000Y-67360000D01*
X85242000Y-63410000D02*
X67620000Y-63410000D01*
X86662000Y-46880000D02*
X86662000Y-61990000D01*
X86112000Y-46330000D02*
X86662000Y-46880000D01*
X81250000Y-46330000D02*
X86112000Y-46330000D01*
X86662000Y-61990000D02*
X85242000Y-63410000D01*
%TO.N,/USB_D-*%
X47750000Y-69350000D02*
X47750000Y-62210000D01*
%TO.N,/USB_D+*%
X49250000Y-62380000D02*
X49250000Y-67600000D01*
X49420000Y-62210000D02*
X49250000Y-62380000D01*
%TO.N,GND*%
X45300000Y-70420000D02*
X45300000Y-69350000D01*
X45310000Y-70430000D02*
X45300000Y-70420000D01*
X45310000Y-70680000D02*
X45310000Y-70430000D01*
%TO.N,Net-(U1-CE)*%
X54800000Y-69940000D02*
X54710000Y-69850000D01*
X54800000Y-71060000D02*
X54800000Y-69940000D01*
%TO.N,VBUS*%
X50900000Y-68862322D02*
X51562322Y-68200000D01*
X51562322Y-68200000D02*
X54710000Y-68200000D01*
X50900000Y-69350000D02*
X50900000Y-68862322D01*
%TO.N,Net-(U1-CE)*%
X54800000Y-72990000D02*
X54800000Y-72940000D01*
X58077000Y-76267000D02*
X54800000Y-72990000D01*
X58077000Y-76267000D02*
X58067000Y-76267000D01*
%TO.N,/SW_2*%
X66740000Y-67360000D02*
X73240000Y-67360000D01*
%TO.N,GND*%
X118515000Y-72965000D02*
X118515000Y-71125000D01*
X118515000Y-71125000D02*
X117880000Y-70490000D01*
D41*
%TO.N,+3.3V*%
X48940000Y-49170000D02*
X48940000Y-44280000D01*
X48940000Y-52690000D02*
X58680000Y-52690000D01*
X48940000Y-52690000D02*
X48940000Y-51010000D01*
X47610000Y-42950000D02*
X48390000Y-43730000D01*
X48940000Y-44280000D02*
X48390000Y-43730000D01*
X46790000Y-52690000D02*
X48940000Y-52690000D01*
X45080000Y-54400000D02*
X46790000Y-52690000D01*
D40*
%TO.N,Net-(U2-IO0)*%
X87390000Y-36250000D02*
X88620000Y-36250000D01*
X84380000Y-39260000D02*
X87390000Y-36250000D01*
X84370000Y-50610000D02*
X84370000Y-48420000D01*
X82300000Y-52680000D02*
X84370000Y-50610000D01*
X81250000Y-52680000D02*
X82300000Y-52680000D01*
%TO.N,/TXD0*%
X88759397Y-42800000D02*
X96860000Y-42800000D01*
X87209397Y-41250000D02*
X88759397Y-42800000D01*
X81250000Y-41250000D02*
X87209397Y-41250000D01*
%TO.N,/RXD0*%
X122664000Y-38586000D02*
X124770000Y-36480000D01*
X87479397Y-39980000D02*
X88873397Y-38586000D01*
X88873397Y-38586000D02*
X122664000Y-38586000D01*
X81250000Y-39980000D02*
X87479397Y-39980000D01*
%TO.N,/MCU_IN_BAT*%
X96850000Y-63500000D02*
X96560000Y-63210000D01*
X98660000Y-63320000D02*
X98530000Y-63450000D01*
X111170000Y-63320000D02*
X98660000Y-63320000D01*
X96560000Y-63210000D02*
X93810000Y-63210000D01*
X115891000Y-61599000D02*
X112700000Y-64790000D01*
X119079000Y-61599000D02*
X115891000Y-61599000D01*
X111360000Y-63510000D02*
X111170000Y-63320000D01*
X119740000Y-62260000D02*
X119079000Y-61599000D01*
%TO.N,VBUS*%
X97670000Y-52622500D02*
X97397500Y-52350000D01*
X97670000Y-54470000D02*
X97670000Y-52622500D01*
%TO.N,GND*%
X51700000Y-69350000D02*
X51700000Y-70670000D01*
X53060000Y-66040000D02*
X51620000Y-67480000D01*
%TO.N,Net-(U1-CE)*%
X114667226Y-76267000D02*
X58077000Y-76267000D01*
D41*
%TO.N,+3.3V*%
X110250000Y-59990000D02*
X110900000Y-59340000D01*
X97680000Y-59990000D02*
X110250000Y-59990000D01*
X33087500Y-50320000D02*
X33137500Y-50370000D01*
X30810000Y-50320000D02*
X33087500Y-50320000D01*
X20440000Y-53920000D02*
X25170000Y-53920000D01*
X20437500Y-56362500D02*
X20450000Y-56350000D01*
X25170000Y-53920000D02*
X28660000Y-50430000D01*
X20437500Y-57990000D02*
X20437500Y-56362500D01*
X42780000Y-64510000D02*
X45080000Y-62210000D01*
X42780000Y-71860000D02*
X34307500Y-71860000D01*
X42780000Y-71860000D02*
X42780000Y-64510000D01*
X57170000Y-71860000D02*
X42780000Y-71860000D01*
X34307500Y-71860000D02*
X20437500Y-57990000D01*
X63670000Y-71860000D02*
X57170000Y-71860000D01*
X66740000Y-71860000D02*
X63670000Y-71860000D01*
X73240000Y-71860000D02*
X66740000Y-71860000D01*
X73240000Y-71860000D02*
X76390000Y-71860000D01*
X82890000Y-71860000D02*
X76390000Y-71860000D01*
X85940000Y-71870000D02*
X82900000Y-71870000D01*
X82900000Y-71870000D02*
X82890000Y-71860000D01*
X92440000Y-71870000D02*
X85940000Y-71870000D01*
X97680000Y-66630000D02*
X92440000Y-71870000D01*
X97680000Y-62630000D02*
X97680000Y-66630000D01*
X97690000Y-59980000D02*
X97680000Y-59990000D01*
X97690000Y-55990000D02*
X97690000Y-59980000D01*
X95380000Y-52632500D02*
X95097500Y-52350000D01*
X95380000Y-54435000D02*
X95380000Y-52632500D01*
X96935000Y-55990000D02*
X95380000Y-54435000D01*
X97690000Y-55990000D02*
X96935000Y-55990000D01*
D40*
%TO.N,/SW_4*%
X85940000Y-67370000D02*
X92440000Y-67370000D01*
%TO.N,GND*%
X91430000Y-65140000D02*
X91440000Y-65130000D01*
X90065000Y-65140000D02*
X91430000Y-65140000D01*
%TO.N,/USB_D-*%
X48750000Y-70029534D02*
X48750000Y-69350000D01*
X48279534Y-70500000D02*
X48750000Y-70029534D01*
X47750000Y-70160000D02*
X48090000Y-70500000D01*
X47750000Y-69350000D02*
X47750000Y-70160000D01*
X48090000Y-70500000D02*
X48279534Y-70500000D01*
%TO.N,VBUS*%
X46100000Y-69888281D02*
X46100000Y-69350000D01*
X49728281Y-71060000D02*
X47271719Y-71060000D01*
X47271719Y-71060000D02*
X46100000Y-69888281D01*
X50900000Y-69888281D02*
X49728281Y-71060000D01*
X50900000Y-69350000D02*
X50900000Y-69888281D01*
%TO.N,/USB_D+*%
X48250000Y-68600000D02*
X49250000Y-67600000D01*
X49250000Y-67600000D02*
X49250000Y-69350000D01*
X48250000Y-69350000D02*
X48250000Y-68600000D01*
X51512000Y-54888000D02*
X49520000Y-56880000D01*
X60330000Y-53980000D02*
X59422000Y-54888000D01*
X59422000Y-54888000D02*
X51512000Y-54888000D01*
X60330000Y-52690000D02*
X60330000Y-53980000D01*
%TO.N,Net-(J9-CC1)*%
X47250000Y-68640000D02*
X46975000Y-68365000D01*
X46975000Y-68365000D02*
X46975000Y-66460000D01*
X47250000Y-69350000D02*
X47250000Y-68640000D01*
%TO.N,GND*%
X45300000Y-68400000D02*
X45325000Y-68375000D01*
X45325000Y-68375000D02*
X45325000Y-66460000D01*
X45300000Y-68480000D02*
X45300000Y-68400000D01*
%TO.N,Net-(J9-CC2)*%
X50250000Y-67200000D02*
X51410000Y-66040000D01*
X50250000Y-69350000D02*
X50250000Y-67200000D01*
%TO.N,GND*%
X45300000Y-68480000D02*
X45375000Y-68405000D01*
X45300000Y-69350000D02*
X45300000Y-68480000D01*
%TO.N,/LEFT_V*%
X66785000Y-54980000D02*
X66785000Y-53930000D01*
X66376000Y-55389000D02*
X66785000Y-54980000D01*
X56031000Y-55389000D02*
X66376000Y-55389000D01*
X54480000Y-56940000D02*
X56031000Y-55389000D01*
X26167500Y-61180000D02*
X54500000Y-61180000D01*
X22977500Y-57990000D02*
X26167500Y-61180000D01*
%TO.N,+3.3V*%
X122940000Y-50390000D02*
X128020000Y-50390000D01*
X115320000Y-58010000D02*
X122940000Y-50390000D01*
%TO.N,/RIGHT_H*%
X110715375Y-60861000D02*
X123726375Y-47850000D01*
X123726375Y-47850000D02*
X128020000Y-47850000D01*
X92061000Y-60861000D02*
X110715375Y-60861000D01*
X89370000Y-58170000D02*
X92061000Y-60861000D01*
X77770000Y-58070000D02*
X85430000Y-58070000D01*
X76945000Y-55225000D02*
X75890000Y-56280000D01*
X85430000Y-58070000D02*
X85470000Y-58030000D01*
X76945000Y-53930000D02*
X76945000Y-55225000D01*
%TO.N,/RIGHT_V*%
X85760000Y-59140000D02*
X85780000Y-59160000D01*
X76660000Y-59140000D02*
X85760000Y-59140000D01*
X78215000Y-55045000D02*
X75400000Y-57860000D01*
X78215000Y-53930000D02*
X78215000Y-55045000D01*
%TO.N,/LEFT_H*%
X74114000Y-60351000D02*
X79485000Y-54980000D01*
X41602479Y-60351000D02*
X74114000Y-60351000D01*
X37389000Y-56137520D02*
X41602479Y-60351000D01*
X37389000Y-52081500D02*
X37389000Y-56137520D01*
X79485000Y-54980000D02*
X79485000Y-53930000D01*
X33137500Y-47830000D02*
X37389000Y-52081500D01*
D41*
%TO.N,GND*%
X89190000Y-40750000D02*
X90180000Y-39760000D01*
X88620000Y-40750000D02*
X89190000Y-40750000D01*
X82960000Y-36170000D02*
X82980000Y-36190000D01*
X81250000Y-36170000D02*
X82960000Y-36170000D01*
D40*
X111210000Y-41970000D02*
X111180000Y-42000000D01*
X111210000Y-40080000D02*
X111210000Y-41970000D01*
X128020000Y-43540000D02*
X128020000Y-45310000D01*
X124510000Y-40030000D02*
X128020000Y-43540000D01*
X127310000Y-36480000D02*
X127310000Y-38850000D01*
X127310000Y-37230000D02*
X127310000Y-36480000D01*
X124510000Y-40030000D02*
X127310000Y-37230000D01*
X121970000Y-58010000D02*
X124450000Y-55530000D01*
X120400000Y-58010000D02*
X121970000Y-58010000D01*
X119740000Y-58670000D02*
X120400000Y-58010000D01*
X119740000Y-60610000D02*
X119740000Y-58670000D01*
X123071000Y-64450000D02*
X123151000Y-64370000D01*
X122470000Y-64450000D02*
X123071000Y-64450000D01*
X123151000Y-64370000D02*
X123151000Y-64859000D01*
%TO.N,/BAT+*%
X121510000Y-63500000D02*
X122050000Y-62960000D01*
X121510000Y-64450000D02*
X121510000Y-63500000D01*
X120129000Y-64491000D02*
X119730000Y-64890000D01*
X120238774Y-64491000D02*
X120129000Y-64491000D01*
X119730000Y-64890000D02*
X119730000Y-65390000D01*
X120556000Y-64173774D02*
X120238774Y-64491000D01*
X120556000Y-64064000D02*
X120556000Y-64173774D01*
X121660000Y-62960000D02*
X120556000Y-64064000D01*
X122050000Y-62960000D02*
X121660000Y-62960000D01*
%TO.N,GND*%
X99240000Y-55990000D02*
X99240000Y-57320000D01*
X99220000Y-54470000D02*
X99220000Y-55970000D01*
X99220000Y-55970000D02*
X99240000Y-55990000D01*
%TO.N,Net-(D1-K)*%
X95380000Y-57450000D02*
X95420000Y-57490000D01*
X95380000Y-56010000D02*
X95380000Y-57450000D01*
%TO.N,Net-(U1-CE)*%
X113859000Y-68441000D02*
X113859000Y-68336000D01*
X113574000Y-68726000D02*
X113859000Y-68441000D01*
X113574000Y-75173774D02*
X113574000Y-68726000D01*
X114667226Y-76267000D02*
X113574000Y-75173774D01*
X118752774Y-76267000D02*
X114667226Y-76267000D01*
X119785000Y-75234774D02*
X118752774Y-76267000D01*
X119785000Y-72965000D02*
X119785000Y-75234774D01*
%TO.N,GND*%
X117994000Y-75766000D02*
X118820000Y-74940000D01*
X115426000Y-75766000D02*
X117994000Y-75766000D01*
X114400000Y-74740000D02*
X115426000Y-75766000D01*
%TO.N,Net-(U1-CE)*%
X113859000Y-68336000D02*
X114685000Y-67510000D01*
X109296500Y-67011690D02*
X109296500Y-68008310D01*
X109296500Y-68008310D02*
X109624190Y-68336000D01*
X109624190Y-68336000D02*
X113859000Y-68336000D01*
X115608190Y-60700000D02*
X109296500Y-67011690D01*
X116680000Y-60700000D02*
X115608190Y-60700000D01*
%TO.N,Net-(D3-A)*%
X116680000Y-62350000D02*
X116680000Y-63760000D01*
%TO.N,Net-(D2-K)*%
X117245000Y-67040001D02*
X117245000Y-68015000D01*
X110911000Y-66684000D02*
X116888999Y-66684000D01*
X116888999Y-66684000D02*
X117245000Y-67040001D01*
X110085000Y-67510000D02*
X110911000Y-66684000D01*
%TO.N,Net-(D2-A)*%
X111660000Y-67510000D02*
X113035000Y-67510000D01*
%TO.N,Net-(U1-CE)*%
X115470000Y-67510000D02*
X115975000Y-68015000D01*
X114685000Y-67510000D02*
X115470000Y-67510000D01*
%TO.N,GND*%
X123151000Y-64859000D02*
X122050000Y-65960000D01*
X123151000Y-62204130D02*
X123151000Y-64370000D01*
X119740000Y-60610000D02*
X121556870Y-60610000D01*
X121556870Y-60610000D02*
X123151000Y-62204130D01*
%TO.N,/MCU_IN_BAT*%
X119740000Y-63730000D02*
X119730000Y-63740000D01*
X119740000Y-62260000D02*
X119740000Y-63730000D01*
%TO.N,Net-(D3-K)*%
X118515000Y-67170000D02*
X118515000Y-68015000D01*
X116680000Y-65335000D02*
X118515000Y-67170000D01*
%TO.N,Net-(U1-TEMP)*%
X115850000Y-73090000D02*
X115975000Y-72965000D01*
X114400000Y-73090000D02*
X115850000Y-73090000D01*
%TO.N,GND*%
X118820000Y-73270000D02*
X118515000Y-72965000D01*
X118820000Y-74940000D02*
X118820000Y-73270000D01*
%TO.N,Net-(U1-PROG)*%
X117170000Y-73040000D02*
X117245000Y-72965000D01*
X117170000Y-74940000D02*
X117170000Y-73040000D01*
%TO.N,GND*%
X92797500Y-50212500D02*
X92800000Y-50210000D01*
X92797500Y-52350000D02*
X92797500Y-50212500D01*
%TO.N,+3.3V*%
X76400000Y-71870000D02*
X76390000Y-71860000D01*
%TO.N,GND*%
X58590000Y-64960000D02*
X58580000Y-64950000D01*
X59870000Y-64960000D02*
X58590000Y-64960000D01*
%TO.N,/SW_1*%
X61520000Y-65210000D02*
X63670000Y-67360000D01*
X61520000Y-64960000D02*
X61520000Y-65210000D01*
X57170000Y-67360000D02*
X63670000Y-67360000D01*
%TO.N,GND*%
X72370000Y-65050000D02*
X72400000Y-65080000D01*
X70850000Y-65050000D02*
X72370000Y-65050000D01*
X77390000Y-65120000D02*
X77370000Y-65140000D01*
X78920000Y-65120000D02*
X77390000Y-65120000D01*
%TO.N,/SW_3*%
X76390000Y-67360000D02*
X82890000Y-67360000D01*
X80650000Y-65120000D02*
X82890000Y-67360000D01*
X80570000Y-65120000D02*
X80650000Y-65120000D01*
%TO.N,/SW_2*%
X86830000Y-45060000D02*
X81250000Y-45060000D01*
X87163000Y-45331520D02*
X86860740Y-45029260D01*
X83850603Y-65410000D02*
X86482960Y-65410000D01*
X86860740Y-45029260D02*
X86830000Y-45060000D01*
X82430603Y-63990000D02*
X83850603Y-65410000D01*
X76610000Y-63990000D02*
X82430603Y-63990000D01*
X86482960Y-65410000D02*
X87163000Y-64729960D01*
X73240000Y-67360000D02*
X76610000Y-63990000D01*
X87163000Y-64729960D02*
X87163000Y-45331520D01*
X69050000Y-65050000D02*
X66740000Y-67360000D01*
X69200000Y-65050000D02*
X69050000Y-65050000D01*
%TO.N,/SW_3*%
X86050000Y-43790000D02*
X81250000Y-43790000D01*
X86060000Y-43780000D02*
X86050000Y-43790000D01*
X86320000Y-43780000D02*
X86060000Y-43780000D01*
X87664000Y-45124000D02*
X86320000Y-43780000D01*
X87664000Y-64937480D02*
X87664000Y-45124000D01*
X86591480Y-66010000D02*
X87664000Y-64937480D01*
X84240000Y-66010000D02*
X86591480Y-66010000D01*
X82890000Y-67360000D02*
X84240000Y-66010000D01*
%TO.N,/SW_4*%
X81590000Y-42860000D02*
X81250000Y-42520000D01*
X88415000Y-44865000D02*
X86410000Y-42860000D01*
X88415000Y-65140000D02*
X88415000Y-44865000D01*
X86410000Y-42860000D02*
X81590000Y-42860000D01*
X88170000Y-65140000D02*
X88415000Y-65140000D01*
X85940000Y-67370000D02*
X88170000Y-65140000D01*
%TO.N,/BAT+*%
X119730000Y-67960000D02*
X119785000Y-68015000D01*
X119730000Y-65390000D02*
X119730000Y-67960000D01*
D41*
%TO.N,Net-(U2-IO0)*%
X95120000Y-36250000D02*
X88620000Y-36250000D01*
X96700000Y-37830000D02*
X95120000Y-36250000D01*
X98180000Y-37830000D02*
X96700000Y-37830000D01*
%TO.N,+3.3V*%
X95097500Y-46050000D02*
X95097500Y-52350000D01*
X95097500Y-46050000D02*
X98180000Y-42967500D01*
X98180000Y-42967500D02*
X98180000Y-39480000D01*
X63640000Y-37330000D02*
X63750000Y-37440000D01*
X62250000Y-37330000D02*
X63640000Y-37330000D01*
X61230000Y-37330000D02*
X62250000Y-37330000D01*
X61150000Y-37410000D02*
X61230000Y-37330000D01*
X59680000Y-37410000D02*
X61150000Y-37410000D01*
X55524000Y-43876000D02*
X59670000Y-39730000D01*
X48536000Y-43876000D02*
X55524000Y-43876000D01*
X48390000Y-43730000D02*
X48536000Y-43876000D01*
D40*
%TO.N,Net-(U2-EN)*%
X59030000Y-38710000D02*
X63750000Y-38710000D01*
X56500000Y-36180000D02*
X59030000Y-38710000D01*
D41*
%TO.N,GND*%
X61230000Y-35490000D02*
X61240000Y-35480000D01*
X61230000Y-36370000D02*
X61230000Y-35490000D01*
X62450000Y-36170000D02*
X62250000Y-36370000D01*
X63750000Y-36170000D02*
X62450000Y-36170000D01*
X61230000Y-36370000D02*
X62250000Y-36370000D01*
X55090000Y-40680000D02*
X55080000Y-40670000D01*
X56500000Y-40680000D02*
X55090000Y-40680000D01*
X50000000Y-39640000D02*
X49260000Y-38900000D01*
X50000000Y-40680000D02*
X50000000Y-39640000D01*
%TO.N,Net-(U2-EN)*%
X51451000Y-37631000D02*
X50000000Y-36180000D01*
X51451000Y-41281024D02*
X51451000Y-37631000D01*
X49782024Y-42950000D02*
X51451000Y-41281024D01*
X49260000Y-42950000D02*
X49782024Y-42950000D01*
%TO.N,+3.3V*%
X47610000Y-39150000D02*
X47610000Y-42950000D01*
X45080000Y-36620000D02*
X47610000Y-39150000D01*
D40*
%TO.N,Net-(U2-EN)*%
X50000000Y-36180000D02*
X56500000Y-36180000D01*
%TO.N,GND*%
X47650000Y-51860000D02*
X47840000Y-51670000D01*
X45080000Y-51860000D02*
X47650000Y-51860000D01*
%TO.N,/USB_D+*%
X63740000Y-52690000D02*
X63750000Y-52680000D01*
X60330000Y-52690000D02*
X63740000Y-52690000D01*
%TO.N,/SPI1_SCK*%
X71865000Y-54980000D02*
X71865000Y-53930000D01*
X40100000Y-58140000D02*
X41810000Y-59850000D01*
X40100000Y-44640000D02*
X40100000Y-58140000D01*
X66995000Y-59850000D02*
X71865000Y-54980000D01*
X45080000Y-39660000D02*
X40100000Y-44640000D01*
X41810000Y-59850000D02*
X66995000Y-59850000D01*
X45080000Y-39160000D02*
X45080000Y-39660000D01*
%TO.N,/LCD_CS*%
X43130000Y-51270000D02*
X45080000Y-49320000D01*
X43130000Y-56690001D02*
X43130000Y-51270000D01*
X44109999Y-57670000D02*
X43130000Y-56690001D01*
X66635000Y-57670000D02*
X44109999Y-57670000D01*
X69325000Y-54980000D02*
X66635000Y-57670000D01*
X69325000Y-53930000D02*
X69325000Y-54980000D01*
%TO.N,/LCD_RST*%
X48440000Y-50140000D02*
X63750000Y-50140000D01*
X45080000Y-46780000D02*
X48440000Y-50140000D01*
D41*
%TO.N,GND*%
X29645000Y-48782500D02*
X29645000Y-55450000D01*
X22977500Y-55450000D02*
X16310000Y-55450000D01*
X25517500Y-57990000D02*
X22977500Y-55450000D01*
X33137500Y-45290000D02*
X29645000Y-48782500D01*
X33137500Y-43702500D02*
X33137500Y-45290000D01*
X29645000Y-40210000D02*
X33137500Y-43702500D01*
X16310000Y-40210000D02*
X29645000Y-40210000D01*
X27105000Y-57990000D02*
X25517500Y-57990000D01*
X29645000Y-55450000D02*
X27105000Y-57990000D01*
X16310000Y-55450000D02*
X16310000Y-53040000D01*
D40*
%TO.N,/LCD_AO*%
X68055000Y-55541480D02*
X68055000Y-53930000D01*
X57289000Y-56189000D02*
X67407480Y-56189000D01*
X45080000Y-44240000D02*
X45340000Y-44240000D01*
X67407480Y-56189000D02*
X68055000Y-55541480D01*
%TD*%
M02*
