%TF.GenerationSoftware,KiCad,Pcbnew,9.0.3*%
%TF.CreationDate,2025-08-15T19:38:52+02:00*%
%TF.ProjectId,Drone_Controller,44726f6e-655f-4436-9f6e-74726f6c6c65,rev?*%
%TF.SameCoordinates,Original*%
%TF.FileFunction,Copper,L2,Bot*%
%TF.FilePolarity,Positive*%
%FSLAX46Y46*%
G04 Gerber Fmt 4.6, Leading zero omitted, Abs format (unit mm)*
G04 Created by KiCad (PCBNEW 9.0.3) date 2025-08-15 19:38:52*
%MOMM*%
%LPD*%
G01*
G04 APERTURE LIST*
G04 Aperture macros list*
%AMRoundRect*
0 Rectangle with rounded corners*
0 $1 Rounding radius*
0 $2 $3 $4 $5 $6 $7 $8 $9 X,Y pos of 4 corners*
0 Add a 4 corners polygon primitive as box body*
4,1,4,$2,$3,$4,$5,$6,$7,$8,$9,$2,$3,0*
0 Add four circle primitives for the rounded corners*
1,1,$1+$1,$2,$3*
1,1,$1+$1,$4,$5*
1,1,$1+$1,$6,$7*
1,1,$1+$1,$8,$9*
0 Add four rect primitives between the rounded corners*
20,1,$1+$1,$2,$3,$4,$5,0*
20,1,$1+$1,$4,$5,$6,$7,0*
20,1,$1+$1,$6,$7,$8,$9,0*
20,1,$1+$1,$8,$9,$2,$3,0*%
G04 Aperture macros list end*
%TA.AperFunction,ComponentPad*%
%ADD10C,2.000000*%
%TD*%
%TA.AperFunction,HeatsinkPad*%
%ADD11O,1.000000X2.100000*%
%TD*%
%TA.AperFunction,HeatsinkPad*%
%ADD12O,1.000000X1.800000*%
%TD*%
%TA.AperFunction,ComponentPad*%
%ADD13RoundRect,0.250001X-0.499999X-0.499999X0.499999X-0.499999X0.499999X0.499999X-0.499999X0.499999X0*%
%TD*%
%TA.AperFunction,ComponentPad*%
%ADD14C,1.500000*%
%TD*%
%TA.AperFunction,ComponentPad*%
%ADD15C,1.778000*%
%TD*%
%TA.AperFunction,ComponentPad*%
%ADD16C,2.286000*%
%TD*%
%TA.AperFunction,ComponentPad*%
%ADD17R,1.700000X1.700000*%
%TD*%
%TA.AperFunction,ComponentPad*%
%ADD18C,1.700000*%
%TD*%
%TA.AperFunction,ViaPad*%
%ADD19C,0.700000*%
%TD*%
%TA.AperFunction,ViaPad*%
%ADD20C,1.000000*%
%TD*%
%TA.AperFunction,ViaPad*%
%ADD21C,0.600000*%
%TD*%
%TA.AperFunction,Conductor*%
%ADD22C,0.300000*%
%TD*%
%TA.AperFunction,Conductor*%
%ADD23C,0.500000*%
%TD*%
G04 APERTURE END LIST*
D10*
%TO.P,SW1,1,1*%
%TO.N,GND*%
X56500000Y-40680000D03*
X50000000Y-40680000D03*
%TO.P,SW1,2,2*%
%TO.N,Net-(U2-EN)*%
X56500000Y-36180000D03*
X50000000Y-36180000D03*
%TD*%
D11*
%TO.P,J9,S1,SHIELD*%
%TO.N,unconnected-(J9-SHIELD-PadS1)*%
X44180000Y-69925000D03*
D12*
%TO.N,unconnected-(J9-SHIELD-PadS1)_1*%
X44180000Y-74105000D03*
D11*
%TO.N,unconnected-(J9-SHIELD-PadS1)_2*%
X52820000Y-69925000D03*
D12*
%TO.N,unconnected-(J9-SHIELD-PadS1)_3*%
X52820000Y-74105000D03*
%TD*%
D13*
%TO.P,BT1,1,+*%
%TO.N,/BAT+*%
X122050000Y-62960000D03*
D14*
%TO.P,BT1,2,-*%
%TO.N,GND*%
X122050000Y-65960000D03*
%TD*%
D15*
%TO.P,U5,H1,H+*%
%TO.N,+3.3V*%
X128020000Y-50390000D03*
%TO.P,U5,H2,H*%
%TO.N,/RIGHT_H*%
X128020000Y-47850000D03*
%TO.P,U5,H3,H-*%
%TO.N,GND*%
X128020000Y-45310000D03*
D16*
%TO.P,U5,S1,SHIELD*%
X111150000Y-55580000D03*
%TO.P,U5,S2,SHIELD__1*%
X124450000Y-55530000D03*
%TO.P,U5,S3,SHIELD__2*%
X124510000Y-40030000D03*
%TO.P,U5,S4,SHIELD__3*%
X111210000Y-40080000D03*
D15*
%TO.P,U5,V1,V+*%
%TO.N,+3.3V*%
X115320000Y-58010000D03*
%TO.P,U5,V2,V*%
%TO.N,/RIGHT_V*%
X117860000Y-58010000D03*
%TO.P,U5,V3,V-*%
%TO.N,GND*%
X120400000Y-58010000D03*
%TD*%
D17*
%TO.P,J2,1,Pin_1*%
%TO.N,+3.3V*%
X45080000Y-36620000D03*
D18*
%TO.P,J2,2,Pin_2*%
%TO.N,/SPI1_SCK*%
X45080000Y-39160000D03*
%TO.P,J2,3,Pin_3*%
%TO.N,/SPI1_MOSI*%
X45080000Y-41700000D03*
%TO.P,J2,4,Pin_4*%
%TO.N,/LCD_AO*%
X45080000Y-44240000D03*
%TO.P,J2,5,Pin_5*%
%TO.N,/LCD_RST*%
X45080000Y-46780000D03*
%TO.P,J2,6,Pin_6*%
%TO.N,/LCD_CS*%
X45080000Y-49320000D03*
%TO.P,J2,7,Pin_7*%
%TO.N,GND*%
X45080000Y-51860000D03*
%TO.P,J2,8,Pin_8*%
%TO.N,+3.3V*%
X45080000Y-54400000D03*
%TD*%
D17*
%TO.P,J1,1,Pin_1*%
%TO.N,/TXD0*%
X122230000Y-36480000D03*
D18*
%TO.P,J1,2,Pin_2*%
%TO.N,/RXD0*%
X124770000Y-36480000D03*
%TO.P,J1,3,Pin_3*%
%TO.N,GND*%
X127310000Y-36480000D03*
%TD*%
D10*
%TO.P,SW6,1,1*%
%TO.N,+3.3V*%
X92440000Y-71870000D03*
X85940000Y-71870000D03*
%TO.P,SW6,2,2*%
%TO.N,/SW_4*%
X92440000Y-67370000D03*
X85940000Y-67370000D03*
%TD*%
%TO.P,SW4,1,1*%
%TO.N,+3.3V*%
X73240000Y-71860000D03*
X66740000Y-71860000D03*
%TO.P,SW4,2,2*%
%TO.N,/SW_2*%
X73240000Y-67360000D03*
X66740000Y-67360000D03*
%TD*%
D15*
%TO.P,U4,H1,H+*%
%TO.N,+3.3V*%
X33137500Y-50370000D03*
%TO.P,U4,H2,H*%
%TO.N,/LEFT_H*%
X33137500Y-47830000D03*
%TO.P,U4,H3,H-*%
%TO.N,GND*%
X33137500Y-45290000D03*
D16*
%TO.P,U4,S1,SHIELD*%
X16310000Y-55450000D03*
%TO.P,U4,S2,SHIELD__1*%
X29645000Y-55450000D03*
%TO.P,U4,S3,SHIELD__2*%
X29645000Y-40210000D03*
%TO.P,U4,S4,SHIELD__3*%
X16310000Y-40210000D03*
D15*
%TO.P,U4,V1,V+*%
%TO.N,+3.3V*%
X20437500Y-57990000D03*
%TO.P,U4,V2,V*%
%TO.N,/LEFT_V*%
X22977500Y-57990000D03*
%TO.P,U4,V3,V-*%
%TO.N,GND*%
X25517500Y-57990000D03*
%TD*%
D10*
%TO.P,SW2,1,1*%
%TO.N,GND*%
X95120000Y-40750000D03*
X88620000Y-40750000D03*
%TO.P,SW2,2,2*%
%TO.N,Net-(U2-IO0)*%
X95120000Y-36250000D03*
X88620000Y-36250000D03*
%TD*%
%TO.P,SW5,1,1*%
%TO.N,+3.3V*%
X82890000Y-71860000D03*
X76390000Y-71860000D03*
%TO.P,SW5,2,2*%
%TO.N,/SW_3*%
X82890000Y-67360000D03*
X76390000Y-67360000D03*
%TD*%
%TO.P,SW3,1,1*%
%TO.N,+3.3V*%
X63670000Y-71860000D03*
X57170000Y-71860000D03*
%TO.P,SW3,2,2*%
%TO.N,/SW_1*%
X63670000Y-67360000D03*
X57170000Y-67360000D03*
%TD*%
D19*
%TO.N,Net-(U1-CE)*%
X54800000Y-71060000D03*
X54800000Y-72940000D03*
D20*
%TO.N,GND*%
X71000000Y-43890000D03*
D19*
X117880000Y-70490000D03*
%TO.N,+3.3V*%
X48940000Y-49170000D03*
X48940000Y-51010000D03*
%TO.N,Net-(U2-IO0)*%
X84380000Y-39260000D03*
X84370000Y-48420000D03*
%TO.N,/TXD0*%
X122220000Y-39470000D03*
X99230000Y-42630000D03*
X96860000Y-42800000D03*
%TO.N,/MCU_IN_BAT*%
X85570000Y-47650000D03*
X93810000Y-63210000D03*
X96850000Y-63500000D03*
X89210000Y-47650000D03*
X93810000Y-59790000D03*
X98530000Y-63450000D03*
X111360000Y-63510000D03*
X112700000Y-64790000D03*
D21*
%TO.N,VBUS*%
X97670000Y-54470000D03*
D19*
X96760000Y-62290000D03*
X89290000Y-62320000D03*
X85620000Y-61680000D03*
%TO.N,GND*%
X45310000Y-70680000D03*
X51700000Y-70670000D03*
X51620000Y-67480000D03*
%TO.N,+3.3V*%
X110900000Y-59340000D03*
X30810000Y-50320000D03*
X28660000Y-50430000D03*
X20450000Y-56350000D03*
X20440000Y-53920000D03*
X45080000Y-62210000D03*
X97680000Y-62630000D03*
X97680000Y-59990000D03*
D21*
%TO.N,GND*%
X91440000Y-65130000D03*
D19*
%TO.N,/USB_D+*%
X49420000Y-62210000D03*
X49520000Y-56880000D03*
%TO.N,/USB_D-*%
X48065000Y-56745000D03*
X47750000Y-62210000D03*
%TO.N,/LEFT_V*%
X54480000Y-56940000D03*
X54500000Y-61180000D03*
%TO.N,/RIGHT_H*%
X85470000Y-58030000D03*
D21*
X75890000Y-56280000D03*
X77770000Y-58070000D03*
D19*
X89370000Y-58170000D03*
%TO.N,/RIGHT_V*%
X89220000Y-59160000D03*
X85780000Y-59160000D03*
D21*
X75400000Y-57860000D03*
X76660000Y-59140000D03*
%TO.N,GND*%
X90180000Y-39760000D03*
D19*
X82980000Y-36190000D03*
X111180000Y-42000000D03*
X127310000Y-38850000D03*
D21*
X99240000Y-57320000D03*
D19*
X95420000Y-60050000D03*
D21*
X92800000Y-50210000D03*
D19*
X58580000Y-64950000D03*
D21*
X72400000Y-65080000D03*
X77370000Y-65140000D03*
D19*
%TO.N,+3.3V*%
X59680000Y-37410000D03*
X59670000Y-39730000D03*
%TO.N,GND*%
X55080000Y-40670000D03*
X61240000Y-35480000D03*
X49260000Y-38900000D03*
X47840000Y-51670000D03*
D21*
%TO.N,/LCD_AO*%
X57289000Y-56040000D03*
D19*
X56250000Y-58540000D03*
%TO.N,GND*%
X16310000Y-53040000D03*
%TD*%
D22*
%TO.N,/MCU_IN_BAT*%
X93810000Y-59790000D02*
X93810000Y-63210000D01*
%TO.N,/RIGHT_V*%
X89220000Y-59160000D02*
X85780000Y-59160000D01*
%TO.N,/USB_D-*%
X47750000Y-57060000D02*
X47750000Y-62210000D01*
X48065000Y-56745000D02*
X47750000Y-57060000D01*
%TO.N,/LCD_AO*%
X56280000Y-57049000D02*
X57289000Y-56040000D01*
X56280000Y-58510000D02*
X56280000Y-57049000D01*
X56250000Y-58540000D02*
X56280000Y-58510000D01*
%TO.N,/MCU_IN_BAT*%
X89210000Y-47650000D02*
X85570000Y-47650000D01*
%TO.N,VBUS*%
X85990000Y-61680000D02*
X85620000Y-61680000D01*
X86630000Y-62320000D02*
X85990000Y-61680000D01*
X89290000Y-62320000D02*
X86630000Y-62320000D01*
%TO.N,/USB_D+*%
X49520000Y-62110000D02*
X49420000Y-62210000D01*
X49520000Y-56880000D02*
X49520000Y-62110000D01*
%TO.N,Net-(U1-CE)*%
X54800000Y-72940000D02*
X54800000Y-71060000D01*
D23*
%TO.N,+3.3V*%
X48940000Y-51010000D02*
X48940000Y-49170000D01*
D22*
%TO.N,Net-(U2-IO0)*%
X84370000Y-39270000D02*
X84380000Y-39260000D01*
X84370000Y-48420000D02*
X84370000Y-39270000D01*
%TO.N,/TXD0*%
X122220000Y-36490000D02*
X122230000Y-36480000D01*
X122220000Y-39470000D02*
X122220000Y-36490000D01*
X99060000Y-42800000D02*
X99230000Y-42630000D01*
X96860000Y-42800000D02*
X99060000Y-42800000D01*
%TO.N,/MCU_IN_BAT*%
X96900000Y-63450000D02*
X96850000Y-63500000D01*
X98530000Y-63450000D02*
X96900000Y-63450000D01*
X112640000Y-64790000D02*
X111360000Y-63510000D01*
X112700000Y-64790000D02*
X112640000Y-64790000D01*
%TO.N,VBUS*%
X96760000Y-55380000D02*
X97670000Y-54470000D01*
X96760000Y-62290000D02*
X96760000Y-55380000D01*
D23*
%TO.N,+3.3V*%
X113990000Y-59340000D02*
X115320000Y-58010000D01*
X110900000Y-59340000D02*
X113990000Y-59340000D01*
X30700000Y-50430000D02*
X30810000Y-50320000D01*
X28660000Y-50430000D02*
X30700000Y-50430000D01*
X20450000Y-56350000D02*
X20450000Y-53930000D01*
X20450000Y-53930000D02*
X20440000Y-53920000D01*
X45080000Y-62210000D02*
X45080000Y-54400000D01*
X97680000Y-59990000D02*
X97680000Y-62630000D01*
D22*
%TO.N,/LEFT_V*%
X54500000Y-56960000D02*
X54480000Y-56940000D01*
X54500000Y-61180000D02*
X54500000Y-56960000D01*
%TO.N,/RIGHT_H*%
X89230000Y-58030000D02*
X89370000Y-58170000D01*
X85470000Y-58030000D02*
X89230000Y-58030000D01*
X75980000Y-56280000D02*
X77770000Y-58070000D01*
X75890000Y-56280000D02*
X75980000Y-56280000D01*
%TO.N,/RIGHT_V*%
X75400000Y-57880000D02*
X76660000Y-59140000D01*
X75400000Y-57860000D02*
X75400000Y-57880000D01*
D23*
%TO.N,+3.3V*%
X59670000Y-37420000D02*
X59680000Y-37410000D01*
X59670000Y-39730000D02*
X59670000Y-37420000D01*
%TD*%
%TA.AperFunction,Conductor*%
%TO.N,GND*%
G36*
X48975150Y-34870185D02*
G01*
X49020905Y-34922989D01*
X49030849Y-34992147D01*
X49001824Y-35055703D01*
X48995792Y-35062181D01*
X48855485Y-35202487D01*
X48855485Y-35202488D01*
X48855483Y-35202490D01*
X48804651Y-35272454D01*
X48716657Y-35393566D01*
X48609433Y-35604003D01*
X48536446Y-35828631D01*
X48499500Y-36061902D01*
X48499500Y-36298097D01*
X48536446Y-36531363D01*
X48536446Y-36531368D01*
X48609433Y-36755996D01*
X48706208Y-36945925D01*
X48716657Y-36966433D01*
X48855483Y-37157510D01*
X49022490Y-37324517D01*
X49213567Y-37463343D01*
X49312991Y-37514002D01*
X49424003Y-37570566D01*
X49424005Y-37570566D01*
X49424008Y-37570568D01*
X49500030Y-37595269D01*
X49648631Y-37643553D01*
X49881903Y-37680500D01*
X49881908Y-37680500D01*
X50118097Y-37680500D01*
X50351368Y-37643553D01*
X50377534Y-37635051D01*
X50575992Y-37570568D01*
X50786433Y-37463343D01*
X50977510Y-37324517D01*
X51144517Y-37157510D01*
X51283343Y-36966433D01*
X51390568Y-36755992D01*
X51463553Y-36531368D01*
X51488517Y-36373753D01*
X51500500Y-36298097D01*
X51500500Y-36061902D01*
X51463553Y-35828631D01*
X51409578Y-35662516D01*
X51390568Y-35604008D01*
X51390566Y-35604005D01*
X51390566Y-35604003D01*
X51283342Y-35393566D01*
X51262389Y-35364727D01*
X51144517Y-35202490D01*
X51004208Y-35062181D01*
X50970723Y-35000858D01*
X50975707Y-34931166D01*
X51017579Y-34875233D01*
X51083043Y-34850816D01*
X51091889Y-34850500D01*
X55408111Y-34850500D01*
X55475150Y-34870185D01*
X55520905Y-34922989D01*
X55530849Y-34992147D01*
X55501824Y-35055703D01*
X55495792Y-35062181D01*
X55355485Y-35202487D01*
X55355485Y-35202488D01*
X55355483Y-35202490D01*
X55304651Y-35272454D01*
X55216657Y-35393566D01*
X55109433Y-35604003D01*
X55036446Y-35828631D01*
X54999500Y-36061902D01*
X54999500Y-36298097D01*
X55036446Y-36531363D01*
X55036446Y-36531368D01*
X55109433Y-36755996D01*
X55206208Y-36945925D01*
X55216657Y-36966433D01*
X55355483Y-37157510D01*
X55522490Y-37324517D01*
X55713567Y-37463343D01*
X55812991Y-37514002D01*
X55924003Y-37570566D01*
X55924005Y-37570566D01*
X55924008Y-37570568D01*
X56000030Y-37595269D01*
X56148631Y-37643553D01*
X56381903Y-37680500D01*
X56381908Y-37680500D01*
X56618097Y-37680500D01*
X56851368Y-37643553D01*
X56877534Y-37635051D01*
X57075992Y-37570568D01*
X57286433Y-37463343D01*
X57477510Y-37324517D01*
X57644517Y-37157510D01*
X57783343Y-36966433D01*
X57890568Y-36755992D01*
X57963553Y-36531368D01*
X57988517Y-36373753D01*
X58000500Y-36298097D01*
X58000500Y-36061902D01*
X57963553Y-35828631D01*
X57909578Y-35662516D01*
X57890568Y-35604008D01*
X57890566Y-35604005D01*
X57890566Y-35604003D01*
X57783342Y-35393566D01*
X57762389Y-35364727D01*
X57644517Y-35202490D01*
X57504208Y-35062181D01*
X57470723Y-35000858D01*
X57475707Y-34931166D01*
X57517579Y-34875233D01*
X57583043Y-34850816D01*
X57591889Y-34850500D01*
X87611811Y-34850500D01*
X87678850Y-34870185D01*
X87724605Y-34922989D01*
X87734549Y-34992147D01*
X87705524Y-35055703D01*
X87684697Y-35074818D01*
X87642488Y-35105484D01*
X87475485Y-35272487D01*
X87475485Y-35272488D01*
X87475483Y-35272490D01*
X87436456Y-35326206D01*
X87336657Y-35463566D01*
X87229433Y-35674003D01*
X87156446Y-35898631D01*
X87119500Y-36131902D01*
X87119500Y-36368097D01*
X87156446Y-36601368D01*
X87229433Y-36825996D01*
X87300990Y-36966433D01*
X87336657Y-37036433D01*
X87475483Y-37227510D01*
X87642490Y-37394517D01*
X87833567Y-37533343D01*
X87910093Y-37572335D01*
X88044003Y-37640566D01*
X88044005Y-37640566D01*
X88044008Y-37640568D01*
X88164412Y-37679689D01*
X88268631Y-37713553D01*
X88501903Y-37750500D01*
X88501908Y-37750500D01*
X88738097Y-37750500D01*
X88971368Y-37713553D01*
X88975138Y-37712328D01*
X89195992Y-37640568D01*
X89406433Y-37533343D01*
X89597510Y-37394517D01*
X89764517Y-37227510D01*
X89903343Y-37036433D01*
X90010568Y-36825992D01*
X90083553Y-36601368D01*
X90102776Y-36479999D01*
X90120500Y-36368097D01*
X90120500Y-36131902D01*
X90083553Y-35898631D01*
X90045492Y-35781492D01*
X90010568Y-35674008D01*
X90010566Y-35674005D01*
X90010566Y-35674003D01*
X89947413Y-35550059D01*
X89903343Y-35463567D01*
X89764517Y-35272490D01*
X89597510Y-35105483D01*
X89555302Y-35074817D01*
X89512638Y-35019487D01*
X89506659Y-34949874D01*
X89539265Y-34888079D01*
X89600104Y-34853722D01*
X89628189Y-34850500D01*
X94111811Y-34850500D01*
X94178850Y-34870185D01*
X94224605Y-34922989D01*
X94234549Y-34992147D01*
X94205524Y-35055703D01*
X94184697Y-35074818D01*
X94142488Y-35105484D01*
X93975485Y-35272487D01*
X93975485Y-35272488D01*
X93975483Y-35272490D01*
X93936456Y-35326206D01*
X93836657Y-35463566D01*
X93729433Y-35674003D01*
X93656446Y-35898631D01*
X93619500Y-36131902D01*
X93619500Y-36368097D01*
X93656446Y-36601368D01*
X93729433Y-36825996D01*
X93800990Y-36966433D01*
X93836657Y-37036433D01*
X93975483Y-37227510D01*
X94142490Y-37394517D01*
X94333567Y-37533343D01*
X94410093Y-37572335D01*
X94544003Y-37640566D01*
X94544005Y-37640566D01*
X94544008Y-37640568D01*
X94664412Y-37679689D01*
X94768631Y-37713553D01*
X95001903Y-37750500D01*
X95001908Y-37750500D01*
X95238097Y-37750500D01*
X95471368Y-37713553D01*
X95475138Y-37712328D01*
X95695992Y-37640568D01*
X95906433Y-37533343D01*
X96097510Y-37394517D01*
X96264517Y-37227510D01*
X96403343Y-37036433D01*
X96510568Y-36825992D01*
X96583553Y-36601368D01*
X96602776Y-36479999D01*
X96620500Y-36368097D01*
X96620500Y-36131902D01*
X96583553Y-35898631D01*
X96545492Y-35781492D01*
X96510568Y-35674008D01*
X96510566Y-35674005D01*
X96510566Y-35674003D01*
X96490744Y-35635101D01*
X96463757Y-35582135D01*
X120879500Y-35582135D01*
X120879500Y-37377870D01*
X120879501Y-37377876D01*
X120885908Y-37437483D01*
X120936202Y-37572328D01*
X120936206Y-37572335D01*
X121022452Y-37687544D01*
X121022455Y-37687547D01*
X121137664Y-37773793D01*
X121137671Y-37773797D01*
X121182618Y-37790561D01*
X121272517Y-37824091D01*
X121332127Y-37830500D01*
X121445500Y-37830499D01*
X121512539Y-37850183D01*
X121558294Y-37902987D01*
X121569500Y-37954499D01*
X121569500Y-38875068D01*
X121549815Y-38942107D01*
X121548602Y-38943959D01*
X121466295Y-39067139D01*
X121402184Y-39221917D01*
X121402182Y-39221925D01*
X121369500Y-39386228D01*
X121369500Y-39553771D01*
X121402182Y-39718074D01*
X121402184Y-39718082D01*
X121466295Y-39872860D01*
X121559373Y-40012162D01*
X121677837Y-40130626D01*
X121743046Y-40174197D01*
X121817137Y-40223703D01*
X121817138Y-40223703D01*
X121817139Y-40223704D01*
X121841380Y-40233745D01*
X121971918Y-40287816D01*
X122108824Y-40315048D01*
X122136228Y-40320499D01*
X122136232Y-40320500D01*
X122136233Y-40320500D01*
X122303768Y-40320500D01*
X122303769Y-40320499D01*
X122468082Y-40287816D01*
X122622863Y-40223703D01*
X122691798Y-40177641D01*
X122758474Y-40156764D01*
X122825854Y-40175248D01*
X122872545Y-40227227D01*
X122883161Y-40261345D01*
X122907456Y-40414734D01*
X122987374Y-40660695D01*
X123104783Y-40891122D01*
X123184963Y-41001481D01*
X123184964Y-41001482D01*
X123871837Y-40314609D01*
X123890997Y-40360864D01*
X123967439Y-40475268D01*
X124064732Y-40572561D01*
X124179136Y-40649003D01*
X124225390Y-40668161D01*
X123538516Y-41355034D01*
X123538517Y-41355036D01*
X123648877Y-41435216D01*
X123879304Y-41552625D01*
X124125266Y-41632543D01*
X124380694Y-41673000D01*
X124639306Y-41673000D01*
X124894733Y-41632543D01*
X124894734Y-41632543D01*
X125140695Y-41552625D01*
X125371119Y-41435218D01*
X125481481Y-41355034D01*
X125481482Y-41355034D01*
X124794609Y-40668162D01*
X124840864Y-40649003D01*
X124955268Y-40572561D01*
X125052561Y-40475268D01*
X125129003Y-40360864D01*
X125148161Y-40314609D01*
X125835034Y-41001482D01*
X125835034Y-41001481D01*
X125915218Y-40891119D01*
X126032625Y-40660695D01*
X126112543Y-40414734D01*
X126112543Y-40414733D01*
X126153000Y-40159306D01*
X126153000Y-39900693D01*
X126112543Y-39645266D01*
X126112543Y-39645265D01*
X126032625Y-39399304D01*
X125915216Y-39168877D01*
X125835036Y-39058517D01*
X125835034Y-39058516D01*
X125148161Y-39745389D01*
X125129003Y-39699136D01*
X125052561Y-39584732D01*
X124955268Y-39487439D01*
X124840864Y-39410997D01*
X124794608Y-39391837D01*
X125481482Y-38704964D01*
X125481481Y-38704963D01*
X125371122Y-38624783D01*
X125140695Y-38507374D01*
X124894733Y-38427456D01*
X124639306Y-38387000D01*
X124380694Y-38387000D01*
X124125266Y-38427456D01*
X124125265Y-38427456D01*
X123879304Y-38507374D01*
X123648884Y-38624779D01*
X123538517Y-38704964D01*
X123538517Y-38704965D01*
X124225390Y-39391837D01*
X124179136Y-39410997D01*
X124064732Y-39487439D01*
X123967439Y-39584732D01*
X123890997Y-39699136D01*
X123871837Y-39745390D01*
X123184965Y-39058517D01*
X123184963Y-39058517D01*
X123176488Y-39070183D01*
X123152352Y-39088794D01*
X123129686Y-39109154D01*
X123124954Y-39109920D01*
X123121158Y-39112848D01*
X123090796Y-39115455D01*
X123060716Y-39120330D01*
X123056320Y-39118416D01*
X123051544Y-39118827D01*
X123024591Y-39104605D01*
X122996652Y-39092444D01*
X122992245Y-39087538D01*
X122989749Y-39086221D01*
X122973073Y-39066194D01*
X122891396Y-38943957D01*
X122870520Y-38877281D01*
X122870500Y-38875068D01*
X122870500Y-37954499D01*
X122890185Y-37887460D01*
X122942989Y-37841705D01*
X122994500Y-37830499D01*
X123127871Y-37830499D01*
X123127872Y-37830499D01*
X123187483Y-37824091D01*
X123322331Y-37773796D01*
X123437546Y-37687546D01*
X123523796Y-37572331D01*
X123572810Y-37440916D01*
X123614681Y-37384984D01*
X123680145Y-37360566D01*
X123748418Y-37375417D01*
X123776673Y-37396569D01*
X123890213Y-37510109D01*
X124062179Y-37635048D01*
X124062181Y-37635049D01*
X124062184Y-37635051D01*
X124251588Y-37731557D01*
X124453757Y-37797246D01*
X124663713Y-37830500D01*
X124663714Y-37830500D01*
X124876286Y-37830500D01*
X124876287Y-37830500D01*
X125086243Y-37797246D01*
X125288412Y-37731557D01*
X125477816Y-37635051D01*
X125557052Y-37577483D01*
X125649786Y-37510109D01*
X125649788Y-37510106D01*
X125649792Y-37510104D01*
X125800104Y-37359792D01*
X125800106Y-37359788D01*
X125800109Y-37359786D01*
X125885890Y-37241717D01*
X125925051Y-37187816D01*
X125929793Y-37178508D01*
X125977763Y-37127711D01*
X126045583Y-37110911D01*
X126111719Y-37133445D01*
X126150763Y-37178500D01*
X126155373Y-37187547D01*
X126194728Y-37241716D01*
X126827037Y-36609408D01*
X126844075Y-36672993D01*
X126909901Y-36787007D01*
X127002993Y-36880099D01*
X127117007Y-36945925D01*
X127180590Y-36962962D01*
X126548282Y-37595269D01*
X126548282Y-37595270D01*
X126602449Y-37634624D01*
X126791782Y-37731095D01*
X126993870Y-37796757D01*
X127203754Y-37830000D01*
X127416246Y-37830000D01*
X127626127Y-37796757D01*
X127626130Y-37796757D01*
X127828217Y-37731095D01*
X128017554Y-37634622D01*
X128071716Y-37595270D01*
X128071717Y-37595270D01*
X127439408Y-36962962D01*
X127502993Y-36945925D01*
X127617007Y-36880099D01*
X127710099Y-36787007D01*
X127775925Y-36672993D01*
X127792962Y-36609408D01*
X128425270Y-37241717D01*
X128425270Y-37241716D01*
X128464622Y-37187554D01*
X128561095Y-36998217D01*
X128626757Y-36796130D01*
X128626757Y-36796127D01*
X128660000Y-36586246D01*
X128660000Y-36373753D01*
X128626757Y-36163872D01*
X128626757Y-36163869D01*
X128561095Y-35961782D01*
X128464624Y-35772449D01*
X128425270Y-35718282D01*
X128425269Y-35718282D01*
X127792962Y-36350590D01*
X127775925Y-36287007D01*
X127710099Y-36172993D01*
X127617007Y-36079901D01*
X127502993Y-36014075D01*
X127439409Y-35997037D01*
X128071716Y-35364728D01*
X128017550Y-35325375D01*
X127828217Y-35228904D01*
X127626129Y-35163242D01*
X127416246Y-35130000D01*
X127203754Y-35130000D01*
X126993872Y-35163242D01*
X126993869Y-35163242D01*
X126791782Y-35228904D01*
X126602439Y-35325380D01*
X126548282Y-35364727D01*
X126548282Y-35364728D01*
X127180591Y-35997037D01*
X127117007Y-36014075D01*
X127002993Y-36079901D01*
X126909901Y-36172993D01*
X126844075Y-36287007D01*
X126827037Y-36350591D01*
X126194728Y-35718282D01*
X126194727Y-35718282D01*
X126155380Y-35772440D01*
X126155376Y-35772446D01*
X126150760Y-35781505D01*
X126102781Y-35832297D01*
X126034959Y-35849087D01*
X125968826Y-35826543D01*
X125929794Y-35781493D01*
X125925051Y-35772184D01*
X125925049Y-35772181D01*
X125925048Y-35772179D01*
X125800109Y-35600213D01*
X125649786Y-35449890D01*
X125477820Y-35324951D01*
X125288414Y-35228444D01*
X125288413Y-35228443D01*
X125288412Y-35228443D01*
X125086243Y-35162754D01*
X125086241Y-35162753D01*
X125086240Y-35162753D01*
X124924957Y-35137208D01*
X124876287Y-35129500D01*
X124663713Y-35129500D01*
X124615042Y-35137208D01*
X124453760Y-35162753D01*
X124251585Y-35228444D01*
X124062179Y-35324951D01*
X123890215Y-35449889D01*
X123776673Y-35563431D01*
X123715350Y-35596915D01*
X123645658Y-35591931D01*
X123589725Y-35550059D01*
X123572810Y-35519082D01*
X123523797Y-35387671D01*
X123523793Y-35387664D01*
X123437547Y-35272455D01*
X123437544Y-35272452D01*
X123322335Y-35186206D01*
X123322328Y-35186202D01*
X123187482Y-35135908D01*
X123187483Y-35135908D01*
X123127883Y-35129501D01*
X123127881Y-35129500D01*
X123127873Y-35129500D01*
X123127864Y-35129500D01*
X121332129Y-35129500D01*
X121332123Y-35129501D01*
X121272516Y-35135908D01*
X121137671Y-35186202D01*
X121137664Y-35186206D01*
X121022455Y-35272452D01*
X121022452Y-35272455D01*
X120936206Y-35387664D01*
X120936202Y-35387671D01*
X120885908Y-35522517D01*
X120879501Y-35582116D01*
X120879500Y-35582135D01*
X96463757Y-35582135D01*
X96447413Y-35550059D01*
X96403343Y-35463567D01*
X96264517Y-35272490D01*
X96097510Y-35105483D01*
X96055302Y-35074817D01*
X96012638Y-35019487D01*
X96006659Y-34949874D01*
X96039265Y-34888079D01*
X96100104Y-34853722D01*
X96128189Y-34850500D01*
X129006000Y-34850500D01*
X129073039Y-34870185D01*
X129118794Y-34922989D01*
X129130000Y-34974500D01*
X129130000Y-44553553D01*
X128457647Y-45225905D01*
X128434208Y-45138429D01*
X128375689Y-45037070D01*
X128292930Y-44954311D01*
X128191571Y-44895792D01*
X128104092Y-44872352D01*
X128809638Y-44166807D01*
X128809638Y-44166806D01*
X128747995Y-44122021D01*
X128747993Y-44122020D01*
X128553191Y-44022762D01*
X128553188Y-44022761D01*
X128345259Y-43955202D01*
X128129316Y-43921000D01*
X127910684Y-43921000D01*
X127694740Y-43955202D01*
X127486811Y-44022761D01*
X127486808Y-44022762D01*
X127292001Y-44122023D01*
X127230360Y-44166806D01*
X127230360Y-44166807D01*
X127935905Y-44872352D01*
X127848429Y-44895792D01*
X127747070Y-44954311D01*
X127664311Y-45037070D01*
X127605792Y-45138429D01*
X127582352Y-45225905D01*
X126876807Y-44520360D01*
X126876806Y-44520360D01*
X126832023Y-44582001D01*
X126732762Y-44776808D01*
X126732761Y-44776811D01*
X126665202Y-44984740D01*
X126631000Y-45200683D01*
X126631000Y-45419316D01*
X126665202Y-45635259D01*
X126732761Y-45843188D01*
X126732762Y-45843191D01*
X126832020Y-46037993D01*
X126832021Y-46037995D01*
X126876806Y-46099638D01*
X126876807Y-46099638D01*
X127582352Y-45394093D01*
X127605792Y-45481571D01*
X127664311Y-45582930D01*
X127747070Y-45665689D01*
X127848429Y-45724208D01*
X127935905Y-45747647D01*
X127230360Y-46453191D01*
X127230360Y-46453192D01*
X127266394Y-46479372D01*
X127309060Y-46534701D01*
X127315039Y-46604315D01*
X127282434Y-46666110D01*
X127266394Y-46680008D01*
X127114807Y-46790142D01*
X127114802Y-46790146D01*
X126960142Y-46944806D01*
X126831595Y-47121739D01*
X126732298Y-47316616D01*
X126732297Y-47316619D01*
X126664714Y-47524623D01*
X126630500Y-47740638D01*
X126630500Y-47959361D01*
X126664714Y-48175376D01*
X126732297Y-48383380D01*
X126732298Y-48383383D01*
X126793638Y-48503767D01*
X126828097Y-48571396D01*
X126831595Y-48578260D01*
X126960142Y-48755193D01*
X127114806Y-48909857D01*
X127265969Y-49019682D01*
X127308635Y-49075011D01*
X127314614Y-49144625D01*
X127282009Y-49206420D01*
X127265969Y-49220318D01*
X127114806Y-49330142D01*
X126960142Y-49484806D01*
X126831595Y-49661739D01*
X126732298Y-49856616D01*
X126732297Y-49856619D01*
X126664714Y-50064623D01*
X126630500Y-50280638D01*
X126630500Y-50499361D01*
X126664714Y-50715376D01*
X126732297Y-50923380D01*
X126732298Y-50923383D01*
X126799782Y-51055825D01*
X126821402Y-51098257D01*
X126831595Y-51118260D01*
X126960142Y-51295193D01*
X127114806Y-51449857D01*
X127256763Y-51552993D01*
X127291743Y-51578407D01*
X127409477Y-51638396D01*
X127486616Y-51677701D01*
X127486619Y-51677702D01*
X127590621Y-51711493D01*
X127694625Y-51745286D01*
X127784369Y-51759500D01*
X127910639Y-51779500D01*
X127910644Y-51779500D01*
X128129361Y-51779500D01*
X128234082Y-51762912D01*
X128345375Y-51745286D01*
X128553383Y-51677701D01*
X128748257Y-51578407D01*
X128925199Y-51449852D01*
X128925207Y-51449843D01*
X128925456Y-51449632D01*
X128925579Y-51449576D01*
X128929141Y-51446989D01*
X128929684Y-51447736D01*
X128989214Y-51421053D01*
X129058301Y-51431482D01*
X129110783Y-51477606D01*
X129130000Y-51543912D01*
X129130000Y-76815500D01*
X129110315Y-76882539D01*
X129057511Y-76928294D01*
X129006000Y-76939500D01*
X14964500Y-76939500D01*
X14897461Y-76919815D01*
X14851706Y-76867011D01*
X14840500Y-76815500D01*
X14840500Y-74603543D01*
X43179499Y-74603543D01*
X43217947Y-74796829D01*
X43217950Y-74796839D01*
X43293364Y-74978907D01*
X43293371Y-74978920D01*
X43402860Y-75142781D01*
X43402863Y-75142785D01*
X43542214Y-75282136D01*
X43542218Y-75282139D01*
X43706079Y-75391628D01*
X43706092Y-75391635D01*
X43888160Y-75467049D01*
X43888165Y-75467051D01*
X43888169Y-75467051D01*
X43888170Y-75467052D01*
X44081456Y-75505500D01*
X44081459Y-75505500D01*
X44278543Y-75505500D01*
X44408582Y-75479632D01*
X44471835Y-75467051D01*
X44653914Y-75391632D01*
X44817782Y-75282139D01*
X44957139Y-75142782D01*
X45066632Y-74978914D01*
X45142051Y-74796835D01*
X45180500Y-74603543D01*
X51819499Y-74603543D01*
X51857947Y-74796829D01*
X51857950Y-74796839D01*
X51933364Y-74978907D01*
X51933371Y-74978920D01*
X52042860Y-75142781D01*
X52042863Y-75142785D01*
X52182214Y-75282136D01*
X52182218Y-75282139D01*
X52346079Y-75391628D01*
X52346092Y-75391635D01*
X52528160Y-75467049D01*
X52528165Y-75467051D01*
X52528169Y-75467051D01*
X52528170Y-75467052D01*
X52721456Y-75505500D01*
X52721459Y-75505500D01*
X52918543Y-75505500D01*
X53048582Y-75479632D01*
X53111835Y-75467051D01*
X53293914Y-75391632D01*
X53457782Y-75282139D01*
X53597139Y-75142782D01*
X53706632Y-74978914D01*
X53782051Y-74796835D01*
X53820500Y-74603541D01*
X53820500Y-73606459D01*
X53820500Y-73606456D01*
X53782052Y-73413170D01*
X53782051Y-73413169D01*
X53782051Y-73413165D01*
X53714701Y-73250566D01*
X53706635Y-73231092D01*
X53706628Y-73231079D01*
X53597139Y-73067218D01*
X53597136Y-73067214D01*
X53457785Y-72927863D01*
X53457781Y-72927860D01*
X53293920Y-72818371D01*
X53293907Y-72818364D01*
X53111839Y-72742950D01*
X53111829Y-72742947D01*
X52918543Y-72704500D01*
X52918541Y-72704500D01*
X52721459Y-72704500D01*
X52721457Y-72704500D01*
X52528170Y-72742947D01*
X52528160Y-72742950D01*
X52346092Y-72818364D01*
X52346079Y-72818371D01*
X52182218Y-72927860D01*
X52182214Y-72927863D01*
X52042863Y-73067214D01*
X52042860Y-73067218D01*
X51933371Y-73231079D01*
X51933364Y-73231092D01*
X51857950Y-73413160D01*
X51857947Y-73413170D01*
X51819500Y-73606456D01*
X51819500Y-73606459D01*
X51819500Y-74603541D01*
X51819500Y-74603543D01*
X51819499Y-74603543D01*
X45180500Y-74603543D01*
X45180500Y-74603541D01*
X45180500Y-73606459D01*
X45180500Y-73606456D01*
X45142052Y-73413170D01*
X45142051Y-73413169D01*
X45142051Y-73413165D01*
X45074701Y-73250566D01*
X45066635Y-73231092D01*
X45066628Y-73231079D01*
X44957139Y-73067218D01*
X44957136Y-73067214D01*
X44817785Y-72927863D01*
X44817781Y-72927860D01*
X44653920Y-72818371D01*
X44653907Y-72818364D01*
X44471839Y-72742950D01*
X44471829Y-72742947D01*
X44278543Y-72704500D01*
X44278541Y-72704500D01*
X44081459Y-72704500D01*
X44081457Y-72704500D01*
X43888170Y-72742947D01*
X43888160Y-72742950D01*
X43706092Y-72818364D01*
X43706079Y-72818371D01*
X43542218Y-72927860D01*
X43542214Y-72927863D01*
X43402863Y-73067214D01*
X43402860Y-73067218D01*
X43293371Y-73231079D01*
X43293364Y-73231092D01*
X43217950Y-73413160D01*
X43217947Y-73413170D01*
X43179500Y-73606456D01*
X43179500Y-73606459D01*
X43179500Y-74603541D01*
X43179500Y-74603543D01*
X43179499Y-74603543D01*
X14840500Y-74603543D01*
X14840500Y-70573543D01*
X43179499Y-70573543D01*
X43217947Y-70766829D01*
X43217950Y-70766839D01*
X43293364Y-70948907D01*
X43293371Y-70948920D01*
X43402860Y-71112781D01*
X43402863Y-71112785D01*
X43542214Y-71252136D01*
X43542218Y-71252139D01*
X43706079Y-71361628D01*
X43706092Y-71361635D01*
X43888160Y-71437049D01*
X43888165Y-71437051D01*
X43888169Y-71437051D01*
X43888170Y-71437052D01*
X44081456Y-71475500D01*
X44081459Y-71475500D01*
X44278543Y-71475500D01*
X44408582Y-71449632D01*
X44471835Y-71437051D01*
X44653914Y-71361632D01*
X44817782Y-71252139D01*
X44957139Y-71112782D01*
X45066632Y-70948914D01*
X45142051Y-70766835D01*
X45177891Y-70586657D01*
X45180500Y-70573543D01*
X51819499Y-70573543D01*
X51857947Y-70766829D01*
X51857950Y-70766839D01*
X51933364Y-70948907D01*
X51933371Y-70948920D01*
X52042860Y-71112781D01*
X52042863Y-71112785D01*
X52182214Y-71252136D01*
X52182218Y-71252139D01*
X52346079Y-71361628D01*
X52346092Y-71361635D01*
X52528160Y-71437049D01*
X52528165Y-71437051D01*
X52528169Y-71437051D01*
X52528170Y-71437052D01*
X52721456Y-71475500D01*
X52721459Y-71475500D01*
X52918543Y-71475500D01*
X53048582Y-71449632D01*
X53111835Y-71437051D01*
X53293914Y-71361632D01*
X53457782Y-71252139D01*
X53597139Y-71112782D01*
X53706632Y-70948914D01*
X53710939Y-70938515D01*
X53754779Y-70884114D01*
X53821073Y-70862048D01*
X53888772Y-70879327D01*
X53936383Y-70930463D01*
X53949500Y-70985969D01*
X53949500Y-71143771D01*
X53982182Y-71308074D01*
X53982184Y-71308082D01*
X54046295Y-71462860D01*
X54046296Y-71462862D01*
X54046297Y-71462863D01*
X54112293Y-71561633D01*
X54128602Y-71586040D01*
X54149480Y-71652717D01*
X54149500Y-71654931D01*
X54149500Y-72345068D01*
X54129815Y-72412107D01*
X54128602Y-72413959D01*
X54046295Y-72537139D01*
X53982184Y-72691917D01*
X53982182Y-72691925D01*
X53949500Y-72856228D01*
X53949500Y-73023771D01*
X53982182Y-73188074D01*
X53982184Y-73188082D01*
X54046295Y-73342860D01*
X54139373Y-73482162D01*
X54257837Y-73600626D01*
X54350494Y-73662537D01*
X54397137Y-73693703D01*
X54551918Y-73757816D01*
X54716228Y-73790499D01*
X54716232Y-73790500D01*
X54716233Y-73790500D01*
X54883768Y-73790500D01*
X54883769Y-73790499D01*
X55048082Y-73757816D01*
X55202863Y-73693703D01*
X55342162Y-73600626D01*
X55460626Y-73482162D01*
X55553703Y-73342863D01*
X55617816Y-73188082D01*
X55650500Y-73023767D01*
X55650500Y-72856233D01*
X55617816Y-72691918D01*
X55553703Y-72537137D01*
X55490559Y-72442635D01*
X55471398Y-72413959D01*
X55450520Y-72347281D01*
X55450500Y-72345068D01*
X55450500Y-72170951D01*
X55470185Y-72103912D01*
X55522989Y-72058157D01*
X55592147Y-72048213D01*
X55655703Y-72077238D01*
X55693477Y-72136016D01*
X55696973Y-72151553D01*
X55706447Y-72211369D01*
X55706447Y-72211372D01*
X55778495Y-72433111D01*
X55778498Y-72433118D01*
X55779432Y-72435992D01*
X55782809Y-72442621D01*
X55782816Y-72442635D01*
X55886657Y-72646433D01*
X56025483Y-72837510D01*
X56192490Y-73004517D01*
X56383567Y-73143343D01*
X56471357Y-73188074D01*
X56594003Y-73250566D01*
X56594005Y-73250566D01*
X56594008Y-73250568D01*
X56714412Y-73289689D01*
X56818631Y-73323553D01*
X57051903Y-73360500D01*
X57051908Y-73360500D01*
X57288097Y-73360500D01*
X57521368Y-73323553D01*
X57745992Y-73250568D01*
X57956433Y-73143343D01*
X58147510Y-73004517D01*
X58314517Y-72837510D01*
X58453343Y-72646433D01*
X58560568Y-72435992D01*
X58633553Y-72211368D01*
X58639527Y-72173649D01*
X58670500Y-71978097D01*
X58670500Y-71741902D01*
X62169500Y-71741902D01*
X62169500Y-71978097D01*
X62206446Y-72211368D01*
X62279433Y-72435996D01*
X62386657Y-72646433D01*
X62525483Y-72837510D01*
X62692490Y-73004517D01*
X62883567Y-73143343D01*
X62971357Y-73188074D01*
X63094003Y-73250566D01*
X63094005Y-73250566D01*
X63094008Y-73250568D01*
X63214412Y-73289689D01*
X63318631Y-73323553D01*
X63551903Y-73360500D01*
X63551908Y-73360500D01*
X63788097Y-73360500D01*
X64021368Y-73323553D01*
X64245992Y-73250568D01*
X64456433Y-73143343D01*
X64647510Y-73004517D01*
X64814517Y-72837510D01*
X64953343Y-72646433D01*
X65060568Y-72435992D01*
X65087069Y-72354429D01*
X65126507Y-72296754D01*
X65190865Y-72269556D01*
X65259712Y-72281471D01*
X65311187Y-72328715D01*
X65322930Y-72354428D01*
X65349432Y-72435992D01*
X65456657Y-72646433D01*
X65595483Y-72837510D01*
X65762490Y-73004517D01*
X65953567Y-73143343D01*
X66041357Y-73188074D01*
X66164003Y-73250566D01*
X66164005Y-73250566D01*
X66164008Y-73250568D01*
X66284412Y-73289689D01*
X66388631Y-73323553D01*
X66621903Y-73360500D01*
X66621908Y-73360500D01*
X66858097Y-73360500D01*
X67091368Y-73323553D01*
X67315992Y-73250568D01*
X67526433Y-73143343D01*
X67717510Y-73004517D01*
X67884517Y-72837510D01*
X68023343Y-72646433D01*
X68130568Y-72435992D01*
X68203553Y-72211368D01*
X68209527Y-72173649D01*
X68240500Y-71978097D01*
X68240500Y-71741902D01*
X71739500Y-71741902D01*
X71739500Y-71978097D01*
X71776446Y-72211368D01*
X71849433Y-72435996D01*
X71956657Y-72646433D01*
X72095483Y-72837510D01*
X72262490Y-73004517D01*
X72453567Y-73143343D01*
X72541357Y-73188074D01*
X72664003Y-73250566D01*
X72664005Y-73250566D01*
X72664008Y-73250568D01*
X72784412Y-73289689D01*
X72888631Y-73323553D01*
X73121903Y-73360500D01*
X73121908Y-73360500D01*
X73358097Y-73360500D01*
X73591368Y-73323553D01*
X73815992Y-73250568D01*
X74026433Y-73143343D01*
X74217510Y-73004517D01*
X74384517Y-72837510D01*
X74523343Y-72646433D01*
X74630568Y-72435992D01*
X74697069Y-72231324D01*
X74736507Y-72173649D01*
X74800866Y-72146451D01*
X74869712Y-72158366D01*
X74921188Y-72205610D01*
X74932931Y-72231324D01*
X74999433Y-72435996D01*
X75106657Y-72646433D01*
X75245483Y-72837510D01*
X75412490Y-73004517D01*
X75603567Y-73143343D01*
X75691357Y-73188074D01*
X75814003Y-73250566D01*
X75814005Y-73250566D01*
X75814008Y-73250568D01*
X75934412Y-73289689D01*
X76038631Y-73323553D01*
X76271903Y-73360500D01*
X76271908Y-73360500D01*
X76508097Y-73360500D01*
X76741368Y-73323553D01*
X76965992Y-73250568D01*
X77176433Y-73143343D01*
X77367510Y-73004517D01*
X77534517Y-72837510D01*
X77673343Y-72646433D01*
X77780568Y-72435992D01*
X77853553Y-72211368D01*
X77859527Y-72173649D01*
X77890500Y-71978097D01*
X77890500Y-71741902D01*
X81389500Y-71741902D01*
X81389500Y-71978097D01*
X81426446Y-72211368D01*
X81499433Y-72435996D01*
X81606657Y-72646433D01*
X81745483Y-72837510D01*
X81912490Y-73004517D01*
X82103567Y-73143343D01*
X82191357Y-73188074D01*
X82314003Y-73250566D01*
X82314005Y-73250566D01*
X82314008Y-73250568D01*
X82434412Y-73289689D01*
X82538631Y-73323553D01*
X82771903Y-73360500D01*
X82771908Y-73360500D01*
X83008097Y-73360500D01*
X83241368Y-73323553D01*
X83465992Y-73250568D01*
X83676433Y-73143343D01*
X83867510Y-73004517D01*
X84034517Y-72837510D01*
X84173343Y-72646433D01*
X84280568Y-72435992D01*
X84295444Y-72390205D01*
X84334881Y-72332532D01*
X84399240Y-72305333D01*
X84468086Y-72317247D01*
X84519562Y-72364491D01*
X84531306Y-72390206D01*
X84549433Y-72445996D01*
X84651562Y-72646433D01*
X84656657Y-72656433D01*
X84795483Y-72847510D01*
X84962490Y-73014517D01*
X85153567Y-73153343D01*
X85221746Y-73188082D01*
X85364003Y-73260566D01*
X85364005Y-73260566D01*
X85364008Y-73260568D01*
X85484412Y-73299689D01*
X85588631Y-73333553D01*
X85821903Y-73370500D01*
X85821908Y-73370500D01*
X86058097Y-73370500D01*
X86291368Y-73333553D01*
X86515992Y-73260568D01*
X86726433Y-73153343D01*
X86917510Y-73014517D01*
X87084517Y-72847510D01*
X87223343Y-72656433D01*
X87330568Y-72445992D01*
X87403553Y-72221368D01*
X87411538Y-72170951D01*
X87440500Y-71988097D01*
X87440500Y-71751902D01*
X90939500Y-71751902D01*
X90939500Y-71988097D01*
X90976446Y-72221368D01*
X91049433Y-72445996D01*
X91151562Y-72646433D01*
X91156657Y-72656433D01*
X91295483Y-72847510D01*
X91462490Y-73014517D01*
X91653567Y-73153343D01*
X91721746Y-73188082D01*
X91864003Y-73260566D01*
X91864005Y-73260566D01*
X91864008Y-73260568D01*
X91984412Y-73299689D01*
X92088631Y-73333553D01*
X92321903Y-73370500D01*
X92321908Y-73370500D01*
X92558097Y-73370500D01*
X92791368Y-73333553D01*
X93015992Y-73260568D01*
X93226433Y-73153343D01*
X93417510Y-73014517D01*
X93584517Y-72847510D01*
X93723343Y-72656433D01*
X93830568Y-72445992D01*
X93903553Y-72221368D01*
X93911538Y-72170951D01*
X93940500Y-71988097D01*
X93940500Y-71751902D01*
X93903553Y-71518631D01*
X93830566Y-71294003D01*
X93738230Y-71112785D01*
X93723343Y-71083567D01*
X93584517Y-70892490D01*
X93417510Y-70725483D01*
X93226433Y-70586657D01*
X93206807Y-70576657D01*
X93015996Y-70479433D01*
X92791368Y-70406446D01*
X92558097Y-70369500D01*
X92558092Y-70369500D01*
X92321908Y-70369500D01*
X92321903Y-70369500D01*
X92088631Y-70406446D01*
X91864003Y-70479433D01*
X91653566Y-70586657D01*
X91557664Y-70656335D01*
X91462490Y-70725483D01*
X91462488Y-70725485D01*
X91462487Y-70725485D01*
X91295485Y-70892487D01*
X91295485Y-70892488D01*
X91295483Y-70892490D01*
X91254487Y-70948916D01*
X91156657Y-71083566D01*
X91049433Y-71294003D01*
X90976446Y-71518631D01*
X90939500Y-71751902D01*
X87440500Y-71751902D01*
X87403553Y-71518631D01*
X87330566Y-71294003D01*
X87238230Y-71112785D01*
X87223343Y-71083567D01*
X87084517Y-70892490D01*
X86917510Y-70725483D01*
X86726433Y-70586657D01*
X86706807Y-70576657D01*
X86515996Y-70479433D01*
X86291368Y-70406446D01*
X86058097Y-70369500D01*
X86058092Y-70369500D01*
X85821908Y-70369500D01*
X85821903Y-70369500D01*
X85588631Y-70406446D01*
X85364003Y-70479433D01*
X85153566Y-70586657D01*
X85057664Y-70656335D01*
X84962490Y-70725483D01*
X84962488Y-70725485D01*
X84962487Y-70725485D01*
X84795485Y-70892487D01*
X84795485Y-70892488D01*
X84795483Y-70892490D01*
X84754487Y-70948916D01*
X84656657Y-71083566D01*
X84549432Y-71294006D01*
X84534554Y-71339795D01*
X84495115Y-71397469D01*
X84430756Y-71424666D01*
X84361910Y-71412750D01*
X84310435Y-71365505D01*
X84298693Y-71339792D01*
X84280568Y-71284008D01*
X84173343Y-71073567D01*
X84034517Y-70882490D01*
X83867510Y-70715483D01*
X83676433Y-70576657D01*
X83670304Y-70573534D01*
X83465996Y-70469433D01*
X83241368Y-70396446D01*
X83008097Y-70359500D01*
X83008092Y-70359500D01*
X82771908Y-70359500D01*
X82771903Y-70359500D01*
X82538631Y-70396446D01*
X82314003Y-70469433D01*
X82103566Y-70576657D01*
X81994550Y-70655862D01*
X81912490Y-70715483D01*
X81912488Y-70715485D01*
X81912487Y-70715485D01*
X81745485Y-70882487D01*
X81745485Y-70882488D01*
X81745483Y-70882490D01*
X81704777Y-70938517D01*
X81606657Y-71073566D01*
X81499433Y-71284003D01*
X81426446Y-71508631D01*
X81389500Y-71741902D01*
X77890500Y-71741902D01*
X77853553Y-71508631D01*
X77807048Y-71365505D01*
X77780568Y-71284008D01*
X77780566Y-71284005D01*
X77780566Y-71284003D01*
X77709112Y-71143767D01*
X77673343Y-71073567D01*
X77534517Y-70882490D01*
X77367510Y-70715483D01*
X77176433Y-70576657D01*
X77170304Y-70573534D01*
X76965996Y-70469433D01*
X76741368Y-70396446D01*
X76508097Y-70359500D01*
X76508092Y-70359500D01*
X76271908Y-70359500D01*
X76271903Y-70359500D01*
X76038631Y-70396446D01*
X75814003Y-70469433D01*
X75603566Y-70576657D01*
X75494550Y-70655862D01*
X75412490Y-70715483D01*
X75412488Y-70715485D01*
X75412487Y-70715485D01*
X75245485Y-70882487D01*
X75245485Y-70882488D01*
X75245483Y-70882490D01*
X75204777Y-70938517D01*
X75106657Y-71073566D01*
X74999433Y-71284003D01*
X74932931Y-71488675D01*
X74893493Y-71546350D01*
X74829134Y-71573548D01*
X74760288Y-71561633D01*
X74708812Y-71514389D01*
X74697069Y-71488675D01*
X74638390Y-71308082D01*
X74630568Y-71284008D01*
X74630566Y-71284005D01*
X74630566Y-71284003D01*
X74559112Y-71143767D01*
X74523343Y-71073567D01*
X74384517Y-70882490D01*
X74217510Y-70715483D01*
X74026433Y-70576657D01*
X74020304Y-70573534D01*
X73815996Y-70469433D01*
X73591368Y-70396446D01*
X73358097Y-70359500D01*
X73358092Y-70359500D01*
X73121908Y-70359500D01*
X73121903Y-70359500D01*
X72888631Y-70396446D01*
X72664003Y-70469433D01*
X72453566Y-70576657D01*
X72344550Y-70655862D01*
X72262490Y-70715483D01*
X72262488Y-70715485D01*
X72262487Y-70715485D01*
X72095485Y-70882487D01*
X72095485Y-70882488D01*
X72095483Y-70882490D01*
X72054777Y-70938517D01*
X71956657Y-71073566D01*
X71849433Y-71284003D01*
X71776446Y-71508631D01*
X71739500Y-71741902D01*
X68240500Y-71741902D01*
X68203553Y-71508631D01*
X68157048Y-71365505D01*
X68130568Y-71284008D01*
X68130566Y-71284005D01*
X68130566Y-71284003D01*
X68059112Y-71143767D01*
X68023343Y-71073567D01*
X67884517Y-70882490D01*
X67717510Y-70715483D01*
X67526433Y-70576657D01*
X67520304Y-70573534D01*
X67315996Y-70469433D01*
X67091368Y-70396446D01*
X66858097Y-70359500D01*
X66858092Y-70359500D01*
X66621908Y-70359500D01*
X66621903Y-70359500D01*
X66388631Y-70396446D01*
X66164003Y-70469433D01*
X65953566Y-70576657D01*
X65844550Y-70655862D01*
X65762490Y-70715483D01*
X65762488Y-70715485D01*
X65762487Y-70715485D01*
X65595485Y-70882487D01*
X65595485Y-70882488D01*
X65595483Y-70882490D01*
X65554777Y-70938517D01*
X65456657Y-71073566D01*
X65349433Y-71284003D01*
X65331307Y-71339792D01*
X65324210Y-71361635D01*
X65322931Y-71365570D01*
X65283493Y-71423245D01*
X65219134Y-71450443D01*
X65150288Y-71438528D01*
X65098812Y-71391284D01*
X65087069Y-71365570D01*
X65087048Y-71365505D01*
X65060568Y-71284008D01*
X65060566Y-71284005D01*
X65060566Y-71284003D01*
X64989112Y-71143767D01*
X64953343Y-71073567D01*
X64814517Y-70882490D01*
X64647510Y-70715483D01*
X64456433Y-70576657D01*
X64450304Y-70573534D01*
X64245996Y-70469433D01*
X64021368Y-70396446D01*
X63788097Y-70359500D01*
X63788092Y-70359500D01*
X63551908Y-70359500D01*
X63551903Y-70359500D01*
X63318631Y-70396446D01*
X63094003Y-70469433D01*
X62883566Y-70576657D01*
X62774550Y-70655862D01*
X62692490Y-70715483D01*
X62692488Y-70715485D01*
X62692487Y-70715485D01*
X62525485Y-70882487D01*
X62525485Y-70882488D01*
X62525483Y-70882490D01*
X62484777Y-70938517D01*
X62386657Y-71073566D01*
X62279433Y-71284003D01*
X62206446Y-71508631D01*
X62169500Y-71741902D01*
X58670500Y-71741902D01*
X58633553Y-71508631D01*
X58587048Y-71365505D01*
X58560568Y-71284008D01*
X58560566Y-71284005D01*
X58560566Y-71284003D01*
X58489112Y-71143767D01*
X58453343Y-71073567D01*
X58314517Y-70882490D01*
X58147510Y-70715483D01*
X57956433Y-70576657D01*
X57950304Y-70573534D01*
X57745996Y-70469433D01*
X57521368Y-70396446D01*
X57288097Y-70359500D01*
X57288092Y-70359500D01*
X57051908Y-70359500D01*
X57051903Y-70359500D01*
X56818631Y-70396446D01*
X56594003Y-70469433D01*
X56383566Y-70576657D01*
X56274550Y-70655862D01*
X56192490Y-70715483D01*
X56192488Y-70715485D01*
X56192487Y-70715485D01*
X56025485Y-70882487D01*
X56025485Y-70882488D01*
X56025483Y-70882490D01*
X55984777Y-70938517D01*
X55886653Y-71073572D01*
X55884982Y-71076852D01*
X55837006Y-71127646D01*
X55769184Y-71144439D01*
X55703050Y-71121899D01*
X55659601Y-71067182D01*
X55650500Y-71020553D01*
X55650500Y-70976232D01*
X55650499Y-70976228D01*
X55645066Y-70948914D01*
X55617816Y-70811918D01*
X55553703Y-70657137D01*
X55501916Y-70579633D01*
X55460626Y-70517837D01*
X55342162Y-70399373D01*
X55202860Y-70306295D01*
X55048082Y-70242184D01*
X55048074Y-70242182D01*
X54883771Y-70209500D01*
X54883767Y-70209500D01*
X54716233Y-70209500D01*
X54716228Y-70209500D01*
X54551925Y-70242182D01*
X54551917Y-70242184D01*
X54397139Y-70306295D01*
X54257837Y-70399373D01*
X54139376Y-70517834D01*
X54139373Y-70517838D01*
X54046832Y-70656335D01*
X53993219Y-70701140D01*
X53923894Y-70709847D01*
X53860867Y-70679692D01*
X53824148Y-70620249D01*
X53820698Y-70579633D01*
X53820500Y-70579633D01*
X53820500Y-70577303D01*
X53820328Y-70575279D01*
X53820498Y-70573547D01*
X53820500Y-70573541D01*
X53820500Y-69276459D01*
X53820500Y-69276456D01*
X53782052Y-69083170D01*
X53782051Y-69083169D01*
X53782051Y-69083165D01*
X53782049Y-69083160D01*
X53706635Y-68901092D01*
X53706628Y-68901079D01*
X53597139Y-68737218D01*
X53597136Y-68737214D01*
X53457785Y-68597863D01*
X53457781Y-68597860D01*
X53293920Y-68488371D01*
X53293907Y-68488364D01*
X53111839Y-68412950D01*
X53111829Y-68412947D01*
X52918543Y-68374500D01*
X52918541Y-68374500D01*
X52721459Y-68374500D01*
X52721457Y-68374500D01*
X52528170Y-68412947D01*
X52528160Y-68412950D01*
X52346092Y-68488364D01*
X52346079Y-68488371D01*
X52182218Y-68597860D01*
X52182214Y-68597863D01*
X52042863Y-68737214D01*
X52042860Y-68737218D01*
X51933371Y-68901079D01*
X51933364Y-68901092D01*
X51857950Y-69083160D01*
X51857947Y-69083170D01*
X51819500Y-69276456D01*
X51819500Y-69276459D01*
X51819500Y-70573541D01*
X51819500Y-70573543D01*
X51819499Y-70573543D01*
X45180500Y-70573543D01*
X45180500Y-69276456D01*
X45142052Y-69083170D01*
X45142051Y-69083169D01*
X45142051Y-69083165D01*
X45142049Y-69083160D01*
X45066635Y-68901092D01*
X45066628Y-68901079D01*
X44957139Y-68737218D01*
X44957136Y-68737214D01*
X44817785Y-68597863D01*
X44817781Y-68597860D01*
X44653920Y-68488371D01*
X44653907Y-68488364D01*
X44471839Y-68412950D01*
X44471829Y-68412947D01*
X44278543Y-68374500D01*
X44278541Y-68374500D01*
X44081459Y-68374500D01*
X44081457Y-68374500D01*
X43888170Y-68412947D01*
X43888160Y-68412950D01*
X43706092Y-68488364D01*
X43706079Y-68488371D01*
X43542218Y-68597860D01*
X43542214Y-68597863D01*
X43402863Y-68737214D01*
X43402860Y-68737218D01*
X43293371Y-68901079D01*
X43293364Y-68901092D01*
X43217950Y-69083160D01*
X43217947Y-69083170D01*
X43179500Y-69276456D01*
X43179500Y-69276459D01*
X43179500Y-70573541D01*
X43179500Y-70573543D01*
X43179499Y-70573543D01*
X14840500Y-70573543D01*
X14840500Y-67241902D01*
X55669500Y-67241902D01*
X55669500Y-67478097D01*
X55706446Y-67711368D01*
X55779433Y-67935996D01*
X55886657Y-68146433D01*
X56025483Y-68337510D01*
X56192490Y-68504517D01*
X56383567Y-68643343D01*
X56482991Y-68694002D01*
X56594003Y-68750566D01*
X56594005Y-68750566D01*
X56594008Y-68750568D01*
X56714412Y-68789689D01*
X56818631Y-68823553D01*
X57051903Y-68860500D01*
X57051908Y-68860500D01*
X57288097Y-68860500D01*
X57521368Y-68823553D01*
X57745992Y-68750568D01*
X57956433Y-68643343D01*
X58147510Y-68504517D01*
X58314517Y-68337510D01*
X58453343Y-68146433D01*
X58560568Y-67935992D01*
X58633553Y-67711368D01*
X58643835Y-67646451D01*
X58670500Y-67478097D01*
X58670500Y-67241902D01*
X62169500Y-67241902D01*
X62169500Y-67478097D01*
X62206446Y-67711368D01*
X62279433Y-67935996D01*
X62386657Y-68146433D01*
X62525483Y-68337510D01*
X62692490Y-68504517D01*
X62883567Y-68643343D01*
X62982991Y-68694002D01*
X63094003Y-68750566D01*
X63094005Y-68750566D01*
X63094008Y-68750568D01*
X63214412Y-68789689D01*
X63318631Y-68823553D01*
X63551903Y-68860500D01*
X63551908Y-68860500D01*
X63788097Y-68860500D01*
X64021368Y-68823553D01*
X64245992Y-68750568D01*
X64456433Y-68643343D01*
X64647510Y-68504517D01*
X64814517Y-68337510D01*
X64953343Y-68146433D01*
X65060568Y-67935992D01*
X65087069Y-67854429D01*
X65126507Y-67796754D01*
X65190865Y-67769556D01*
X65259712Y-67781471D01*
X65311187Y-67828715D01*
X65322930Y-67854428D01*
X65349432Y-67935992D01*
X65456657Y-68146433D01*
X65595483Y-68337510D01*
X65762490Y-68504517D01*
X65953567Y-68643343D01*
X66052991Y-68694002D01*
X66164003Y-68750566D01*
X66164005Y-68750566D01*
X66164008Y-68750568D01*
X66284412Y-68789689D01*
X66388631Y-68823553D01*
X66621903Y-68860500D01*
X66621908Y-68860500D01*
X66858097Y-68860500D01*
X67091368Y-68823553D01*
X67315992Y-68750568D01*
X67526433Y-68643343D01*
X67717510Y-68504517D01*
X67884517Y-68337510D01*
X68023343Y-68146433D01*
X68130568Y-67935992D01*
X68203553Y-67711368D01*
X68213835Y-67646451D01*
X68240500Y-67478097D01*
X68240500Y-67241902D01*
X71739500Y-67241902D01*
X71739500Y-67478097D01*
X71776446Y-67711368D01*
X71849433Y-67935996D01*
X71956657Y-68146433D01*
X72095483Y-68337510D01*
X72262490Y-68504517D01*
X72453567Y-68643343D01*
X72552991Y-68694002D01*
X72664003Y-68750566D01*
X72664005Y-68750566D01*
X72664008Y-68750568D01*
X72784412Y-68789689D01*
X72888631Y-68823553D01*
X73121903Y-68860500D01*
X73121908Y-68860500D01*
X73358097Y-68860500D01*
X73591368Y-68823553D01*
X73815992Y-68750568D01*
X74026433Y-68643343D01*
X74217510Y-68504517D01*
X74384517Y-68337510D01*
X74523343Y-68146433D01*
X74630568Y-67935992D01*
X74697069Y-67731324D01*
X74736507Y-67673649D01*
X74800866Y-67646451D01*
X74869712Y-67658366D01*
X74921188Y-67705610D01*
X74932931Y-67731324D01*
X74999433Y-67935996D01*
X75106657Y-68146433D01*
X75245483Y-68337510D01*
X75412490Y-68504517D01*
X75603567Y-68643343D01*
X75702991Y-68694002D01*
X75814003Y-68750566D01*
X75814005Y-68750566D01*
X75814008Y-68750568D01*
X75934412Y-68789689D01*
X76038631Y-68823553D01*
X76271903Y-68860500D01*
X76271908Y-68860500D01*
X76508097Y-68860500D01*
X76741368Y-68823553D01*
X76965992Y-68750568D01*
X77176433Y-68643343D01*
X77367510Y-68504517D01*
X77534517Y-68337510D01*
X77673343Y-68146433D01*
X77780568Y-67935992D01*
X77853553Y-67711368D01*
X77863835Y-67646451D01*
X77890500Y-67478097D01*
X77890500Y-67241902D01*
X81389500Y-67241902D01*
X81389500Y-67478097D01*
X81426446Y-67711368D01*
X81499433Y-67935996D01*
X81606657Y-68146433D01*
X81745483Y-68337510D01*
X81912490Y-68504517D01*
X82103567Y-68643343D01*
X82202991Y-68694002D01*
X82314003Y-68750566D01*
X82314005Y-68750566D01*
X82314008Y-68750568D01*
X82434412Y-68789689D01*
X82538631Y-68823553D01*
X82771903Y-68860500D01*
X82771908Y-68860500D01*
X83008097Y-68860500D01*
X83241368Y-68823553D01*
X83465992Y-68750568D01*
X83676433Y-68643343D01*
X83867510Y-68504517D01*
X84034517Y-68337510D01*
X84173343Y-68146433D01*
X84280568Y-67935992D01*
X84295444Y-67890205D01*
X84334881Y-67832532D01*
X84399240Y-67805333D01*
X84468086Y-67817247D01*
X84519562Y-67864491D01*
X84531306Y-67890206D01*
X84549433Y-67945996D01*
X84651562Y-68146433D01*
X84656657Y-68156433D01*
X84795483Y-68347510D01*
X84962490Y-68514517D01*
X85153567Y-68653343D01*
X85252991Y-68704002D01*
X85364003Y-68760566D01*
X85364005Y-68760566D01*
X85364008Y-68760568D01*
X85484412Y-68799689D01*
X85588631Y-68833553D01*
X85821903Y-68870500D01*
X85821908Y-68870500D01*
X86058097Y-68870500D01*
X86291368Y-68833553D01*
X86515992Y-68760568D01*
X86726433Y-68653343D01*
X86917510Y-68514517D01*
X87084517Y-68347510D01*
X87223343Y-68156433D01*
X87330568Y-67945992D01*
X87403553Y-67721368D01*
X87411111Y-67673649D01*
X87440500Y-67488097D01*
X87440500Y-67251902D01*
X90939500Y-67251902D01*
X90939500Y-67488097D01*
X90976446Y-67721368D01*
X91049433Y-67945996D01*
X91151562Y-68146433D01*
X91156657Y-68156433D01*
X91295483Y-68347510D01*
X91462490Y-68514517D01*
X91653567Y-68653343D01*
X91752991Y-68704002D01*
X91864003Y-68760566D01*
X91864005Y-68760566D01*
X91864008Y-68760568D01*
X91984412Y-68799689D01*
X92088631Y-68833553D01*
X92321903Y-68870500D01*
X92321908Y-68870500D01*
X92558097Y-68870500D01*
X92791368Y-68833553D01*
X93015992Y-68760568D01*
X93226433Y-68653343D01*
X93417510Y-68514517D01*
X93584517Y-68347510D01*
X93723343Y-68156433D01*
X93830568Y-67945992D01*
X93903553Y-67721368D01*
X93911111Y-67673649D01*
X93940500Y-67488097D01*
X93940500Y-67251902D01*
X93919005Y-67116197D01*
X93903553Y-67018632D01*
X93903551Y-67018628D01*
X93903551Y-67018623D01*
X93895793Y-66994748D01*
X93895790Y-66994738D01*
X93830566Y-66794003D01*
X93757256Y-66650125D01*
X93723343Y-66583567D01*
X93584517Y-66392490D01*
X93417510Y-66225483D01*
X93226433Y-66086657D01*
X93015992Y-65979432D01*
X92917391Y-65947394D01*
X92791368Y-65906446D01*
X92558097Y-65869500D01*
X92558092Y-65869500D01*
X92321908Y-65869500D01*
X92321903Y-65869500D01*
X92088631Y-65906446D01*
X91864003Y-65979433D01*
X91653566Y-66086657D01*
X91556951Y-66156853D01*
X91462490Y-66225483D01*
X91462488Y-66225485D01*
X91462487Y-66225485D01*
X91295485Y-66392487D01*
X91295485Y-66392488D01*
X91295483Y-66392490D01*
X91264420Y-66435245D01*
X91156657Y-66583566D01*
X91049433Y-66794003D01*
X90976446Y-67018631D01*
X90939500Y-67251902D01*
X87440500Y-67251902D01*
X87403553Y-67018631D01*
X87330566Y-66794003D01*
X87257256Y-66650125D01*
X87223343Y-66583567D01*
X87084517Y-66392490D01*
X86917510Y-66225483D01*
X86726433Y-66086657D01*
X86706807Y-66076657D01*
X86515996Y-65979433D01*
X86291368Y-65906446D01*
X86058097Y-65869500D01*
X86058092Y-65869500D01*
X85821908Y-65869500D01*
X85821903Y-65869500D01*
X85588631Y-65906446D01*
X85364003Y-65979433D01*
X85153566Y-66086657D01*
X85056951Y-66156853D01*
X84962490Y-66225483D01*
X84962488Y-66225485D01*
X84962487Y-66225485D01*
X84795485Y-66392487D01*
X84795485Y-66392488D01*
X84795483Y-66392490D01*
X84764420Y-66435245D01*
X84656657Y-66583566D01*
X84549432Y-66794006D01*
X84534554Y-66839795D01*
X84495115Y-66897469D01*
X84430756Y-66924666D01*
X84361910Y-66912750D01*
X84310435Y-66865505D01*
X84298693Y-66839792D01*
X84280568Y-66784008D01*
X84173343Y-66573567D01*
X84034517Y-66382490D01*
X83867510Y-66215483D01*
X83676433Y-66076657D01*
X83465996Y-65969433D01*
X83241368Y-65896446D01*
X83021463Y-65861617D01*
X120800000Y-65861617D01*
X120800000Y-66058382D01*
X120830778Y-66252705D01*
X120891581Y-66439835D01*
X120980905Y-66615145D01*
X121006319Y-66650125D01*
X121006320Y-66650125D01*
X121558871Y-66097574D01*
X121574755Y-66156853D01*
X121641898Y-66273147D01*
X121736853Y-66368102D01*
X121853147Y-66435245D01*
X121912424Y-66451128D01*
X121359873Y-67003677D01*
X121359873Y-67003678D01*
X121394858Y-67029096D01*
X121570164Y-67118418D01*
X121757294Y-67179221D01*
X121951618Y-67210000D01*
X122148382Y-67210000D01*
X122342705Y-67179221D01*
X122529835Y-67118418D01*
X122705143Y-67029095D01*
X122740125Y-67003678D01*
X122740126Y-67003678D01*
X122187575Y-66451127D01*
X122246853Y-66435245D01*
X122363147Y-66368102D01*
X122458102Y-66273147D01*
X122525245Y-66156853D01*
X122541127Y-66097575D01*
X123093678Y-66650126D01*
X123093678Y-66650125D01*
X123119095Y-66615143D01*
X123208418Y-66439835D01*
X123269221Y-66252705D01*
X123300000Y-66058382D01*
X123300000Y-65861617D01*
X123269221Y-65667294D01*
X123208418Y-65480164D01*
X123119096Y-65304858D01*
X123093678Y-65269873D01*
X123093677Y-65269873D01*
X122541127Y-65822423D01*
X122525245Y-65763147D01*
X122458102Y-65646853D01*
X122363147Y-65551898D01*
X122246853Y-65484755D01*
X122187574Y-65468871D01*
X122740125Y-64916320D01*
X122740125Y-64916319D01*
X122705145Y-64890905D01*
X122529835Y-64801581D01*
X122342705Y-64740778D01*
X122148382Y-64710000D01*
X121951618Y-64710000D01*
X121757294Y-64740778D01*
X121570161Y-64801582D01*
X121394863Y-64890899D01*
X121394859Y-64890902D01*
X121359873Y-64916320D01*
X121359872Y-64916320D01*
X121912425Y-65468871D01*
X121853147Y-65484755D01*
X121736853Y-65551898D01*
X121641898Y-65646853D01*
X121574755Y-65763147D01*
X121558871Y-65822424D01*
X121006320Y-65269872D01*
X121006320Y-65269873D01*
X120980902Y-65304859D01*
X120980899Y-65304863D01*
X120891582Y-65480161D01*
X120830778Y-65667294D01*
X120800000Y-65861617D01*
X83021463Y-65861617D01*
X83008097Y-65859500D01*
X83008092Y-65859500D01*
X82771908Y-65859500D01*
X82771903Y-65859500D01*
X82538631Y-65896446D01*
X82314003Y-65969433D01*
X82103566Y-66076657D01*
X81994550Y-66155862D01*
X81912490Y-66215483D01*
X81912488Y-66215485D01*
X81912487Y-66215485D01*
X81745485Y-66382487D01*
X81745485Y-66382488D01*
X81745483Y-66382490D01*
X81738220Y-66392487D01*
X81606657Y-66573566D01*
X81499433Y-66784003D01*
X81426446Y-67008631D01*
X81389500Y-67241902D01*
X77890500Y-67241902D01*
X77853553Y-67008631D01*
X77783817Y-66794008D01*
X77780568Y-66784008D01*
X77780566Y-66784005D01*
X77780566Y-66784003D01*
X77678438Y-66583567D01*
X77673343Y-66573567D01*
X77534517Y-66382490D01*
X77367510Y-66215483D01*
X77176433Y-66076657D01*
X76965996Y-65969433D01*
X76741368Y-65896446D01*
X76508097Y-65859500D01*
X76508092Y-65859500D01*
X76271908Y-65859500D01*
X76271903Y-65859500D01*
X76038631Y-65896446D01*
X75814003Y-65969433D01*
X75603566Y-66076657D01*
X75494550Y-66155862D01*
X75412490Y-66215483D01*
X75412488Y-66215485D01*
X75412487Y-66215485D01*
X75245485Y-66382487D01*
X75245485Y-66382488D01*
X75245483Y-66382490D01*
X75238220Y-66392487D01*
X75106657Y-66573566D01*
X74999433Y-66784003D01*
X74932931Y-66988675D01*
X74893493Y-67046350D01*
X74829134Y-67073548D01*
X74760288Y-67061633D01*
X74708812Y-67014389D01*
X74697069Y-66988675D01*
X74633817Y-66794008D01*
X74630568Y-66784008D01*
X74630566Y-66784005D01*
X74630566Y-66784003D01*
X74528438Y-66583567D01*
X74523343Y-66573567D01*
X74384517Y-66382490D01*
X74217510Y-66215483D01*
X74026433Y-66076657D01*
X73815996Y-65969433D01*
X73591368Y-65896446D01*
X73358097Y-65859500D01*
X73358092Y-65859500D01*
X73121908Y-65859500D01*
X73121903Y-65859500D01*
X72888631Y-65896446D01*
X72664003Y-65969433D01*
X72453566Y-66076657D01*
X72344550Y-66155862D01*
X72262490Y-66215483D01*
X72262488Y-66215485D01*
X72262487Y-66215485D01*
X72095485Y-66382487D01*
X72095485Y-66382488D01*
X72095483Y-66382490D01*
X72088220Y-66392487D01*
X71956657Y-66573566D01*
X71849433Y-66784003D01*
X71776446Y-67008631D01*
X71739500Y-67241902D01*
X68240500Y-67241902D01*
X68203553Y-67008631D01*
X68133817Y-66794008D01*
X68130568Y-66784008D01*
X68130566Y-66784005D01*
X68130566Y-66784003D01*
X68028438Y-66583567D01*
X68023343Y-66573567D01*
X67884517Y-66382490D01*
X67717510Y-66215483D01*
X67526433Y-66076657D01*
X67315996Y-65969433D01*
X67091368Y-65896446D01*
X66858097Y-65859500D01*
X66858092Y-65859500D01*
X66621908Y-65859500D01*
X66621903Y-65859500D01*
X66388631Y-65896446D01*
X66164003Y-65969433D01*
X65953566Y-66076657D01*
X65844550Y-66155862D01*
X65762490Y-66215483D01*
X65762488Y-66215485D01*
X65762487Y-66215485D01*
X65595485Y-66382487D01*
X65595485Y-66382488D01*
X65595483Y-66382490D01*
X65588220Y-66392487D01*
X65456657Y-66573566D01*
X65349433Y-66784003D01*
X65322931Y-66865570D01*
X65283493Y-66923245D01*
X65219134Y-66950443D01*
X65150288Y-66938528D01*
X65098812Y-66891284D01*
X65087069Y-66865570D01*
X65063817Y-66794008D01*
X65060568Y-66784008D01*
X65060566Y-66784005D01*
X65060566Y-66784003D01*
X64958438Y-66583567D01*
X64953343Y-66573567D01*
X64814517Y-66382490D01*
X64647510Y-66215483D01*
X64456433Y-66076657D01*
X64245996Y-65969433D01*
X64021368Y-65896446D01*
X63788097Y-65859500D01*
X63788092Y-65859500D01*
X63551908Y-65859500D01*
X63551903Y-65859500D01*
X63318631Y-65896446D01*
X63094003Y-65969433D01*
X62883566Y-66076657D01*
X62774550Y-66155862D01*
X62692490Y-66215483D01*
X62692488Y-66215485D01*
X62692487Y-66215485D01*
X62525485Y-66382487D01*
X62525485Y-66382488D01*
X62525483Y-66382490D01*
X62518220Y-66392487D01*
X62386657Y-66573566D01*
X62279433Y-66784003D01*
X62206446Y-67008631D01*
X62169500Y-67241902D01*
X58670500Y-67241902D01*
X58633553Y-67008631D01*
X58563817Y-66794008D01*
X58560568Y-66784008D01*
X58560566Y-66784005D01*
X58560566Y-66784003D01*
X58458438Y-66583567D01*
X58453343Y-66573567D01*
X58314517Y-66382490D01*
X58147510Y-66215483D01*
X57956433Y-66076657D01*
X57745996Y-65969433D01*
X57521368Y-65896446D01*
X57288097Y-65859500D01*
X57288092Y-65859500D01*
X57051908Y-65859500D01*
X57051903Y-65859500D01*
X56818631Y-65896446D01*
X56594003Y-65969433D01*
X56383566Y-66076657D01*
X56274550Y-66155862D01*
X56192490Y-66215483D01*
X56192488Y-66215485D01*
X56192487Y-66215485D01*
X56025485Y-66382487D01*
X56025485Y-66382488D01*
X56025483Y-66382490D01*
X56018220Y-66392487D01*
X55886657Y-66573566D01*
X55779433Y-66784003D01*
X55706446Y-67008631D01*
X55669500Y-67241902D01*
X14840500Y-67241902D01*
X14840500Y-57880638D01*
X19048000Y-57880638D01*
X19048000Y-58099361D01*
X19082214Y-58315376D01*
X19149797Y-58523380D01*
X19149798Y-58523383D01*
X19203988Y-58629735D01*
X19247880Y-58715877D01*
X19249095Y-58718260D01*
X19377642Y-58895193D01*
X19532306Y-59049857D01*
X19657398Y-59140740D01*
X19709243Y-59178407D01*
X19822854Y-59236295D01*
X19904116Y-59277701D01*
X19904119Y-59277702D01*
X19985837Y-59304253D01*
X20112125Y-59345286D01*
X20212172Y-59361132D01*
X20328139Y-59379500D01*
X20328144Y-59379500D01*
X20546861Y-59379500D01*
X20651582Y-59362912D01*
X20762875Y-59345286D01*
X20970883Y-59277701D01*
X21165757Y-59178407D01*
X21298228Y-59082162D01*
X21342693Y-59049857D01*
X21342695Y-59049854D01*
X21342699Y-59049852D01*
X21497352Y-58895199D01*
X21607183Y-58744028D01*
X21662511Y-58701364D01*
X21732124Y-58695385D01*
X21793920Y-58727990D01*
X21807813Y-58744023D01*
X21883991Y-58848874D01*
X21917648Y-58895199D01*
X22072306Y-59049857D01*
X22197398Y-59140740D01*
X22249243Y-59178407D01*
X22362854Y-59236295D01*
X22444116Y-59277701D01*
X22444119Y-59277702D01*
X22525837Y-59304253D01*
X22652125Y-59345286D01*
X22752172Y-59361132D01*
X22868139Y-59379500D01*
X22868144Y-59379500D01*
X23086861Y-59379500D01*
X23191582Y-59362912D01*
X23302875Y-59345286D01*
X23510883Y-59277701D01*
X23705757Y-59178407D01*
X23838228Y-59082162D01*
X23882693Y-59049857D01*
X23882695Y-59049854D01*
X23882699Y-59049852D01*
X24037352Y-58895199D01*
X24147491Y-58743603D01*
X24202820Y-58700939D01*
X24272433Y-58694960D01*
X24334229Y-58727565D01*
X24348128Y-58743606D01*
X24374306Y-58779638D01*
X24374307Y-58779638D01*
X25079852Y-58074093D01*
X25103292Y-58161571D01*
X25161811Y-58262930D01*
X25244570Y-58345689D01*
X25345929Y-58404208D01*
X25433405Y-58427647D01*
X24727860Y-59133191D01*
X24789508Y-59177980D01*
X24984308Y-59277237D01*
X24984311Y-59277238D01*
X25192240Y-59344797D01*
X25408184Y-59379000D01*
X25626816Y-59379000D01*
X25842759Y-59344797D01*
X26050688Y-59277238D01*
X26050691Y-59277237D01*
X26245495Y-59177978D01*
X26307138Y-59133191D01*
X26307139Y-59133191D01*
X25601594Y-58427647D01*
X25689071Y-58404208D01*
X25790430Y-58345689D01*
X25873189Y-58262930D01*
X25931708Y-58161571D01*
X25955147Y-58074095D01*
X26660691Y-58779639D01*
X26660691Y-58779638D01*
X26705478Y-58717995D01*
X26804737Y-58523191D01*
X26804738Y-58523188D01*
X26872297Y-58315259D01*
X26906500Y-58099316D01*
X26906500Y-57880683D01*
X26872297Y-57664740D01*
X26804738Y-57456811D01*
X26804737Y-57456808D01*
X26705480Y-57262008D01*
X26660691Y-57200360D01*
X25955147Y-57905904D01*
X25931708Y-57818429D01*
X25873189Y-57717070D01*
X25790430Y-57634311D01*
X25689071Y-57575792D01*
X25601592Y-57552352D01*
X26307138Y-56846807D01*
X26307138Y-56846806D01*
X26281382Y-56828094D01*
X26245495Y-56802021D01*
X26245493Y-56802020D01*
X26050691Y-56702762D01*
X26050688Y-56702761D01*
X25842759Y-56635202D01*
X25626816Y-56601000D01*
X25408184Y-56601000D01*
X25192240Y-56635202D01*
X24984311Y-56702761D01*
X24984308Y-56702762D01*
X24789501Y-56802023D01*
X24727860Y-56846806D01*
X24727860Y-56846807D01*
X25433405Y-57552352D01*
X25345929Y-57575792D01*
X25244570Y-57634311D01*
X25161811Y-57717070D01*
X25103292Y-57818429D01*
X25079852Y-57905905D01*
X24374307Y-57200360D01*
X24374305Y-57200360D01*
X24348126Y-57236394D01*
X24292797Y-57279060D01*
X24223183Y-57285039D01*
X24161388Y-57252434D01*
X24147495Y-57236401D01*
X24037352Y-57084801D01*
X23882699Y-56930148D01*
X23882693Y-56930142D01*
X23705760Y-56801595D01*
X23705759Y-56801594D01*
X23705757Y-56801593D01*
X23608175Y-56751872D01*
X23510883Y-56702298D01*
X23510880Y-56702297D01*
X23302876Y-56634714D01*
X23086861Y-56600500D01*
X23086856Y-56600500D01*
X22868144Y-56600500D01*
X22868139Y-56600500D01*
X22652123Y-56634714D01*
X22444119Y-56702297D01*
X22444116Y-56702298D01*
X22249239Y-56801595D01*
X22072306Y-56930142D01*
X21917642Y-57084806D01*
X21807818Y-57235969D01*
X21752489Y-57278635D01*
X21682875Y-57284614D01*
X21621080Y-57252009D01*
X21607182Y-57235969D01*
X21497357Y-57084806D01*
X21342695Y-56930144D01*
X21260264Y-56870256D01*
X21258494Y-56868970D01*
X21215828Y-56813641D01*
X21209848Y-56744028D01*
X21216814Y-56721208D01*
X21267816Y-56598082D01*
X21300500Y-56433767D01*
X21300500Y-56266233D01*
X21267816Y-56101918D01*
X21209938Y-55962191D01*
X21200500Y-55914739D01*
X21200500Y-55320693D01*
X28002000Y-55320693D01*
X28002000Y-55579306D01*
X28042456Y-55834733D01*
X28042456Y-55834734D01*
X28122374Y-56080695D01*
X28239783Y-56311122D01*
X28319963Y-56421481D01*
X28319964Y-56421482D01*
X29006837Y-55734609D01*
X29025997Y-55780864D01*
X29102439Y-55895268D01*
X29199732Y-55992561D01*
X29314136Y-56069003D01*
X29360390Y-56088161D01*
X28673516Y-56775034D01*
X28673517Y-56775036D01*
X28783877Y-56855216D01*
X29014304Y-56972625D01*
X29260266Y-57052543D01*
X29515694Y-57093000D01*
X29774306Y-57093000D01*
X30029733Y-57052543D01*
X30029734Y-57052543D01*
X30275695Y-56972625D01*
X30506119Y-56855218D01*
X30616481Y-56775034D01*
X30616482Y-56775034D01*
X29929609Y-56088162D01*
X29975864Y-56069003D01*
X30090268Y-55992561D01*
X30187561Y-55895268D01*
X30264003Y-55780864D01*
X30283162Y-55734609D01*
X30970034Y-56421482D01*
X30970034Y-56421481D01*
X31050218Y-56311119D01*
X31167625Y-56080695D01*
X31247543Y-55834734D01*
X31247543Y-55834733D01*
X31288000Y-55579306D01*
X31288000Y-55320693D01*
X31247543Y-55065266D01*
X31247543Y-55065265D01*
X31167625Y-54819304D01*
X31050216Y-54588877D01*
X30970036Y-54478517D01*
X30970034Y-54478516D01*
X30283161Y-55165389D01*
X30264003Y-55119136D01*
X30187561Y-55004732D01*
X30090268Y-54907439D01*
X29975864Y-54830997D01*
X29929608Y-54811837D01*
X30540287Y-54201160D01*
X30616482Y-54124964D01*
X30616481Y-54124963D01*
X30506122Y-54044783D01*
X30275695Y-53927374D01*
X30029733Y-53847456D01*
X29774306Y-53807000D01*
X29515694Y-53807000D01*
X29260266Y-53847456D01*
X29260265Y-53847456D01*
X29014304Y-53927374D01*
X28783884Y-54044779D01*
X28673517Y-54124964D01*
X28673517Y-54124965D01*
X29360390Y-54811837D01*
X29314136Y-54830997D01*
X29199732Y-54907439D01*
X29102439Y-55004732D01*
X29025997Y-55119136D01*
X29006837Y-55165390D01*
X28319965Y-54478517D01*
X28319964Y-54478517D01*
X28239779Y-54588884D01*
X28122374Y-54819304D01*
X28042456Y-55065265D01*
X28042456Y-55065266D01*
X28002000Y-55320693D01*
X21200500Y-55320693D01*
X21200500Y-54331118D01*
X21201484Y-54325630D01*
X21200799Y-54322507D01*
X21206046Y-54300205D01*
X21208236Y-54288005D01*
X21209043Y-54285828D01*
X21257816Y-54168082D01*
X21290500Y-54003767D01*
X21290500Y-53836233D01*
X21257816Y-53671918D01*
X21193703Y-53517137D01*
X21162537Y-53470494D01*
X21100626Y-53377837D01*
X20982162Y-53259373D01*
X20842860Y-53166295D01*
X20688082Y-53102184D01*
X20688074Y-53102182D01*
X20523771Y-53069500D01*
X20523767Y-53069500D01*
X20356233Y-53069500D01*
X20356228Y-53069500D01*
X20191925Y-53102182D01*
X20191917Y-53102184D01*
X20037139Y-53166295D01*
X19897837Y-53259373D01*
X19779373Y-53377837D01*
X19686295Y-53517139D01*
X19622184Y-53671917D01*
X19622182Y-53671925D01*
X19589500Y-53836228D01*
X19589500Y-54003771D01*
X19622182Y-54168074D01*
X19622184Y-54168082D01*
X19688628Y-54328492D01*
X19687097Y-54329125D01*
X19699500Y-54378625D01*
X19699500Y-55914739D01*
X19690061Y-55962192D01*
X19632184Y-56101917D01*
X19632182Y-56101925D01*
X19599500Y-56266228D01*
X19599500Y-56433771D01*
X19632182Y-56598074D01*
X19632184Y-56598082D01*
X19677398Y-56707237D01*
X19684867Y-56776706D01*
X19653592Y-56839186D01*
X19635722Y-56855008D01*
X19532306Y-56930142D01*
X19377642Y-57084806D01*
X19249095Y-57261739D01*
X19149798Y-57456616D01*
X19149797Y-57456619D01*
X19082214Y-57664623D01*
X19048000Y-57880638D01*
X14840500Y-57880638D01*
X14840500Y-56544255D01*
X14860185Y-56477216D01*
X14912989Y-56431461D01*
X14974229Y-56420637D01*
X14984965Y-56421481D01*
X15671837Y-55734609D01*
X15690997Y-55780864D01*
X15767439Y-55895268D01*
X15864732Y-55992561D01*
X15979136Y-56069003D01*
X16025390Y-56088161D01*
X15338516Y-56775034D01*
X15338517Y-56775036D01*
X15448877Y-56855216D01*
X15679304Y-56972625D01*
X15925266Y-57052543D01*
X16180694Y-57093000D01*
X16439306Y-57093000D01*
X16694733Y-57052543D01*
X16694734Y-57052543D01*
X16940695Y-56972625D01*
X17171119Y-56855218D01*
X17281481Y-56775034D01*
X17281482Y-56775034D01*
X16594609Y-56088162D01*
X16640864Y-56069003D01*
X16755268Y-55992561D01*
X16852561Y-55895268D01*
X16929003Y-55780864D01*
X16948161Y-55734609D01*
X17635034Y-56421482D01*
X17635034Y-56421481D01*
X17715218Y-56311119D01*
X17832625Y-56080695D01*
X17912543Y-55834734D01*
X17912543Y-55834733D01*
X17953000Y-55579306D01*
X17953000Y-55320693D01*
X17912543Y-55065266D01*
X17912543Y-55065265D01*
X17832625Y-54819304D01*
X17715216Y-54588877D01*
X17635036Y-54478517D01*
X17635034Y-54478516D01*
X16948161Y-55165389D01*
X16929003Y-55119136D01*
X16852561Y-55004732D01*
X16755268Y-54907439D01*
X16640864Y-54830997D01*
X16594608Y-54811837D01*
X17281482Y-54124964D01*
X17281481Y-54124963D01*
X17171122Y-54044783D01*
X16940695Y-53927374D01*
X16694733Y-53847456D01*
X16439306Y-53807000D01*
X16180694Y-53807000D01*
X15925266Y-53847456D01*
X15925265Y-53847456D01*
X15679304Y-53927374D01*
X15448884Y-54044779D01*
X15338517Y-54124964D01*
X15338517Y-54124965D01*
X16025390Y-54811837D01*
X15979136Y-54830997D01*
X15864732Y-54907439D01*
X15767439Y-55004732D01*
X15690997Y-55119136D01*
X15671837Y-55165390D01*
X14984964Y-54478517D01*
X14974229Y-54479362D01*
X14960618Y-54476502D01*
X14946853Y-54478482D01*
X14927101Y-54469461D01*
X14905852Y-54464998D01*
X14895948Y-54455234D01*
X14883297Y-54449457D01*
X14871556Y-54431188D01*
X14856095Y-54415946D01*
X14852268Y-54401175D01*
X14845523Y-54390679D01*
X14840500Y-54355744D01*
X14840500Y-50346228D01*
X27809500Y-50346228D01*
X27809500Y-50513771D01*
X27842182Y-50678074D01*
X27842184Y-50678082D01*
X27906295Y-50832860D01*
X27999373Y-50972162D01*
X28117837Y-51090626D01*
X28188464Y-51137817D01*
X28257137Y-51183703D01*
X28411918Y-51247816D01*
X28549553Y-51275193D01*
X28576228Y-51280499D01*
X28576232Y-51280500D01*
X28576233Y-51280500D01*
X28743768Y-51280500D01*
X28743769Y-51280499D01*
X28908082Y-51247816D01*
X29047808Y-51189938D01*
X29095261Y-51180500D01*
X30773919Y-51180500D01*
X30812210Y-51172883D01*
X30836403Y-51170500D01*
X30893768Y-51170500D01*
X30893769Y-51170499D01*
X31058082Y-51137816D01*
X31212863Y-51073703D01*
X31352162Y-50980626D01*
X31470626Y-50862162D01*
X31563703Y-50722863D01*
X31563705Y-50722857D01*
X31566578Y-50717485D01*
X31568371Y-50718443D01*
X31606366Y-50671284D01*
X31672658Y-50649212D01*
X31740359Y-50666484D01*
X31787975Y-50717617D01*
X31795028Y-50734815D01*
X31849797Y-50903380D01*
X31849798Y-50903383D01*
X31917282Y-51035825D01*
X31946807Y-51093771D01*
X31949095Y-51098260D01*
X32077642Y-51275193D01*
X32232306Y-51429857D01*
X32337724Y-51506446D01*
X32409243Y-51558407D01*
X32536632Y-51623315D01*
X32604116Y-51657701D01*
X32604119Y-51657702D01*
X32708121Y-51691493D01*
X32812125Y-51725286D01*
X32912172Y-51741132D01*
X33028139Y-51759500D01*
X33028144Y-51759500D01*
X33246861Y-51759500D01*
X33351582Y-51742912D01*
X33462875Y-51725286D01*
X33670883Y-51657701D01*
X33865757Y-51558407D01*
X34015159Y-51449861D01*
X34042693Y-51429857D01*
X34042695Y-51429854D01*
X34042699Y-51429852D01*
X34197352Y-51275199D01*
X34197354Y-51275195D01*
X34197357Y-51275193D01*
X34259297Y-51189939D01*
X34325907Y-51098257D01*
X34425201Y-50903383D01*
X34492786Y-50695375D01*
X34520748Y-50518832D01*
X34527000Y-50479361D01*
X34527000Y-50260638D01*
X34507095Y-50134971D01*
X34492786Y-50044625D01*
X34451363Y-49917137D01*
X34425202Y-49836619D01*
X34425201Y-49836616D01*
X34345145Y-49679500D01*
X34325907Y-49641743D01*
X34304430Y-49612182D01*
X34197357Y-49464806D01*
X34042699Y-49310148D01*
X34042691Y-49310142D01*
X33891528Y-49200316D01*
X33848864Y-49144989D01*
X33842885Y-49075376D01*
X33875490Y-49013580D01*
X33891523Y-48999686D01*
X34042699Y-48889852D01*
X34197352Y-48735199D01*
X34197354Y-48735195D01*
X34197357Y-48735193D01*
X34275354Y-48627838D01*
X34325907Y-48558257D01*
X34425201Y-48363383D01*
X34492786Y-48155375D01*
X34512397Y-48031557D01*
X34527000Y-47939361D01*
X34527000Y-47720638D01*
X34502544Y-47566233D01*
X34492786Y-47504625D01*
X34431700Y-47316619D01*
X34425202Y-47296619D01*
X34425201Y-47296616D01*
X34390815Y-47229132D01*
X34325907Y-47101743D01*
X34251624Y-46999500D01*
X34197357Y-46924806D01*
X34042697Y-46770146D01*
X34042692Y-46770142D01*
X33891105Y-46660008D01*
X33848439Y-46604678D01*
X33842460Y-46535065D01*
X33875065Y-46473270D01*
X33891105Y-46459372D01*
X33927138Y-46433191D01*
X33927139Y-46433191D01*
X33221594Y-45727647D01*
X33309071Y-45704208D01*
X33410430Y-45645689D01*
X33493189Y-45562930D01*
X33551708Y-45461571D01*
X33575147Y-45374094D01*
X34280691Y-46079639D01*
X34280691Y-46079638D01*
X34325478Y-46017995D01*
X34424737Y-45823191D01*
X34424738Y-45823188D01*
X34492297Y-45615259D01*
X34526500Y-45399316D01*
X34526500Y-45180683D01*
X34492297Y-44964740D01*
X34424738Y-44756811D01*
X34424737Y-44756808D01*
X34325480Y-44562008D01*
X34280691Y-44500360D01*
X33575147Y-45205904D01*
X33551708Y-45118429D01*
X33493189Y-45017070D01*
X33410430Y-44934311D01*
X33309071Y-44875792D01*
X33221592Y-44852352D01*
X33927138Y-44146807D01*
X33927138Y-44146806D01*
X33865495Y-44102021D01*
X33865493Y-44102020D01*
X33670691Y-44002762D01*
X33670688Y-44002761D01*
X33462759Y-43935202D01*
X33246816Y-43901000D01*
X33028184Y-43901000D01*
X32812240Y-43935202D01*
X32604311Y-44002761D01*
X32604308Y-44002762D01*
X32409501Y-44102023D01*
X32347860Y-44146806D01*
X32347860Y-44146807D01*
X33053405Y-44852352D01*
X32965929Y-44875792D01*
X32864570Y-44934311D01*
X32781811Y-45017070D01*
X32723292Y-45118429D01*
X32699852Y-45205905D01*
X31994307Y-44500360D01*
X31994306Y-44500360D01*
X31949523Y-44562001D01*
X31850262Y-44756808D01*
X31850261Y-44756811D01*
X31782702Y-44964740D01*
X31748500Y-45180683D01*
X31748500Y-45399316D01*
X31782702Y-45615259D01*
X31850261Y-45823188D01*
X31850262Y-45823191D01*
X31949520Y-46017993D01*
X31949521Y-46017995D01*
X31994306Y-46079638D01*
X31994307Y-46079638D01*
X32699852Y-45374093D01*
X32723292Y-45461571D01*
X32781811Y-45562930D01*
X32864570Y-45645689D01*
X32965929Y-45704208D01*
X33053405Y-45727647D01*
X32347860Y-46433191D01*
X32347860Y-46433192D01*
X32383894Y-46459372D01*
X32426560Y-46514701D01*
X32432539Y-46584315D01*
X32399934Y-46646110D01*
X32383894Y-46660008D01*
X32232307Y-46770142D01*
X32232302Y-46770146D01*
X32077642Y-46924806D01*
X31949095Y-47101739D01*
X31849798Y-47296616D01*
X31849797Y-47296619D01*
X31782214Y-47504623D01*
X31748000Y-47720638D01*
X31748000Y-47939361D01*
X31782214Y-48155376D01*
X31849797Y-48363380D01*
X31849798Y-48363381D01*
X31849799Y-48363383D01*
X31924242Y-48509485D01*
X31949095Y-48558260D01*
X32077642Y-48735193D01*
X32232306Y-48889857D01*
X32383469Y-48999682D01*
X32426135Y-49055011D01*
X32432114Y-49124625D01*
X32399509Y-49186420D01*
X32383469Y-49200318D01*
X32232306Y-49310142D01*
X32077642Y-49464806D01*
X31949095Y-49641739D01*
X31849798Y-49836616D01*
X31849797Y-49836619D01*
X31813236Y-49949144D01*
X31773798Y-50006820D01*
X31709440Y-50034018D01*
X31640593Y-50022103D01*
X31589118Y-49974859D01*
X31580748Y-49958286D01*
X31563703Y-49917137D01*
X31511102Y-49838414D01*
X31470626Y-49777837D01*
X31352162Y-49659373D01*
X31212860Y-49566295D01*
X31058082Y-49502184D01*
X31058074Y-49502182D01*
X30893771Y-49469500D01*
X30893767Y-49469500D01*
X30726233Y-49469500D01*
X30726228Y-49469500D01*
X30561925Y-49502182D01*
X30561917Y-49502184D01*
X30407139Y-49566295D01*
X30268993Y-49658602D01*
X30202315Y-49679480D01*
X30200102Y-49679500D01*
X29095261Y-49679500D01*
X29047808Y-49670061D01*
X28908082Y-49612184D01*
X28908074Y-49612182D01*
X28743771Y-49579500D01*
X28743767Y-49579500D01*
X28576233Y-49579500D01*
X28576228Y-49579500D01*
X28411925Y-49612182D01*
X28411917Y-49612184D01*
X28257139Y-49676295D01*
X28117837Y-49769373D01*
X27999373Y-49887837D01*
X27906295Y-50027139D01*
X27842184Y-50181917D01*
X27842182Y-50181925D01*
X27809500Y-50346228D01*
X14840500Y-50346228D01*
X14840500Y-41304255D01*
X14860185Y-41237216D01*
X14912989Y-41191461D01*
X14974229Y-41180637D01*
X14984965Y-41181481D01*
X15671837Y-40494609D01*
X15690997Y-40540864D01*
X15767439Y-40655268D01*
X15864732Y-40752561D01*
X15979136Y-40829003D01*
X16025390Y-40848161D01*
X15338516Y-41535034D01*
X15338517Y-41535036D01*
X15448877Y-41615216D01*
X15679304Y-41732625D01*
X15925266Y-41812543D01*
X16180694Y-41853000D01*
X16439306Y-41853000D01*
X16694733Y-41812543D01*
X16694734Y-41812543D01*
X16940695Y-41732625D01*
X17171119Y-41615218D01*
X17281481Y-41535034D01*
X17281482Y-41535034D01*
X16594609Y-40848162D01*
X16640864Y-40829003D01*
X16755268Y-40752561D01*
X16852561Y-40655268D01*
X16929003Y-40540864D01*
X16948161Y-40494609D01*
X17635034Y-41181482D01*
X17635034Y-41181481D01*
X17715218Y-41071119D01*
X17832625Y-40840695D01*
X17912543Y-40594734D01*
X17912543Y-40594733D01*
X17953000Y-40339306D01*
X17953000Y-40080693D01*
X28002000Y-40080693D01*
X28002000Y-40339306D01*
X28042456Y-40594733D01*
X28042456Y-40594734D01*
X28122374Y-40840695D01*
X28239783Y-41071122D01*
X28319963Y-41181481D01*
X28319964Y-41181482D01*
X29006837Y-40494609D01*
X29025997Y-40540864D01*
X29102439Y-40655268D01*
X29199732Y-40752561D01*
X29314136Y-40829003D01*
X29360390Y-40848161D01*
X28673516Y-41535034D01*
X28673517Y-41535036D01*
X28783877Y-41615216D01*
X29014304Y-41732625D01*
X29260266Y-41812543D01*
X29515694Y-41853000D01*
X29774306Y-41853000D01*
X30029733Y-41812543D01*
X30029734Y-41812543D01*
X30275695Y-41732625D01*
X30506119Y-41615218D01*
X30616481Y-41535034D01*
X30616482Y-41535034D01*
X29929609Y-40848162D01*
X29975864Y-40829003D01*
X30090268Y-40752561D01*
X30187561Y-40655268D01*
X30264003Y-40540864D01*
X30283162Y-40494609D01*
X30970034Y-41181482D01*
X30970034Y-41181481D01*
X31050218Y-41071119D01*
X31167625Y-40840695D01*
X31247543Y-40594734D01*
X31247543Y-40594733D01*
X31288000Y-40339306D01*
X31288000Y-40080693D01*
X31247543Y-39825266D01*
X31247543Y-39825265D01*
X31167625Y-39579304D01*
X31050216Y-39348877D01*
X30970036Y-39238517D01*
X30970034Y-39238516D01*
X30283161Y-39925389D01*
X30264003Y-39879136D01*
X30187561Y-39764732D01*
X30090268Y-39667439D01*
X29975864Y-39590997D01*
X29929608Y-39571837D01*
X30616482Y-38884964D01*
X30616481Y-38884963D01*
X30506122Y-38804783D01*
X30275695Y-38687374D01*
X30029733Y-38607456D01*
X29774306Y-38567000D01*
X29515694Y-38567000D01*
X29260266Y-38607456D01*
X29260265Y-38607456D01*
X29014304Y-38687374D01*
X28783884Y-38804779D01*
X28673517Y-38884964D01*
X28673517Y-38884965D01*
X29360390Y-39571837D01*
X29314136Y-39590997D01*
X29199732Y-39667439D01*
X29102439Y-39764732D01*
X29025997Y-39879136D01*
X29006837Y-39925390D01*
X28319965Y-39238517D01*
X28319964Y-39238517D01*
X28239779Y-39348884D01*
X28122374Y-39579304D01*
X28042456Y-39825265D01*
X28042456Y-39825266D01*
X28002000Y-40080693D01*
X17953000Y-40080693D01*
X17912543Y-39825266D01*
X17912543Y-39825265D01*
X17832625Y-39579304D01*
X17715216Y-39348877D01*
X17635036Y-39238517D01*
X17635034Y-39238516D01*
X16948161Y-39925389D01*
X16929003Y-39879136D01*
X16852561Y-39764732D01*
X16755268Y-39667439D01*
X16640864Y-39590997D01*
X16594608Y-39571837D01*
X17281482Y-38884964D01*
X17281481Y-38884963D01*
X17171122Y-38804783D01*
X16940695Y-38687374D01*
X16694733Y-38607456D01*
X16439306Y-38567000D01*
X16180694Y-38567000D01*
X15925266Y-38607456D01*
X15925265Y-38607456D01*
X15679304Y-38687374D01*
X15448884Y-38804779D01*
X15338517Y-38884964D01*
X15338517Y-38884965D01*
X16025390Y-39571837D01*
X15979136Y-39590997D01*
X15864732Y-39667439D01*
X15767439Y-39764732D01*
X15690997Y-39879136D01*
X15671837Y-39925390D01*
X14984964Y-39238517D01*
X14974229Y-39239362D01*
X14960618Y-39236502D01*
X14946853Y-39238482D01*
X14927101Y-39229461D01*
X14905852Y-39224998D01*
X14895948Y-39215234D01*
X14883297Y-39209457D01*
X14871556Y-39191188D01*
X14856095Y-39175946D01*
X14852268Y-39161175D01*
X14845523Y-39150679D01*
X14840500Y-39115744D01*
X14840500Y-35722135D01*
X43729500Y-35722135D01*
X43729500Y-37517870D01*
X43729501Y-37517876D01*
X43735908Y-37577483D01*
X43786202Y-37712328D01*
X43786206Y-37712335D01*
X43872452Y-37827544D01*
X43872455Y-37827547D01*
X43987664Y-37913793D01*
X43987671Y-37913797D01*
X44119082Y-37962810D01*
X44175016Y-38004681D01*
X44199433Y-38070145D01*
X44184582Y-38138418D01*
X44163431Y-38166673D01*
X44049889Y-38280215D01*
X43924951Y-38452179D01*
X43828444Y-38641585D01*
X43762753Y-38843760D01*
X43746883Y-38943959D01*
X43729500Y-39053713D01*
X43729500Y-39266287D01*
X43734006Y-39294739D01*
X43761303Y-39467087D01*
X43762754Y-39476243D01*
X43827804Y-39676446D01*
X43828444Y-39678414D01*
X43924951Y-39867820D01*
X44049890Y-40039786D01*
X44200213Y-40190109D01*
X44372182Y-40315050D01*
X44380946Y-40319516D01*
X44431742Y-40367491D01*
X44448536Y-40435312D01*
X44425998Y-40501447D01*
X44380946Y-40540484D01*
X44372182Y-40544949D01*
X44200213Y-40669890D01*
X44049890Y-40820213D01*
X43924951Y-40992179D01*
X43828444Y-41181585D01*
X43762753Y-41383760D01*
X43738615Y-41536163D01*
X43729500Y-41593713D01*
X43729500Y-41806287D01*
X43734224Y-41836113D01*
X43757359Y-41982184D01*
X43762754Y-42016243D01*
X43802998Y-42140102D01*
X43828444Y-42218414D01*
X43924951Y-42407820D01*
X44049890Y-42579786D01*
X44200213Y-42730109D01*
X44372182Y-42855050D01*
X44380946Y-42859516D01*
X44431742Y-42907491D01*
X44448536Y-42975312D01*
X44425998Y-43041447D01*
X44380946Y-43080484D01*
X44372182Y-43084949D01*
X44200213Y-43209890D01*
X44049890Y-43360213D01*
X43924951Y-43532179D01*
X43828444Y-43721585D01*
X43762753Y-43923760D01*
X43729500Y-44133713D01*
X43729500Y-44346286D01*
X43757070Y-44520360D01*
X43762754Y-44556243D01*
X43771123Y-44582001D01*
X43828444Y-44758414D01*
X43924951Y-44947820D01*
X44049890Y-45119786D01*
X44200213Y-45270109D01*
X44372182Y-45395050D01*
X44380946Y-45399516D01*
X44431742Y-45447491D01*
X44448536Y-45515312D01*
X44425998Y-45581447D01*
X44380946Y-45620484D01*
X44372182Y-45624949D01*
X44200213Y-45749890D01*
X44049890Y-45900213D01*
X43924951Y-46072179D01*
X43828444Y-46261585D01*
X43828443Y-46261587D01*
X43828443Y-46261588D01*
X43795598Y-46362672D01*
X43762753Y-46463760D01*
X43731671Y-46660008D01*
X43729500Y-46673713D01*
X43729500Y-46886287D01*
X43762754Y-47096243D01*
X43827860Y-47296619D01*
X43828444Y-47298414D01*
X43924951Y-47487820D01*
X44049890Y-47659786D01*
X44200213Y-47810109D01*
X44372182Y-47935050D01*
X44380946Y-47939516D01*
X44431742Y-47987491D01*
X44448536Y-48055312D01*
X44425998Y-48121447D01*
X44380946Y-48160484D01*
X44372182Y-48164949D01*
X44200213Y-48289890D01*
X44049890Y-48440213D01*
X43924951Y-48612179D01*
X43828444Y-48801585D01*
X43762753Y-49003760D01*
X43729500Y-49213713D01*
X43729500Y-49426286D01*
X43753474Y-49577656D01*
X43762754Y-49636243D01*
X43827860Y-49836619D01*
X43828444Y-49838414D01*
X43924951Y-50027820D01*
X44049890Y-50199786D01*
X44200213Y-50350109D01*
X44372179Y-50475048D01*
X44372181Y-50475049D01*
X44372184Y-50475051D01*
X44381493Y-50479794D01*
X44432290Y-50527766D01*
X44449087Y-50595587D01*
X44426552Y-50661722D01*
X44381505Y-50700760D01*
X44372446Y-50705376D01*
X44372440Y-50705380D01*
X44318282Y-50744727D01*
X44318282Y-50744728D01*
X44950591Y-51377037D01*
X44887007Y-51394075D01*
X44772993Y-51459901D01*
X44679901Y-51552993D01*
X44614075Y-51667007D01*
X44597037Y-51730591D01*
X43964728Y-51098282D01*
X43964727Y-51098282D01*
X43925380Y-51152439D01*
X43828904Y-51341782D01*
X43763242Y-51543869D01*
X43763242Y-51543872D01*
X43730000Y-51753753D01*
X43730000Y-51966246D01*
X43763242Y-52176127D01*
X43763242Y-52176130D01*
X43828904Y-52378217D01*
X43925375Y-52567550D01*
X43964728Y-52621716D01*
X44597037Y-51989408D01*
X44614075Y-52052993D01*
X44679901Y-52167007D01*
X44772993Y-52260099D01*
X44887007Y-52325925D01*
X44950590Y-52342962D01*
X44318282Y-52975269D01*
X44318282Y-52975270D01*
X44372452Y-53014626D01*
X44372451Y-53014626D01*
X44381495Y-53019234D01*
X44432292Y-53067208D01*
X44449087Y-53135029D01*
X44426550Y-53201164D01*
X44381499Y-53240202D01*
X44372182Y-53244949D01*
X44200213Y-53369890D01*
X44049890Y-53520213D01*
X43924951Y-53692179D01*
X43828444Y-53881585D01*
X43762753Y-54083760D01*
X43743556Y-54204965D01*
X43729500Y-54293713D01*
X43729500Y-54506287D01*
X43762754Y-54716243D01*
X43825171Y-54908343D01*
X43828444Y-54918414D01*
X43924951Y-55107820D01*
X44049890Y-55279786D01*
X44049896Y-55279792D01*
X44200208Y-55430104D01*
X44278384Y-55486902D01*
X44321051Y-55542231D01*
X44329500Y-55587220D01*
X44329500Y-61774739D01*
X44320061Y-61822192D01*
X44262184Y-61961917D01*
X44262182Y-61961925D01*
X44229500Y-62126228D01*
X44229500Y-62293771D01*
X44262182Y-62458074D01*
X44262184Y-62458082D01*
X44326295Y-62612860D01*
X44419373Y-62752162D01*
X44537837Y-62870626D01*
X44593528Y-62907837D01*
X44677137Y-62963703D01*
X44677138Y-62963703D01*
X44677139Y-62963704D01*
X44693546Y-62970500D01*
X44831918Y-63027816D01*
X44996228Y-63060499D01*
X44996232Y-63060500D01*
X44996233Y-63060500D01*
X45163768Y-63060500D01*
X45163769Y-63060499D01*
X45328082Y-63027816D01*
X45482863Y-62963703D01*
X45622162Y-62870626D01*
X45740626Y-62752162D01*
X45833703Y-62612863D01*
X45897816Y-62458082D01*
X45930500Y-62293767D01*
X45930500Y-62126233D01*
X45930499Y-62126228D01*
X46899500Y-62126228D01*
X46899500Y-62293771D01*
X46932182Y-62458074D01*
X46932184Y-62458082D01*
X46996295Y-62612860D01*
X47089373Y-62752162D01*
X47207837Y-62870626D01*
X47263528Y-62907837D01*
X47347137Y-62963703D01*
X47347138Y-62963703D01*
X47347139Y-62963704D01*
X47363546Y-62970500D01*
X47501918Y-63027816D01*
X47666228Y-63060499D01*
X47666232Y-63060500D01*
X47666233Y-63060500D01*
X47833768Y-63060500D01*
X47833769Y-63060499D01*
X47998082Y-63027816D01*
X48152863Y-62963703D01*
X48292162Y-62870626D01*
X48410626Y-62752162D01*
X48481898Y-62645495D01*
X48535510Y-62600691D01*
X48604835Y-62591984D01*
X48667862Y-62622138D01*
X48688102Y-62645496D01*
X48759373Y-62752162D01*
X48877837Y-62870626D01*
X48933528Y-62907837D01*
X49017137Y-62963703D01*
X49017138Y-62963703D01*
X49017139Y-62963704D01*
X49033546Y-62970500D01*
X49171918Y-63027816D01*
X49336228Y-63060499D01*
X49336232Y-63060500D01*
X49336233Y-63060500D01*
X49503768Y-63060500D01*
X49503769Y-63060499D01*
X49668082Y-63027816D01*
X49822863Y-62963703D01*
X49962162Y-62870626D01*
X50080626Y-62752162D01*
X50173703Y-62612863D01*
X50237816Y-62458082D01*
X50270500Y-62293767D01*
X50270500Y-62126233D01*
X50237816Y-61961918D01*
X50179938Y-61822191D01*
X50170500Y-61774739D01*
X50170500Y-57474931D01*
X50190185Y-57407892D01*
X50191398Y-57406040D01*
X50207951Y-57381267D01*
X50273703Y-57282863D01*
X50337816Y-57128082D01*
X50370500Y-56963767D01*
X50370500Y-56856228D01*
X53629500Y-56856228D01*
X53629500Y-57023771D01*
X53662182Y-57188074D01*
X53662184Y-57188082D01*
X53726295Y-57342860D01*
X53819373Y-57482161D01*
X53821354Y-57484575D01*
X53821995Y-57486086D01*
X53822758Y-57487227D01*
X53822541Y-57487371D01*
X53848666Y-57548885D01*
X53849500Y-57563239D01*
X53849500Y-60585068D01*
X53829815Y-60652107D01*
X53828602Y-60653959D01*
X53746295Y-60777139D01*
X53682184Y-60931917D01*
X53682182Y-60931925D01*
X53649500Y-61096228D01*
X53649500Y-61263771D01*
X53682182Y-61428074D01*
X53682184Y-61428082D01*
X53746295Y-61582860D01*
X53839373Y-61722162D01*
X53957837Y-61840626D01*
X54027446Y-61887137D01*
X54097137Y-61933703D01*
X54251918Y-61997816D01*
X54416228Y-62030499D01*
X54416232Y-62030500D01*
X54416233Y-62030500D01*
X54583768Y-62030500D01*
X54583769Y-62030499D01*
X54748082Y-61997816D01*
X54902863Y-61933703D01*
X55042162Y-61840626D01*
X55160626Y-61722162D01*
X55244773Y-61596228D01*
X84769500Y-61596228D01*
X84769500Y-61763771D01*
X84802182Y-61928074D01*
X84802184Y-61928082D01*
X84866295Y-62082860D01*
X84959373Y-62222162D01*
X85077837Y-62340626D01*
X85139643Y-62381923D01*
X85217137Y-62433703D01*
X85371918Y-62497816D01*
X85536228Y-62530499D01*
X85536232Y-62530500D01*
X85536233Y-62530500D01*
X85703768Y-62530500D01*
X85703768Y-62530499D01*
X85819581Y-62507463D01*
X85889172Y-62513690D01*
X85931453Y-62541399D01*
X86215325Y-62825272D01*
X86215326Y-62825273D01*
X86215329Y-62825275D01*
X86215331Y-62825277D01*
X86321873Y-62896465D01*
X86440256Y-62945501D01*
X86440260Y-62945501D01*
X86440261Y-62945502D01*
X86565928Y-62970500D01*
X86565931Y-62970500D01*
X88695068Y-62970500D01*
X88762107Y-62990185D01*
X88763959Y-62991398D01*
X88887137Y-63073703D01*
X89041918Y-63137816D01*
X89206228Y-63170499D01*
X89206232Y-63170500D01*
X89206233Y-63170500D01*
X89373768Y-63170500D01*
X89373769Y-63170499D01*
X89538082Y-63137816D01*
X89692863Y-63073703D01*
X89832162Y-62980626D01*
X89950626Y-62862162D01*
X90043703Y-62722863D01*
X90107816Y-62568082D01*
X90140500Y-62403767D01*
X90140500Y-62236233D01*
X90107816Y-62071918D01*
X90043703Y-61917137D01*
X90012537Y-61870494D01*
X89950626Y-61777837D01*
X89832162Y-61659373D01*
X89692860Y-61566295D01*
X89538082Y-61502184D01*
X89538074Y-61502182D01*
X89373771Y-61469500D01*
X89373767Y-61469500D01*
X89206233Y-61469500D01*
X89206228Y-61469500D01*
X89041925Y-61502182D01*
X89041917Y-61502184D01*
X88887139Y-61566295D01*
X88763959Y-61648602D01*
X88697281Y-61669480D01*
X88695068Y-61669500D01*
X86950808Y-61669500D01*
X86883769Y-61649815D01*
X86863127Y-61633181D01*
X86404674Y-61174727D01*
X86404673Y-61174726D01*
X86404669Y-61174723D01*
X86298127Y-61103535D01*
X86298125Y-61103534D01*
X86298122Y-61103532D01*
X86232477Y-61076340D01*
X86192250Y-61049461D01*
X86162162Y-61019373D01*
X86022860Y-60926295D01*
X85868082Y-60862184D01*
X85868074Y-60862182D01*
X85703771Y-60829500D01*
X85703767Y-60829500D01*
X85536233Y-60829500D01*
X85536228Y-60829500D01*
X85371925Y-60862182D01*
X85371917Y-60862184D01*
X85217139Y-60926295D01*
X85077837Y-61019373D01*
X84959373Y-61137837D01*
X84866295Y-61277139D01*
X84802184Y-61431917D01*
X84802182Y-61431925D01*
X84769500Y-61596228D01*
X55244773Y-61596228D01*
X55253703Y-61582863D01*
X55317816Y-61428082D01*
X55350500Y-61263767D01*
X55350500Y-61096233D01*
X55317816Y-60931918D01*
X55253703Y-60777137D01*
X55171398Y-60653959D01*
X55150520Y-60587281D01*
X55150500Y-60585068D01*
X55150500Y-58456228D01*
X55399500Y-58456228D01*
X55399500Y-58623771D01*
X55432182Y-58788074D01*
X55432184Y-58788082D01*
X55496295Y-58942860D01*
X55589373Y-59082162D01*
X55707837Y-59200626D01*
X55778494Y-59247837D01*
X55847137Y-59293703D01*
X55847138Y-59293703D01*
X55847139Y-59293704D01*
X55855671Y-59297238D01*
X56001918Y-59357816D01*
X56110932Y-59379500D01*
X56166228Y-59390499D01*
X56166232Y-59390500D01*
X56166233Y-59390500D01*
X56333768Y-59390500D01*
X56333769Y-59390499D01*
X56498082Y-59357816D01*
X56652863Y-59293703D01*
X56792162Y-59200626D01*
X56910626Y-59082162D01*
X57003703Y-58942863D01*
X57067816Y-58788082D01*
X57100500Y-58623767D01*
X57100500Y-58456233D01*
X57067816Y-58291918D01*
X57003703Y-58137137D01*
X57003701Y-58137134D01*
X57003699Y-58137130D01*
X56951398Y-58058856D01*
X56945747Y-58040809D01*
X56935523Y-58024900D01*
X56931071Y-57993938D01*
X56930520Y-57992178D01*
X56930500Y-57989965D01*
X56930500Y-57781153D01*
X74599500Y-57781153D01*
X74599500Y-57938846D01*
X74630261Y-58093489D01*
X74630264Y-58093501D01*
X74690602Y-58239172D01*
X74690609Y-58239185D01*
X74778210Y-58370288D01*
X74778213Y-58370292D01*
X74889707Y-58481786D01*
X74889711Y-58481789D01*
X75020814Y-58569390D01*
X75020827Y-58569397D01*
X75108230Y-58605599D01*
X75166503Y-58629737D01*
X75208614Y-58638113D01*
X75270523Y-58670497D01*
X75272103Y-58672049D01*
X75842984Y-59242930D01*
X75876469Y-59304253D01*
X75876920Y-59306420D01*
X75890261Y-59373489D01*
X75890264Y-59373501D01*
X75950602Y-59519172D01*
X75950609Y-59519185D01*
X76038210Y-59650288D01*
X76038213Y-59650292D01*
X76149707Y-59761786D01*
X76149711Y-59761789D01*
X76280814Y-59849390D01*
X76280827Y-59849397D01*
X76426498Y-59909735D01*
X76426503Y-59909737D01*
X76581153Y-59940499D01*
X76581156Y-59940500D01*
X76581158Y-59940500D01*
X76738844Y-59940500D01*
X76738845Y-59940499D01*
X76893497Y-59909737D01*
X77039179Y-59849394D01*
X77170289Y-59761789D01*
X77281789Y-59650289D01*
X77369394Y-59519179D01*
X77429737Y-59373497D01*
X77460500Y-59218842D01*
X77460500Y-59061158D01*
X77460500Y-59061155D01*
X77447716Y-58996888D01*
X77453943Y-58927296D01*
X77496806Y-58872119D01*
X77562695Y-58848874D01*
X77593521Y-58851078D01*
X77645753Y-58861468D01*
X77691156Y-58870500D01*
X77691158Y-58870500D01*
X77848844Y-58870500D01*
X77848845Y-58870499D01*
X78003497Y-58839737D01*
X78128204Y-58788082D01*
X78149172Y-58779397D01*
X78149172Y-58779396D01*
X78149179Y-58779394D01*
X78280289Y-58691789D01*
X78391789Y-58580289D01*
X78479394Y-58449179D01*
X78486154Y-58432860D01*
X78520648Y-58349582D01*
X78539737Y-58303497D01*
X78570500Y-58148842D01*
X78570500Y-57991158D01*
X78565164Y-57964331D01*
X78565164Y-57964328D01*
X78561564Y-57946228D01*
X84619500Y-57946228D01*
X84619500Y-58113771D01*
X84652182Y-58278074D01*
X84652184Y-58278082D01*
X84716295Y-58432860D01*
X84809373Y-58572162D01*
X84927836Y-58690625D01*
X84941914Y-58700031D01*
X84986721Y-58753643D01*
X84995430Y-58822967D01*
X84987588Y-58850586D01*
X84962184Y-58911918D01*
X84962182Y-58911925D01*
X84929500Y-59076228D01*
X84929500Y-59243771D01*
X84962182Y-59408074D01*
X84962184Y-59408082D01*
X85026295Y-59562860D01*
X85119373Y-59702162D01*
X85237837Y-59820626D01*
X85317369Y-59873767D01*
X85377137Y-59913703D01*
X85531918Y-59977816D01*
X85646593Y-60000626D01*
X85696228Y-60010499D01*
X85696232Y-60010500D01*
X85696233Y-60010500D01*
X85863768Y-60010500D01*
X85863769Y-60010499D01*
X86028082Y-59977816D01*
X86182863Y-59913703D01*
X86306041Y-59831398D01*
X86372719Y-59810520D01*
X86374932Y-59810500D01*
X88625068Y-59810500D01*
X88692107Y-59830185D01*
X88693959Y-59831398D01*
X88746205Y-59866307D01*
X88817137Y-59913703D01*
X88971918Y-59977816D01*
X89086593Y-60000626D01*
X89136228Y-60010499D01*
X89136232Y-60010500D01*
X89136233Y-60010500D01*
X89303768Y-60010500D01*
X89303769Y-60010499D01*
X89468082Y-59977816D01*
X89622863Y-59913703D01*
X89762162Y-59820626D01*
X89876560Y-59706228D01*
X92959500Y-59706228D01*
X92959500Y-59873771D01*
X92992182Y-60038074D01*
X92992184Y-60038082D01*
X93056295Y-60192860D01*
X93056296Y-60192862D01*
X93056297Y-60192863D01*
X93086511Y-60238082D01*
X93138602Y-60316040D01*
X93159480Y-60382717D01*
X93159500Y-60384931D01*
X93159500Y-62615068D01*
X93139815Y-62682107D01*
X93138602Y-62683959D01*
X93056295Y-62807139D01*
X92992184Y-62961917D01*
X92992182Y-62961925D01*
X92959500Y-63126228D01*
X92959500Y-63293771D01*
X92992182Y-63458074D01*
X92992184Y-63458082D01*
X93056295Y-63612860D01*
X93149373Y-63752162D01*
X93267837Y-63870626D01*
X93331045Y-63912860D01*
X93407137Y-63963703D01*
X93561918Y-64027816D01*
X93684315Y-64052162D01*
X93726228Y-64060499D01*
X93726232Y-64060500D01*
X93726233Y-64060500D01*
X93893768Y-64060500D01*
X93893769Y-64060499D01*
X94058082Y-64027816D01*
X94212863Y-63963703D01*
X94352162Y-63870626D01*
X94470626Y-63752162D01*
X94563703Y-63612863D01*
X94627816Y-63458082D01*
X94660500Y-63293767D01*
X94660500Y-63126233D01*
X94627816Y-62961918D01*
X94563703Y-62807137D01*
X94489642Y-62696297D01*
X94481398Y-62683959D01*
X94460520Y-62617281D01*
X94460500Y-62615068D01*
X94460500Y-62206228D01*
X95909500Y-62206228D01*
X95909500Y-62373771D01*
X95942182Y-62538074D01*
X95942184Y-62538082D01*
X96006295Y-62692860D01*
X96099373Y-62832162D01*
X96099376Y-62832165D01*
X96131704Y-62864492D01*
X96165190Y-62925814D01*
X96160206Y-62995506D01*
X96147127Y-63021064D01*
X96096295Y-63097140D01*
X96032184Y-63251917D01*
X96032182Y-63251925D01*
X95999500Y-63416228D01*
X95999500Y-63583771D01*
X96032182Y-63748074D01*
X96032184Y-63748082D01*
X96096295Y-63902860D01*
X96189373Y-64042162D01*
X96307837Y-64160626D01*
X96382478Y-64210499D01*
X96447137Y-64253703D01*
X96601918Y-64317816D01*
X96766228Y-64350499D01*
X96766232Y-64350500D01*
X96766233Y-64350500D01*
X96933768Y-64350500D01*
X96933769Y-64350499D01*
X97098082Y-64317816D01*
X97252863Y-64253703D01*
X97392162Y-64160626D01*
X97392165Y-64160623D01*
X97415970Y-64136819D01*
X97477293Y-64103334D01*
X97503651Y-64100500D01*
X97935068Y-64100500D01*
X98002107Y-64120185D01*
X98003959Y-64121398D01*
X98015896Y-64129374D01*
X98127137Y-64203703D01*
X98281918Y-64267816D01*
X98446228Y-64300499D01*
X98446232Y-64300500D01*
X98446233Y-64300500D01*
X98613768Y-64300500D01*
X98613769Y-64300499D01*
X98778082Y-64267816D01*
X98932863Y-64203703D01*
X99072162Y-64110626D01*
X99190626Y-63992162D01*
X99283703Y-63852863D01*
X99347816Y-63698082D01*
X99380500Y-63533767D01*
X99380500Y-63426228D01*
X110509500Y-63426228D01*
X110509500Y-63593771D01*
X110542182Y-63758074D01*
X110542184Y-63758082D01*
X110606295Y-63912860D01*
X110699373Y-64052162D01*
X110817837Y-64170626D01*
X110877512Y-64210499D01*
X110957137Y-64263703D01*
X110957138Y-64263703D01*
X110957139Y-64263704D01*
X110967069Y-64267817D01*
X111111918Y-64327816D01*
X111196011Y-64344543D01*
X111257218Y-64356718D01*
X111319129Y-64389102D01*
X111320708Y-64390654D01*
X111834244Y-64904190D01*
X111867729Y-64965513D01*
X111868180Y-64967680D01*
X111882182Y-65038074D01*
X111882184Y-65038082D01*
X111946295Y-65192860D01*
X112039373Y-65332162D01*
X112157837Y-65450626D01*
X112208915Y-65484755D01*
X112297137Y-65543703D01*
X112451918Y-65607816D01*
X112616228Y-65640499D01*
X112616232Y-65640500D01*
X112616233Y-65640500D01*
X112783768Y-65640500D01*
X112783769Y-65640499D01*
X112948082Y-65607816D01*
X113102863Y-65543703D01*
X113242162Y-65450626D01*
X113360626Y-65332162D01*
X113453703Y-65192863D01*
X113517816Y-65038082D01*
X113532251Y-64965513D01*
X113537448Y-64939388D01*
X113550499Y-64873771D01*
X113550500Y-64873768D01*
X113550500Y-64706232D01*
X113550499Y-64706228D01*
X113517817Y-64541925D01*
X113517816Y-64541918D01*
X113453703Y-64387137D01*
X113422537Y-64340494D01*
X113360626Y-64247837D01*
X113242162Y-64129373D01*
X113102860Y-64036295D01*
X112948082Y-63972184D01*
X112948074Y-63972182D01*
X112783771Y-63939500D01*
X112783767Y-63939500D01*
X112760808Y-63939500D01*
X112693769Y-63919815D01*
X112673127Y-63903181D01*
X112240654Y-63470708D01*
X112207169Y-63409385D01*
X112206718Y-63407218D01*
X112177817Y-63261925D01*
X112177816Y-63261918D01*
X112121613Y-63126233D01*
X112113704Y-63107139D01*
X112020626Y-62967837D01*
X111902162Y-62849373D01*
X111762860Y-62756295D01*
X111608082Y-62692184D01*
X111608074Y-62692182D01*
X111443771Y-62659500D01*
X111443767Y-62659500D01*
X111276233Y-62659500D01*
X111276228Y-62659500D01*
X111111925Y-62692182D01*
X111111917Y-62692184D01*
X110957139Y-62756295D01*
X110817837Y-62849373D01*
X110699373Y-62967837D01*
X110606295Y-63107139D01*
X110542184Y-63261917D01*
X110542182Y-63261925D01*
X110509500Y-63426228D01*
X99380500Y-63426228D01*
X99380500Y-63366233D01*
X99347816Y-63201918D01*
X99283703Y-63047137D01*
X99226766Y-62961925D01*
X99190626Y-62907837D01*
X99072162Y-62789373D01*
X98932860Y-62696295D01*
X98778082Y-62632184D01*
X98778076Y-62632182D01*
X98619363Y-62600612D01*
X98601650Y-62591346D01*
X98582194Y-62586749D01*
X98571323Y-62575483D01*
X98557452Y-62568227D01*
X98547559Y-62550854D01*
X98533679Y-62536469D01*
X98524415Y-62510211D01*
X98522878Y-62507511D01*
X98521937Y-62503185D01*
X98520869Y-62497817D01*
X98507584Y-62431025D01*
X98507584Y-62431022D01*
X98503399Y-62409984D01*
X120799500Y-62409984D01*
X120799500Y-63510015D01*
X120810000Y-63612795D01*
X120810001Y-63612796D01*
X120865186Y-63779335D01*
X120865187Y-63779337D01*
X120957286Y-63928651D01*
X120957289Y-63928655D01*
X121081344Y-64052710D01*
X121081348Y-64052713D01*
X121230662Y-64144812D01*
X121230664Y-64144813D01*
X121230666Y-64144814D01*
X121397203Y-64199999D01*
X121499992Y-64210500D01*
X121499997Y-64210500D01*
X122600003Y-64210500D01*
X122600008Y-64210500D01*
X122702797Y-64199999D01*
X122869334Y-64144814D01*
X123018655Y-64052711D01*
X123142711Y-63928655D01*
X123234814Y-63779334D01*
X123289999Y-63612797D01*
X123300500Y-63510008D01*
X123300500Y-62409992D01*
X123289999Y-62307203D01*
X123234814Y-62140666D01*
X123225908Y-62126228D01*
X123142713Y-61991348D01*
X123142710Y-61991344D01*
X123018655Y-61867289D01*
X123018651Y-61867286D01*
X122869337Y-61775187D01*
X122869335Y-61775186D01*
X122709318Y-61722162D01*
X122702797Y-61720001D01*
X122702795Y-61720000D01*
X122600015Y-61709500D01*
X122600008Y-61709500D01*
X121499992Y-61709500D01*
X121499984Y-61709500D01*
X121397204Y-61720000D01*
X121397203Y-61720001D01*
X121230664Y-61775186D01*
X121230662Y-61775187D01*
X121081348Y-61867286D01*
X121081344Y-61867289D01*
X120957289Y-61991344D01*
X120957286Y-61991348D01*
X120865187Y-62140662D01*
X120865186Y-62140664D01*
X120810001Y-62307203D01*
X120810000Y-62307204D01*
X120799500Y-62409984D01*
X98503399Y-62409984D01*
X98497817Y-62381923D01*
X98497816Y-62381922D01*
X98497816Y-62381918D01*
X98439938Y-62242191D01*
X98430500Y-62194739D01*
X98430500Y-60425261D01*
X98439939Y-60377808D01*
X98465524Y-60316040D01*
X98497816Y-60238082D01*
X98530500Y-60073767D01*
X98530500Y-59906233D01*
X98497816Y-59741918D01*
X98448227Y-59622201D01*
X98433704Y-59587139D01*
X98417483Y-59562863D01*
X98388290Y-59519172D01*
X98340626Y-59447837D01*
X98222162Y-59329373D01*
X98112692Y-59256228D01*
X110049500Y-59256228D01*
X110049500Y-59423771D01*
X110082182Y-59588074D01*
X110082184Y-59588082D01*
X110146295Y-59742860D01*
X110239373Y-59882162D01*
X110357837Y-60000626D01*
X110449175Y-60061656D01*
X110497137Y-60093703D01*
X110651918Y-60157816D01*
X110816228Y-60190499D01*
X110816232Y-60190500D01*
X110816233Y-60190500D01*
X110983768Y-60190500D01*
X110983769Y-60190499D01*
X111148082Y-60157816D01*
X111287808Y-60099938D01*
X111335261Y-60090500D01*
X114063920Y-60090500D01*
X114161462Y-60071096D01*
X114208913Y-60061658D01*
X114345495Y-60005084D01*
X114404735Y-59965501D01*
X114468416Y-59922952D01*
X114977106Y-59414260D01*
X115038427Y-59380777D01*
X115084179Y-59379470D01*
X115153814Y-59390499D01*
X115210640Y-59399500D01*
X115210644Y-59399500D01*
X115429361Y-59399500D01*
X115534082Y-59382912D01*
X115645375Y-59365286D01*
X115853383Y-59297701D01*
X116048257Y-59198407D01*
X116208256Y-59082162D01*
X116225193Y-59069857D01*
X116225195Y-59069854D01*
X116225199Y-59069852D01*
X116379852Y-58915199D01*
X116489683Y-58764028D01*
X116545011Y-58721364D01*
X116614624Y-58715385D01*
X116676420Y-58747990D01*
X116690313Y-58764023D01*
X116768849Y-58872119D01*
X116800148Y-58915199D01*
X116954806Y-59069857D01*
X117060941Y-59146967D01*
X117131743Y-59198407D01*
X117245222Y-59256228D01*
X117326616Y-59297701D01*
X117326619Y-59297702D01*
X117424095Y-59329373D01*
X117534625Y-59365286D01*
X117634672Y-59381132D01*
X117750639Y-59399500D01*
X117750644Y-59399500D01*
X117969361Y-59399500D01*
X118074082Y-59382912D01*
X118185375Y-59365286D01*
X118393383Y-59297701D01*
X118588257Y-59198407D01*
X118748256Y-59082162D01*
X118765193Y-59069857D01*
X118765195Y-59069854D01*
X118765199Y-59069852D01*
X118919852Y-58915199D01*
X119029991Y-58763603D01*
X119085320Y-58720939D01*
X119154933Y-58714960D01*
X119216729Y-58747565D01*
X119230628Y-58763606D01*
X119256806Y-58799638D01*
X119256807Y-58799638D01*
X119962352Y-58094093D01*
X119985792Y-58181571D01*
X120044311Y-58282930D01*
X120127070Y-58365689D01*
X120228429Y-58424208D01*
X120315905Y-58447647D01*
X119610360Y-59153191D01*
X119672008Y-59197980D01*
X119866808Y-59297237D01*
X119866811Y-59297238D01*
X120074740Y-59364797D01*
X120290684Y-59399000D01*
X120509316Y-59399000D01*
X120725259Y-59364797D01*
X120933188Y-59297238D01*
X120933191Y-59297237D01*
X121127995Y-59197978D01*
X121189638Y-59153191D01*
X121189639Y-59153191D01*
X120484094Y-58447647D01*
X120571571Y-58424208D01*
X120672930Y-58365689D01*
X120755689Y-58282930D01*
X120814208Y-58181571D01*
X120837647Y-58094095D01*
X121543191Y-58799639D01*
X121543191Y-58799638D01*
X121587978Y-58737995D01*
X121687237Y-58543191D01*
X121687238Y-58543188D01*
X121754797Y-58335259D01*
X121789000Y-58119316D01*
X121789000Y-57900683D01*
X121754797Y-57684740D01*
X121687238Y-57476811D01*
X121687237Y-57476808D01*
X121587980Y-57282008D01*
X121543191Y-57220360D01*
X120837647Y-57925904D01*
X120814208Y-57838429D01*
X120755689Y-57737070D01*
X120672930Y-57654311D01*
X120571571Y-57595792D01*
X120484092Y-57572352D01*
X121189638Y-56866807D01*
X121189638Y-56866806D01*
X121127995Y-56822021D01*
X121127993Y-56822020D01*
X120933191Y-56722762D01*
X120933188Y-56722761D01*
X120725259Y-56655202D01*
X120509316Y-56621000D01*
X120290684Y-56621000D01*
X120074740Y-56655202D01*
X119866811Y-56722761D01*
X119866808Y-56722762D01*
X119672001Y-56822023D01*
X119610360Y-56866806D01*
X119610360Y-56866807D01*
X120315905Y-57572352D01*
X120228429Y-57595792D01*
X120127070Y-57654311D01*
X120044311Y-57737070D01*
X119985792Y-57838429D01*
X119962352Y-57925905D01*
X119256807Y-57220360D01*
X119256805Y-57220360D01*
X119230626Y-57256394D01*
X119175297Y-57299060D01*
X119105683Y-57305039D01*
X119043888Y-57272434D01*
X119029995Y-57256401D01*
X118919852Y-57104801D01*
X118765199Y-56950148D01*
X118765193Y-56950142D01*
X118588260Y-56821595D01*
X118588259Y-56821594D01*
X118588257Y-56821593D01*
X118500162Y-56776706D01*
X118393383Y-56722298D01*
X118393380Y-56722297D01*
X118185376Y-56654714D01*
X117969361Y-56620500D01*
X117969356Y-56620500D01*
X117750644Y-56620500D01*
X117750639Y-56620500D01*
X117534623Y-56654714D01*
X117326619Y-56722297D01*
X117326616Y-56722298D01*
X117131739Y-56821595D01*
X116954806Y-56950142D01*
X116800142Y-57104806D01*
X116690318Y-57255969D01*
X116634989Y-57298635D01*
X116565375Y-57304614D01*
X116503580Y-57272009D01*
X116489682Y-57255969D01*
X116379857Y-57104806D01*
X116225193Y-56950142D01*
X116048260Y-56821595D01*
X116048259Y-56821594D01*
X116048257Y-56821593D01*
X115960162Y-56776706D01*
X115853383Y-56722298D01*
X115853380Y-56722297D01*
X115645376Y-56654714D01*
X115429361Y-56620500D01*
X115429356Y-56620500D01*
X115210644Y-56620500D01*
X115210639Y-56620500D01*
X114994623Y-56654714D01*
X114786619Y-56722297D01*
X114786616Y-56722298D01*
X114591739Y-56821595D01*
X114414806Y-56950142D01*
X114260142Y-57104806D01*
X114131595Y-57281739D01*
X114032298Y-57476616D01*
X114032297Y-57476619D01*
X113964714Y-57684623D01*
X113930500Y-57900638D01*
X113930500Y-58119361D01*
X113930499Y-58119361D01*
X113950528Y-58245816D01*
X113941573Y-58315109D01*
X113915736Y-58352894D01*
X113715449Y-58553182D01*
X113654129Y-58586666D01*
X113627770Y-58589500D01*
X111335261Y-58589500D01*
X111287808Y-58580061D01*
X111270423Y-58572860D01*
X111148082Y-58522184D01*
X111148074Y-58522182D01*
X110983771Y-58489500D01*
X110983767Y-58489500D01*
X110816233Y-58489500D01*
X110816228Y-58489500D01*
X110651925Y-58522182D01*
X110651917Y-58522184D01*
X110497139Y-58586295D01*
X110357837Y-58679373D01*
X110239373Y-58797837D01*
X110146295Y-58937139D01*
X110082184Y-59091917D01*
X110082182Y-59091925D01*
X110049500Y-59256228D01*
X98112692Y-59256228D01*
X98082860Y-59236295D01*
X97928082Y-59172184D01*
X97928074Y-59172182D01*
X97763771Y-59139500D01*
X97763767Y-59139500D01*
X97596233Y-59139500D01*
X97596228Y-59139500D01*
X97558691Y-59146967D01*
X97489099Y-59140740D01*
X97433922Y-59097877D01*
X97410678Y-59031987D01*
X97410500Y-59025350D01*
X97410500Y-55700807D01*
X97430185Y-55633768D01*
X97446815Y-55613130D01*
X97609252Y-55450693D01*
X109507000Y-55450693D01*
X109507000Y-55709306D01*
X109547456Y-55964733D01*
X109547456Y-55964734D01*
X109627374Y-56210695D01*
X109744783Y-56441122D01*
X109824963Y-56551481D01*
X109824964Y-56551482D01*
X110511837Y-55864609D01*
X110530997Y-55910864D01*
X110607439Y-56025268D01*
X110704732Y-56122561D01*
X110819136Y-56199003D01*
X110865390Y-56218161D01*
X110178516Y-56905034D01*
X110178517Y-56905036D01*
X110288877Y-56985216D01*
X110519304Y-57102625D01*
X110765266Y-57182543D01*
X111020694Y-57223000D01*
X111279306Y-57223000D01*
X111534733Y-57182543D01*
X111534734Y-57182543D01*
X111780695Y-57102625D01*
X112011119Y-56985218D01*
X112121481Y-56905034D01*
X112121482Y-56905034D01*
X111434609Y-56218162D01*
X111480864Y-56199003D01*
X111595268Y-56122561D01*
X111692561Y-56025268D01*
X111769003Y-55910864D01*
X111788161Y-55864609D01*
X112475034Y-56551482D01*
X112475034Y-56551481D01*
X112555218Y-56441119D01*
X112672625Y-56210695D01*
X112752543Y-55964734D01*
X112752543Y-55964733D01*
X112793000Y-55709306D01*
X112793000Y-55450695D01*
X112787381Y-55415220D01*
X112787381Y-55415219D01*
X112785080Y-55400693D01*
X122807000Y-55400693D01*
X122807000Y-55659306D01*
X122847456Y-55914733D01*
X122847456Y-55914734D01*
X122927374Y-56160695D01*
X123044783Y-56391122D01*
X123124963Y-56501481D01*
X123124964Y-56501482D01*
X123811837Y-55814609D01*
X123830997Y-55860864D01*
X123907439Y-55975268D01*
X124004732Y-56072561D01*
X124119136Y-56149003D01*
X124165390Y-56168161D01*
X123478516Y-56855034D01*
X123478517Y-56855036D01*
X123588877Y-56935216D01*
X123819304Y-57052625D01*
X124065266Y-57132543D01*
X124320694Y-57173000D01*
X124579306Y-57173000D01*
X124834733Y-57132543D01*
X124834734Y-57132543D01*
X125080695Y-57052625D01*
X125311119Y-56935218D01*
X125421481Y-56855034D01*
X125421482Y-56855034D01*
X124734609Y-56168162D01*
X124780864Y-56149003D01*
X124895268Y-56072561D01*
X124992561Y-55975268D01*
X125069003Y-55860864D01*
X125088161Y-55814609D01*
X125775034Y-56501482D01*
X125775034Y-56501481D01*
X125855218Y-56391119D01*
X125972625Y-56160695D01*
X126052543Y-55914734D01*
X126052543Y-55914733D01*
X126093000Y-55659306D01*
X126093000Y-55400693D01*
X126052543Y-55145266D01*
X126052543Y-55145265D01*
X125972625Y-54899304D01*
X125855216Y-54668877D01*
X125775036Y-54558517D01*
X125775034Y-54558516D01*
X125088161Y-55245389D01*
X125069003Y-55199136D01*
X124992561Y-55084732D01*
X124895268Y-54987439D01*
X124780864Y-54910997D01*
X124734608Y-54891837D01*
X125421482Y-54204964D01*
X125421481Y-54204963D01*
X125311122Y-54124783D01*
X125080695Y-54007374D01*
X124834733Y-53927456D01*
X124579306Y-53887000D01*
X124320694Y-53887000D01*
X124065266Y-53927456D01*
X124065265Y-53927456D01*
X123819304Y-54007374D01*
X123588884Y-54124779D01*
X123478517Y-54204964D01*
X123478517Y-54204965D01*
X124165390Y-54891837D01*
X124119136Y-54910997D01*
X124004732Y-54987439D01*
X123907439Y-55084732D01*
X123830997Y-55199136D01*
X123811837Y-55245390D01*
X123124965Y-54558517D01*
X123124964Y-54558517D01*
X123044779Y-54668884D01*
X122927374Y-54899304D01*
X122847456Y-55145265D01*
X122847456Y-55145266D01*
X122807000Y-55400693D01*
X112785080Y-55400693D01*
X112752543Y-55195266D01*
X112752543Y-55195265D01*
X112672625Y-54949304D01*
X112555216Y-54718877D01*
X112475036Y-54608517D01*
X112475034Y-54608516D01*
X111788161Y-55295389D01*
X111769003Y-55249136D01*
X111692561Y-55134732D01*
X111595268Y-55037439D01*
X111480864Y-54960997D01*
X111434608Y-54941837D01*
X112121482Y-54254964D01*
X112121481Y-54254963D01*
X112011122Y-54174783D01*
X111780695Y-54057374D01*
X111534733Y-53977456D01*
X111279306Y-53937000D01*
X111020694Y-53937000D01*
X110765266Y-53977456D01*
X110765265Y-53977456D01*
X110519304Y-54057374D01*
X110288884Y-54174779D01*
X110178517Y-54254964D01*
X110178517Y-54254965D01*
X110865390Y-54941837D01*
X110819136Y-54960997D01*
X110704732Y-55037439D01*
X110607439Y-55134732D01*
X110530997Y-55249136D01*
X110511837Y-55295390D01*
X109824965Y-54608517D01*
X109824964Y-54608517D01*
X109744779Y-54718884D01*
X109627374Y-54949304D01*
X109547456Y-55195265D01*
X109547456Y-55195266D01*
X109507000Y-55450693D01*
X97609252Y-55450693D01*
X97772931Y-55287013D01*
X97834252Y-55253530D01*
X97836317Y-55253099D01*
X97903497Y-55239737D01*
X98049179Y-55179394D01*
X98180289Y-55091789D01*
X98234639Y-55037439D01*
X98291788Y-54980291D01*
X98291789Y-54980289D01*
X98379394Y-54849179D01*
X98439737Y-54703497D01*
X98470500Y-54548842D01*
X98470500Y-54391158D01*
X98470500Y-54391155D01*
X98457622Y-54326416D01*
X98457622Y-54326415D01*
X98439738Y-54236510D01*
X98439738Y-54236508D01*
X98439737Y-54236503D01*
X98414172Y-54174783D01*
X98379397Y-54090827D01*
X98379390Y-54090814D01*
X98291789Y-53959711D01*
X98291786Y-53959707D01*
X98180292Y-53848213D01*
X98180288Y-53848210D01*
X98049185Y-53760609D01*
X98049172Y-53760602D01*
X97903501Y-53700264D01*
X97903489Y-53700261D01*
X97748845Y-53669500D01*
X97748842Y-53669500D01*
X97591158Y-53669500D01*
X97591155Y-53669500D01*
X97436510Y-53700261D01*
X97436498Y-53700264D01*
X97290827Y-53760602D01*
X97290814Y-53760609D01*
X97159711Y-53848210D01*
X97159707Y-53848213D01*
X97048213Y-53959707D01*
X97048210Y-53959711D01*
X96960609Y-54090814D01*
X96960602Y-54090827D01*
X96900264Y-54236498D01*
X96900261Y-54236508D01*
X96886920Y-54303579D01*
X96854535Y-54365490D01*
X96852984Y-54367068D01*
X96254725Y-54965328D01*
X96254723Y-54965331D01*
X96244729Y-54980289D01*
X96244727Y-54980290D01*
X96244727Y-54980291D01*
X96183535Y-55071870D01*
X96134499Y-55190255D01*
X96134497Y-55190261D01*
X96109500Y-55315928D01*
X96109500Y-61695068D01*
X96089815Y-61762107D01*
X96088602Y-61763959D01*
X96006295Y-61887139D01*
X95942184Y-62041917D01*
X95942182Y-62041925D01*
X95909500Y-62206228D01*
X94460500Y-62206228D01*
X94460500Y-60384931D01*
X94480185Y-60317892D01*
X94481398Y-60316040D01*
X94563703Y-60192863D01*
X94627816Y-60038082D01*
X94660500Y-59873767D01*
X94660500Y-59706233D01*
X94627816Y-59541918D01*
X94572379Y-59408082D01*
X94563704Y-59387139D01*
X94554591Y-59373501D01*
X94525106Y-59329373D01*
X94470626Y-59247837D01*
X94352162Y-59129373D01*
X94212860Y-59036295D01*
X94058082Y-58972184D01*
X94058074Y-58972182D01*
X93893771Y-58939500D01*
X93893767Y-58939500D01*
X93726233Y-58939500D01*
X93726228Y-58939500D01*
X93561925Y-58972182D01*
X93561917Y-58972184D01*
X93407139Y-59036295D01*
X93267837Y-59129373D01*
X93149373Y-59247837D01*
X93056295Y-59387139D01*
X92992184Y-59541917D01*
X92992182Y-59541925D01*
X92959500Y-59706228D01*
X89876560Y-59706228D01*
X89880626Y-59702162D01*
X89973703Y-59562863D01*
X90037816Y-59408082D01*
X90070500Y-59243767D01*
X90070500Y-59076233D01*
X90037816Y-58911918D01*
X90008857Y-58842007D01*
X90001388Y-58772540D01*
X90027575Y-58715877D01*
X90030614Y-58712173D01*
X90030626Y-58712162D01*
X90123703Y-58572863D01*
X90187816Y-58418082D01*
X90220500Y-58253767D01*
X90220500Y-58086233D01*
X90187816Y-57921918D01*
X90138227Y-57802201D01*
X90123704Y-57767139D01*
X90030626Y-57627837D01*
X89912162Y-57509373D01*
X89772860Y-57416295D01*
X89618082Y-57352184D01*
X89618074Y-57352182D01*
X89453771Y-57319500D01*
X89453767Y-57319500D01*
X89286233Y-57319500D01*
X89286228Y-57319500D01*
X89121925Y-57352182D01*
X89121917Y-57352184D01*
X89101578Y-57360609D01*
X89080421Y-57369373D01*
X89078760Y-57370061D01*
X89031307Y-57379500D01*
X86064932Y-57379500D01*
X85997893Y-57359815D01*
X85996041Y-57358602D01*
X85872860Y-57276295D01*
X85718082Y-57212184D01*
X85718074Y-57212182D01*
X85553771Y-57179500D01*
X85553767Y-57179500D01*
X85386233Y-57179500D01*
X85386228Y-57179500D01*
X85221925Y-57212182D01*
X85221917Y-57212184D01*
X85067139Y-57276295D01*
X84927837Y-57369373D01*
X84809373Y-57487837D01*
X84716295Y-57627139D01*
X84652184Y-57781917D01*
X84652182Y-57781925D01*
X84619500Y-57946228D01*
X78561564Y-57946228D01*
X78539738Y-57836508D01*
X78539737Y-57836507D01*
X78539737Y-57836503D01*
X78517130Y-57781925D01*
X78479397Y-57690827D01*
X78479390Y-57690814D01*
X78391789Y-57559711D01*
X78391786Y-57559707D01*
X78280292Y-57448213D01*
X78280288Y-57448210D01*
X78149185Y-57360609D01*
X78149172Y-57360602D01*
X78003501Y-57300264D01*
X78003489Y-57300261D01*
X77936420Y-57286920D01*
X77874509Y-57254535D01*
X77872930Y-57252984D01*
X76672431Y-56052485D01*
X76645551Y-56012256D01*
X76625867Y-55964734D01*
X76599394Y-55900821D01*
X76599392Y-55900819D01*
X76599392Y-55900817D01*
X76511789Y-55769711D01*
X76511786Y-55769707D01*
X76400292Y-55658213D01*
X76400288Y-55658210D01*
X76269185Y-55570609D01*
X76269172Y-55570602D01*
X76123501Y-55510264D01*
X76123489Y-55510261D01*
X75968845Y-55479500D01*
X75968842Y-55479500D01*
X75811158Y-55479500D01*
X75811155Y-55479500D01*
X75656510Y-55510261D01*
X75656498Y-55510264D01*
X75510827Y-55570602D01*
X75510814Y-55570609D01*
X75379711Y-55658210D01*
X75379707Y-55658213D01*
X75268213Y-55769707D01*
X75268210Y-55769711D01*
X75180609Y-55900814D01*
X75180602Y-55900827D01*
X75120264Y-56046498D01*
X75120261Y-56046510D01*
X75089500Y-56201153D01*
X75089500Y-56358846D01*
X75120261Y-56513489D01*
X75120264Y-56513501D01*
X75180602Y-56659172D01*
X75180609Y-56659185D01*
X75268210Y-56790288D01*
X75268213Y-56790292D01*
X75337500Y-56859579D01*
X75370985Y-56920902D01*
X75366001Y-56990594D01*
X75324129Y-57046527D01*
X75274011Y-57068877D01*
X75166508Y-57090261D01*
X75166498Y-57090264D01*
X75020827Y-57150602D01*
X75020814Y-57150609D01*
X74889711Y-57238210D01*
X74889707Y-57238213D01*
X74778213Y-57349707D01*
X74778210Y-57349711D01*
X74690609Y-57480814D01*
X74690602Y-57480827D01*
X74630264Y-57626498D01*
X74630261Y-57626510D01*
X74599500Y-57781153D01*
X56930500Y-57781153D01*
X56930500Y-57369807D01*
X56950185Y-57302768D01*
X56966815Y-57282130D01*
X57391931Y-56857013D01*
X57453252Y-56823530D01*
X57455317Y-56823099D01*
X57522497Y-56809737D01*
X57668179Y-56749394D01*
X57799289Y-56661789D01*
X57910789Y-56550289D01*
X57998394Y-56419179D01*
X58058737Y-56273497D01*
X58089500Y-56118842D01*
X58089500Y-55961158D01*
X58089500Y-55961155D01*
X58089499Y-55961153D01*
X58077497Y-55900814D01*
X58058737Y-55806503D01*
X58057515Y-55803553D01*
X57998397Y-55660827D01*
X57998390Y-55660814D01*
X57910789Y-55529711D01*
X57910786Y-55529707D01*
X57799292Y-55418213D01*
X57799288Y-55418210D01*
X57668185Y-55330609D01*
X57668172Y-55330602D01*
X57522501Y-55270264D01*
X57522489Y-55270261D01*
X57367845Y-55239500D01*
X57367842Y-55239500D01*
X57210158Y-55239500D01*
X57210155Y-55239500D01*
X57055510Y-55270261D01*
X57055498Y-55270264D01*
X56909827Y-55330602D01*
X56909814Y-55330609D01*
X56778711Y-55418210D01*
X56778707Y-55418213D01*
X56667213Y-55529707D01*
X56667210Y-55529711D01*
X56579609Y-55660814D01*
X56579602Y-55660827D01*
X56519264Y-55806498D01*
X56519261Y-55806508D01*
X56505920Y-55873579D01*
X56473535Y-55935490D01*
X56471984Y-55937068D01*
X55774725Y-56634328D01*
X55774719Y-56634336D01*
X55715947Y-56722294D01*
X55715948Y-56722295D01*
X55703537Y-56740870D01*
X55703535Y-56740873D01*
X55700004Y-56749397D01*
X55654499Y-56859255D01*
X55654497Y-56859261D01*
X55629500Y-56984928D01*
X55629500Y-57906349D01*
X55609815Y-57973388D01*
X55593181Y-57994030D01*
X55589376Y-57997834D01*
X55589373Y-57997837D01*
X55496295Y-58137139D01*
X55432184Y-58291917D01*
X55432182Y-58291925D01*
X55399500Y-58456228D01*
X55150500Y-58456228D01*
X55150500Y-57504999D01*
X55170185Y-57437960D01*
X55171398Y-57436108D01*
X55233703Y-57342863D01*
X55297816Y-57188082D01*
X55330500Y-57023767D01*
X55330500Y-56856233D01*
X55297816Y-56691918D01*
X55239150Y-56550288D01*
X55233704Y-56537139D01*
X55140626Y-56397837D01*
X55022162Y-56279373D01*
X54882860Y-56186295D01*
X54728082Y-56122184D01*
X54728074Y-56122182D01*
X54563771Y-56089500D01*
X54563767Y-56089500D01*
X54396233Y-56089500D01*
X54396228Y-56089500D01*
X54231925Y-56122182D01*
X54231917Y-56122184D01*
X54077139Y-56186295D01*
X53937837Y-56279373D01*
X53819373Y-56397837D01*
X53726295Y-56537139D01*
X53662184Y-56691917D01*
X53662182Y-56691925D01*
X53629500Y-56856228D01*
X50370500Y-56856228D01*
X50370500Y-56796233D01*
X50337816Y-56631918D01*
X50273703Y-56477137D01*
X50220716Y-56397837D01*
X50180626Y-56337837D01*
X50062162Y-56219373D01*
X49922860Y-56126295D01*
X49768082Y-56062184D01*
X49768074Y-56062182D01*
X49603771Y-56029500D01*
X49603767Y-56029500D01*
X49436233Y-56029500D01*
X49436228Y-56029500D01*
X49271925Y-56062182D01*
X49271917Y-56062184D01*
X49117139Y-56126295D01*
X48977837Y-56219373D01*
X48977834Y-56219376D01*
X48940111Y-56257100D01*
X48878788Y-56290585D01*
X48809096Y-56285601D01*
X48753163Y-56243729D01*
X48749328Y-56238310D01*
X48725626Y-56202838D01*
X48725623Y-56202834D01*
X48607162Y-56084373D01*
X48467860Y-55991295D01*
X48313082Y-55927184D01*
X48313074Y-55927182D01*
X48148771Y-55894500D01*
X48148767Y-55894500D01*
X47981233Y-55894500D01*
X47981228Y-55894500D01*
X47816925Y-55927182D01*
X47816917Y-55927184D01*
X47662139Y-55991295D01*
X47522837Y-56084373D01*
X47404373Y-56202837D01*
X47311295Y-56342139D01*
X47247184Y-56496917D01*
X47247182Y-56496925D01*
X47214500Y-56661227D01*
X47214156Y-56664726D01*
X47213364Y-56666936D01*
X47213311Y-56667208D01*
X47213270Y-56667200D01*
X47209290Y-56678324D01*
X47209089Y-56689620D01*
X47193857Y-56721458D01*
X47180887Y-56740870D01*
X47180886Y-56740871D01*
X47173535Y-56751872D01*
X47173534Y-56751874D01*
X47124499Y-56870255D01*
X47124497Y-56870261D01*
X47099500Y-56995928D01*
X47099500Y-61615068D01*
X47079815Y-61682107D01*
X47078602Y-61683959D01*
X46996295Y-61807139D01*
X46932184Y-61961917D01*
X46932182Y-61961925D01*
X46899500Y-62126228D01*
X45930499Y-62126228D01*
X45897816Y-61961918D01*
X45839938Y-61822191D01*
X45830500Y-61774739D01*
X45830500Y-55587220D01*
X45850185Y-55520181D01*
X45881614Y-55486902D01*
X45959792Y-55430104D01*
X46110104Y-55279792D01*
X46110106Y-55279788D01*
X46110109Y-55279786D01*
X46235048Y-55107820D01*
X46235047Y-55107820D01*
X46235051Y-55107816D01*
X46331557Y-54918412D01*
X46397246Y-54716243D01*
X46430500Y-54506287D01*
X46430500Y-54293713D01*
X46397246Y-54083757D01*
X46331557Y-53881588D01*
X46235051Y-53692184D01*
X46235049Y-53692181D01*
X46235048Y-53692179D01*
X46110109Y-53520213D01*
X45959786Y-53369890D01*
X45787817Y-53244949D01*
X45778504Y-53240204D01*
X45727707Y-53192230D01*
X45710912Y-53124409D01*
X45733449Y-53058274D01*
X45778507Y-53019232D01*
X45787555Y-53014622D01*
X45841716Y-52975270D01*
X45841717Y-52975270D01*
X45209408Y-52342962D01*
X45272993Y-52325925D01*
X45387007Y-52260099D01*
X45480099Y-52167007D01*
X45545925Y-52052993D01*
X45562962Y-51989408D01*
X46195270Y-52621717D01*
X46195270Y-52621716D01*
X46234622Y-52567554D01*
X46331095Y-52378217D01*
X46396757Y-52176130D01*
X46396757Y-52176127D01*
X46430000Y-51966246D01*
X46430000Y-51753753D01*
X46396757Y-51543872D01*
X46396757Y-51543869D01*
X46331095Y-51341782D01*
X46234624Y-51152449D01*
X46195270Y-51098282D01*
X46195269Y-51098282D01*
X45562962Y-51730590D01*
X45545925Y-51667007D01*
X45480099Y-51552993D01*
X45387007Y-51459901D01*
X45272993Y-51394075D01*
X45209409Y-51377037D01*
X45841716Y-50744728D01*
X45787547Y-50705373D01*
X45787547Y-50705372D01*
X45778500Y-50700763D01*
X45727706Y-50652788D01*
X45710912Y-50584966D01*
X45733451Y-50518832D01*
X45778508Y-50479793D01*
X45787816Y-50475051D01*
X45885931Y-50403767D01*
X45959786Y-50350109D01*
X45959788Y-50350106D01*
X45959792Y-50350104D01*
X46110104Y-50199792D01*
X46110106Y-50199788D01*
X46110109Y-50199786D01*
X46235048Y-50027820D01*
X46235047Y-50027820D01*
X46235051Y-50027816D01*
X46331557Y-49838412D01*
X46397246Y-49636243D01*
X46430500Y-49426287D01*
X46430500Y-49213713D01*
X46410308Y-49086228D01*
X48089500Y-49086228D01*
X48089500Y-49253771D01*
X48122182Y-49418074D01*
X48122184Y-49418082D01*
X48180061Y-49557808D01*
X48189500Y-49605261D01*
X48189500Y-50574739D01*
X48180061Y-50622192D01*
X48122184Y-50761917D01*
X48122182Y-50761925D01*
X48089500Y-50926228D01*
X48089500Y-51093771D01*
X48122182Y-51258074D01*
X48122184Y-51258082D01*
X48186295Y-51412860D01*
X48279373Y-51552162D01*
X48397837Y-51670626D01*
X48479641Y-51725285D01*
X48537137Y-51763703D01*
X48691918Y-51827816D01*
X48853714Y-51859999D01*
X48856228Y-51860499D01*
X48856232Y-51860500D01*
X48856233Y-51860500D01*
X49023768Y-51860500D01*
X49023769Y-51860499D01*
X49188082Y-51827816D01*
X49342863Y-51763703D01*
X49482162Y-51670626D01*
X49600626Y-51552162D01*
X49693703Y-51412863D01*
X49757816Y-51258082D01*
X49790500Y-51093767D01*
X49790500Y-50926233D01*
X49757816Y-50761918D01*
X49699938Y-50622191D01*
X49690500Y-50574739D01*
X49690500Y-49605261D01*
X49699939Y-49557808D01*
X49722980Y-49502182D01*
X49757816Y-49418082D01*
X49790500Y-49253767D01*
X49790500Y-49086233D01*
X49757816Y-48921918D01*
X49693703Y-48767137D01*
X49662537Y-48720494D01*
X49600626Y-48627837D01*
X49482162Y-48509373D01*
X49391133Y-48448550D01*
X49342863Y-48416297D01*
X49342862Y-48416296D01*
X49342860Y-48416295D01*
X49188082Y-48352184D01*
X49188074Y-48352182D01*
X49107868Y-48336228D01*
X83519500Y-48336228D01*
X83519500Y-48503771D01*
X83552182Y-48668074D01*
X83552184Y-48668082D01*
X83616295Y-48822860D01*
X83709373Y-48962162D01*
X83827837Y-49080626D01*
X83886765Y-49120000D01*
X83967137Y-49173703D01*
X84121918Y-49237816D01*
X84286228Y-49270499D01*
X84286232Y-49270500D01*
X84286233Y-49270500D01*
X84453768Y-49270500D01*
X84453769Y-49270499D01*
X84618082Y-49237816D01*
X84772863Y-49173703D01*
X84912162Y-49080626D01*
X85030626Y-48962162D01*
X85123703Y-48822863D01*
X85187816Y-48668082D01*
X85207048Y-48571396D01*
X85239432Y-48509485D01*
X85300148Y-48474911D01*
X85352856Y-48473970D01*
X85357587Y-48474911D01*
X85486230Y-48500499D01*
X85486232Y-48500500D01*
X85486233Y-48500500D01*
X85653768Y-48500500D01*
X85653769Y-48500499D01*
X85818082Y-48467816D01*
X85972863Y-48403703D01*
X86096041Y-48321398D01*
X86162719Y-48300520D01*
X86164932Y-48300500D01*
X88615068Y-48300500D01*
X88682107Y-48320185D01*
X88683959Y-48321398D01*
X88807137Y-48403703D01*
X88961918Y-48467816D01*
X89126228Y-48500499D01*
X89126232Y-48500500D01*
X89126233Y-48500500D01*
X89293768Y-48500500D01*
X89293769Y-48500499D01*
X89458082Y-48467816D01*
X89612863Y-48403703D01*
X89752162Y-48310626D01*
X89870626Y-48192162D01*
X89963703Y-48052863D01*
X90027816Y-47898082D01*
X90060500Y-47733767D01*
X90060500Y-47566233D01*
X90027816Y-47401918D01*
X89963703Y-47247137D01*
X89932537Y-47200494D01*
X89870626Y-47107837D01*
X89752162Y-46989373D01*
X89612860Y-46896295D01*
X89458082Y-46832184D01*
X89458074Y-46832182D01*
X89293771Y-46799500D01*
X89293767Y-46799500D01*
X89126233Y-46799500D01*
X89126228Y-46799500D01*
X88961925Y-46832182D01*
X88961917Y-46832184D01*
X88807139Y-46896295D01*
X88683959Y-46978602D01*
X88617281Y-46999480D01*
X88615068Y-46999500D01*
X86164932Y-46999500D01*
X86097893Y-46979815D01*
X86096041Y-46978602D01*
X85972860Y-46896295D01*
X85818082Y-46832184D01*
X85818074Y-46832182D01*
X85653771Y-46799500D01*
X85653767Y-46799500D01*
X85486233Y-46799500D01*
X85486228Y-46799500D01*
X85321925Y-46832182D01*
X85321913Y-46832185D01*
X85191952Y-46886017D01*
X85122483Y-46893486D01*
X85060004Y-46862211D01*
X85024352Y-46802122D01*
X85020500Y-46771456D01*
X85020500Y-42716228D01*
X96009500Y-42716228D01*
X96009500Y-42883771D01*
X96042182Y-43048074D01*
X96042184Y-43048082D01*
X96106295Y-43202860D01*
X96199373Y-43342162D01*
X96317837Y-43460626D01*
X96347581Y-43480500D01*
X96457137Y-43553703D01*
X96611918Y-43617816D01*
X96776228Y-43650499D01*
X96776232Y-43650500D01*
X96776233Y-43650500D01*
X96943768Y-43650500D01*
X96943769Y-43650499D01*
X97108082Y-43617816D01*
X97262863Y-43553703D01*
X97386041Y-43471398D01*
X97452719Y-43450520D01*
X97454932Y-43450500D01*
X98983200Y-43450500D01*
X99007391Y-43452883D01*
X99146230Y-43480499D01*
X99146232Y-43480500D01*
X99146233Y-43480500D01*
X99313768Y-43480500D01*
X99313769Y-43480499D01*
X99478082Y-43447816D01*
X99632863Y-43383703D01*
X99772162Y-43290626D01*
X99890626Y-43172162D01*
X99983703Y-43032863D01*
X100047816Y-42878082D01*
X100080500Y-42713767D01*
X100080500Y-42546233D01*
X100047816Y-42381918D01*
X99983703Y-42227137D01*
X99952207Y-42180000D01*
X99890626Y-42087837D01*
X99772162Y-41969373D01*
X99632860Y-41876295D01*
X99478082Y-41812184D01*
X99478074Y-41812182D01*
X99313771Y-41779500D01*
X99313767Y-41779500D01*
X99146233Y-41779500D01*
X99146228Y-41779500D01*
X98981925Y-41812182D01*
X98981917Y-41812184D01*
X98827139Y-41876295D01*
X98687837Y-41969373D01*
X98569376Y-42087834D01*
X98569373Y-42087838D01*
X98564995Y-42094391D01*
X98511382Y-42139196D01*
X98461893Y-42149500D01*
X97454932Y-42149500D01*
X97387893Y-42129815D01*
X97386041Y-42128602D01*
X97262860Y-42046295D01*
X97108082Y-41982184D01*
X97108074Y-41982182D01*
X96943771Y-41949500D01*
X96943767Y-41949500D01*
X96776233Y-41949500D01*
X96776228Y-41949500D01*
X96611925Y-41982182D01*
X96611917Y-41982184D01*
X96457139Y-42046295D01*
X96317837Y-42139373D01*
X96199373Y-42257837D01*
X96106295Y-42397139D01*
X96042184Y-42551917D01*
X96042182Y-42551925D01*
X96009500Y-42716228D01*
X85020500Y-42716228D01*
X85020500Y-40631947D01*
X87120000Y-40631947D01*
X87120000Y-40868052D01*
X87156934Y-41101247D01*
X87229897Y-41325802D01*
X87337087Y-41536174D01*
X87397338Y-41619104D01*
X87397340Y-41619105D01*
X88096212Y-40920233D01*
X88107482Y-40962292D01*
X88179890Y-41087708D01*
X88282292Y-41190110D01*
X88407708Y-41262518D01*
X88449765Y-41273787D01*
X87750893Y-41972658D01*
X87833828Y-42032914D01*
X88044197Y-42140102D01*
X88268752Y-42213065D01*
X88268751Y-42213065D01*
X88501948Y-42250000D01*
X88738052Y-42250000D01*
X88971247Y-42213065D01*
X89195802Y-42140102D01*
X89406163Y-42032918D01*
X89406169Y-42032914D01*
X89489104Y-41972658D01*
X89489105Y-41972658D01*
X88790233Y-41273787D01*
X88832292Y-41262518D01*
X88957708Y-41190110D01*
X89060110Y-41087708D01*
X89132518Y-40962292D01*
X89143787Y-40920234D01*
X89842658Y-41619105D01*
X89842658Y-41619104D01*
X89902914Y-41536169D01*
X89902918Y-41536163D01*
X90010102Y-41325802D01*
X90083065Y-41101247D01*
X90120000Y-40868052D01*
X90120000Y-40631947D01*
X93620000Y-40631947D01*
X93620000Y-40868052D01*
X93656934Y-41101247D01*
X93729897Y-41325802D01*
X93837087Y-41536174D01*
X93897338Y-41619104D01*
X93897340Y-41619105D01*
X94596212Y-40920233D01*
X94607482Y-40962292D01*
X94679890Y-41087708D01*
X94782292Y-41190110D01*
X94907708Y-41262518D01*
X94949765Y-41273787D01*
X94250893Y-41972658D01*
X94333828Y-42032914D01*
X94544197Y-42140102D01*
X94768752Y-42213065D01*
X94768751Y-42213065D01*
X95001948Y-42250000D01*
X95238052Y-42250000D01*
X95471247Y-42213065D01*
X95695802Y-42140102D01*
X95906163Y-42032918D01*
X95906169Y-42032914D01*
X95989104Y-41972658D01*
X95989105Y-41972658D01*
X95290233Y-41273787D01*
X95332292Y-41262518D01*
X95457708Y-41190110D01*
X95560110Y-41087708D01*
X95632518Y-40962292D01*
X95643787Y-40920234D01*
X96342658Y-41619105D01*
X96342658Y-41619104D01*
X96402914Y-41536169D01*
X96402918Y-41536163D01*
X96510102Y-41325803D01*
X96512166Y-41319453D01*
X96512166Y-41319452D01*
X96583065Y-41101248D01*
X96620000Y-40868052D01*
X96620000Y-40631947D01*
X96583065Y-40398752D01*
X96510102Y-40174197D01*
X96422423Y-40002116D01*
X96402914Y-39963828D01*
X96393371Y-39950693D01*
X109567000Y-39950693D01*
X109567000Y-40209306D01*
X109607456Y-40464733D01*
X109607456Y-40464734D01*
X109687374Y-40710695D01*
X109804783Y-40941122D01*
X109884963Y-41051481D01*
X109884964Y-41051482D01*
X110571837Y-40364609D01*
X110590997Y-40410864D01*
X110667439Y-40525268D01*
X110764732Y-40622561D01*
X110879136Y-40699003D01*
X110925390Y-40718161D01*
X110238516Y-41405034D01*
X110238517Y-41405036D01*
X110348877Y-41485216D01*
X110579304Y-41602625D01*
X110825266Y-41682543D01*
X111080694Y-41723000D01*
X111339306Y-41723000D01*
X111594733Y-41682543D01*
X111594734Y-41682543D01*
X111840695Y-41602625D01*
X112071119Y-41485218D01*
X112181481Y-41405034D01*
X112181482Y-41405034D01*
X112171904Y-41395456D01*
X111494609Y-40718162D01*
X111540864Y-40699003D01*
X111655268Y-40622561D01*
X111752561Y-40525268D01*
X111829003Y-40410864D01*
X111848161Y-40364609D01*
X112535034Y-41051482D01*
X112535034Y-41051481D01*
X112615218Y-40941119D01*
X112732625Y-40710695D01*
X112812543Y-40464734D01*
X112812543Y-40464733D01*
X112853000Y-40209306D01*
X112853000Y-39950693D01*
X112812543Y-39695266D01*
X112812543Y-39695265D01*
X112732625Y-39449304D01*
X112615216Y-39218877D01*
X112535036Y-39108517D01*
X112535034Y-39108516D01*
X111848161Y-39795389D01*
X111829003Y-39749136D01*
X111752561Y-39634732D01*
X111655268Y-39537439D01*
X111540864Y-39460997D01*
X111494608Y-39441837D01*
X112181482Y-38754964D01*
X112181481Y-38754963D01*
X112071122Y-38674783D01*
X111840695Y-38557374D01*
X111594733Y-38477456D01*
X111339306Y-38437000D01*
X111080694Y-38437000D01*
X110825266Y-38477456D01*
X110825265Y-38477456D01*
X110579304Y-38557374D01*
X110348884Y-38674779D01*
X110238517Y-38754964D01*
X110238517Y-38754965D01*
X110925390Y-39441837D01*
X110879136Y-39460997D01*
X110764732Y-39537439D01*
X110667439Y-39634732D01*
X110590997Y-39749136D01*
X110571837Y-39795390D01*
X109884965Y-39108517D01*
X109884964Y-39108517D01*
X109804779Y-39218884D01*
X109687374Y-39449304D01*
X109607456Y-39695265D01*
X109607456Y-39695266D01*
X109567000Y-39950693D01*
X96393371Y-39950693D01*
X96342658Y-39880894D01*
X96342658Y-39880893D01*
X95643787Y-40579765D01*
X95632518Y-40537708D01*
X95560110Y-40412292D01*
X95457708Y-40309890D01*
X95332292Y-40237482D01*
X95290234Y-40226212D01*
X95989105Y-39527340D01*
X95989104Y-39527338D01*
X95906174Y-39467087D01*
X95695802Y-39359897D01*
X95471247Y-39286934D01*
X95471248Y-39286934D01*
X95238052Y-39250000D01*
X95001948Y-39250000D01*
X94768752Y-39286934D01*
X94544197Y-39359897D01*
X94333830Y-39467084D01*
X94250894Y-39527340D01*
X94949766Y-40226212D01*
X94907708Y-40237482D01*
X94782292Y-40309890D01*
X94679890Y-40412292D01*
X94607482Y-40537708D01*
X94596212Y-40579766D01*
X93897340Y-39880894D01*
X93837084Y-39963830D01*
X93729897Y-40174197D01*
X93656934Y-40398752D01*
X93620000Y-40631947D01*
X90120000Y-40631947D01*
X90083065Y-40398752D01*
X90010102Y-40174197D01*
X89902914Y-39963828D01*
X89842658Y-39880894D01*
X89842658Y-39880893D01*
X89143787Y-40579765D01*
X89132518Y-40537708D01*
X89060110Y-40412292D01*
X88957708Y-40309890D01*
X88832292Y-40237482D01*
X88790234Y-40226212D01*
X89489105Y-39527340D01*
X89489104Y-39527339D01*
X89406174Y-39467087D01*
X89195802Y-39359897D01*
X88971247Y-39286934D01*
X88971248Y-39286934D01*
X88738052Y-39250000D01*
X88501948Y-39250000D01*
X88268752Y-39286934D01*
X88044197Y-39359897D01*
X87833830Y-39467084D01*
X87750894Y-39527340D01*
X88449766Y-40226212D01*
X88407708Y-40237482D01*
X88282292Y-40309890D01*
X88179890Y-40412292D01*
X88107482Y-40537708D01*
X88096212Y-40579766D01*
X87397340Y-39880894D01*
X87337084Y-39963830D01*
X87229897Y-40174197D01*
X87156934Y-40398752D01*
X87120000Y-40631947D01*
X85020500Y-40631947D01*
X85020500Y-39869898D01*
X85040185Y-39802859D01*
X85041398Y-39801007D01*
X85091218Y-39726446D01*
X85133703Y-39662863D01*
X85197816Y-39508082D01*
X85230500Y-39343767D01*
X85230500Y-39176233D01*
X85197816Y-39011918D01*
X85145230Y-38884965D01*
X85133705Y-38857141D01*
X85133702Y-38857136D01*
X85124762Y-38843757D01*
X85065433Y-38754964D01*
X85040626Y-38717837D01*
X84922162Y-38599373D01*
X84782860Y-38506295D01*
X84628082Y-38442184D01*
X84628074Y-38442182D01*
X84463771Y-38409500D01*
X84463767Y-38409500D01*
X84296233Y-38409500D01*
X84296228Y-38409500D01*
X84131925Y-38442182D01*
X84131917Y-38442184D01*
X83977139Y-38506295D01*
X83837837Y-38599373D01*
X83719373Y-38717837D01*
X83626295Y-38857139D01*
X83562184Y-39011917D01*
X83562182Y-39011925D01*
X83529500Y-39176228D01*
X83529500Y-39343771D01*
X83562182Y-39508074D01*
X83562184Y-39508082D01*
X83626295Y-39662860D01*
X83626296Y-39662862D01*
X83626297Y-39662863D01*
X83663193Y-39718082D01*
X83698602Y-39771074D01*
X83719480Y-39837751D01*
X83719500Y-39839965D01*
X83719500Y-47825068D01*
X83699815Y-47892107D01*
X83698602Y-47893959D01*
X83616295Y-48017139D01*
X83552184Y-48171917D01*
X83552182Y-48171925D01*
X83519500Y-48336228D01*
X49107868Y-48336228D01*
X49023771Y-48319500D01*
X49023767Y-48319500D01*
X48856233Y-48319500D01*
X48856228Y-48319500D01*
X48691925Y-48352182D01*
X48691917Y-48352184D01*
X48537139Y-48416295D01*
X48397837Y-48509373D01*
X48279373Y-48627837D01*
X48186295Y-48767139D01*
X48122184Y-48921917D01*
X48122182Y-48921925D01*
X48089500Y-49086228D01*
X46410308Y-49086228D01*
X46402734Y-49038407D01*
X46397247Y-49003761D01*
X46397246Y-49003760D01*
X46397246Y-49003757D01*
X46331557Y-48801588D01*
X46235051Y-48612184D01*
X46235049Y-48612181D01*
X46235048Y-48612179D01*
X46110109Y-48440213D01*
X45959786Y-48289890D01*
X45787820Y-48164951D01*
X45787115Y-48164591D01*
X45779054Y-48160485D01*
X45728259Y-48112512D01*
X45711463Y-48044692D01*
X45733999Y-47978556D01*
X45779054Y-47939515D01*
X45787816Y-47935051D01*
X45846924Y-47892107D01*
X45959786Y-47810109D01*
X45959788Y-47810106D01*
X45959792Y-47810104D01*
X46110104Y-47659792D01*
X46110106Y-47659788D01*
X46110109Y-47659786D01*
X46235048Y-47487820D01*
X46235047Y-47487820D01*
X46235051Y-47487816D01*
X46331557Y-47298412D01*
X46397246Y-47096243D01*
X46430500Y-46886287D01*
X46430500Y-46673713D01*
X46397246Y-46463757D01*
X46331557Y-46261588D01*
X46235051Y-46072184D01*
X46235049Y-46072181D01*
X46235048Y-46072179D01*
X46110109Y-45900213D01*
X45959786Y-45749890D01*
X45787820Y-45624951D01*
X45787115Y-45624591D01*
X45779054Y-45620485D01*
X45728259Y-45572512D01*
X45711463Y-45504692D01*
X45733999Y-45438556D01*
X45779054Y-45399515D01*
X45787816Y-45395051D01*
X45851861Y-45348520D01*
X45959786Y-45270109D01*
X45959788Y-45270106D01*
X45959792Y-45270104D01*
X46110104Y-45119792D01*
X46110106Y-45119788D01*
X46110109Y-45119786D01*
X46235048Y-44947820D01*
X46235047Y-44947820D01*
X46235051Y-44947816D01*
X46331557Y-44758412D01*
X46397246Y-44556243D01*
X46430500Y-44346287D01*
X46430500Y-44133713D01*
X46397246Y-43923757D01*
X46331557Y-43721588D01*
X46235051Y-43532184D01*
X46235049Y-43532181D01*
X46235048Y-43532179D01*
X46110109Y-43360213D01*
X45959786Y-43209890D01*
X45787820Y-43084951D01*
X45787115Y-43084591D01*
X45779054Y-43080485D01*
X45728259Y-43032512D01*
X45711463Y-42964692D01*
X45733999Y-42898556D01*
X45779054Y-42859515D01*
X45787816Y-42855051D01*
X45809789Y-42839086D01*
X45959786Y-42730109D01*
X45959788Y-42730106D01*
X45959792Y-42730104D01*
X46110104Y-42579792D01*
X46110106Y-42579788D01*
X46110109Y-42579786D01*
X46235048Y-42407820D01*
X46235047Y-42407820D01*
X46235051Y-42407816D01*
X46331557Y-42218412D01*
X46397246Y-42016243D01*
X46430500Y-41806287D01*
X46430500Y-41593713D01*
X46397246Y-41383757D01*
X46331557Y-41181588D01*
X46235051Y-40992184D01*
X46235049Y-40992181D01*
X46235048Y-40992179D01*
X46110109Y-40820213D01*
X45959788Y-40669892D01*
X45943279Y-40657898D01*
X45943246Y-40657874D01*
X45811212Y-40561947D01*
X48500000Y-40561947D01*
X48500000Y-40798052D01*
X48536934Y-41031247D01*
X48609897Y-41255802D01*
X48717087Y-41466174D01*
X48777338Y-41549104D01*
X48777340Y-41549105D01*
X49476212Y-40850233D01*
X49487482Y-40892292D01*
X49559890Y-41017708D01*
X49662292Y-41120110D01*
X49787708Y-41192518D01*
X49829765Y-41203787D01*
X49130893Y-41902658D01*
X49213828Y-41962914D01*
X49424197Y-42070102D01*
X49648752Y-42143065D01*
X49648751Y-42143065D01*
X49881948Y-42180000D01*
X50118052Y-42180000D01*
X50351247Y-42143065D01*
X50575802Y-42070102D01*
X50786163Y-41962918D01*
X50786169Y-41962914D01*
X50869104Y-41902658D01*
X50869105Y-41902658D01*
X50170233Y-41203787D01*
X50212292Y-41192518D01*
X50337708Y-41120110D01*
X50440110Y-41017708D01*
X50512518Y-40892292D01*
X50523787Y-40850234D01*
X51222658Y-41549105D01*
X51222658Y-41549104D01*
X51282914Y-41466169D01*
X51282918Y-41466163D01*
X51390102Y-41255802D01*
X51463065Y-41031247D01*
X51500000Y-40798052D01*
X51500000Y-40561947D01*
X55000000Y-40561947D01*
X55000000Y-40798052D01*
X55036934Y-41031247D01*
X55109897Y-41255802D01*
X55217087Y-41466174D01*
X55277338Y-41549104D01*
X55277340Y-41549105D01*
X55976212Y-40850233D01*
X55987482Y-40892292D01*
X56059890Y-41017708D01*
X56162292Y-41120110D01*
X56287708Y-41192518D01*
X56329765Y-41203787D01*
X55630893Y-41902658D01*
X55713828Y-41962914D01*
X55924197Y-42070102D01*
X56148752Y-42143065D01*
X56148751Y-42143065D01*
X56381948Y-42180000D01*
X56618052Y-42180000D01*
X56851247Y-42143065D01*
X57075802Y-42070102D01*
X57286163Y-41962918D01*
X57286169Y-41962914D01*
X57369104Y-41902658D01*
X57369105Y-41902658D01*
X56670233Y-41203787D01*
X56712292Y-41192518D01*
X56837708Y-41120110D01*
X56940110Y-41017708D01*
X57012518Y-40892292D01*
X57023787Y-40850233D01*
X57722658Y-41549105D01*
X57722658Y-41549104D01*
X57782914Y-41466169D01*
X57782918Y-41466163D01*
X57890102Y-41255802D01*
X57963065Y-41031247D01*
X58000000Y-40798052D01*
X58000000Y-40561947D01*
X57963065Y-40328752D01*
X57890102Y-40104197D01*
X57782914Y-39893828D01*
X57722658Y-39810894D01*
X57722658Y-39810893D01*
X57023787Y-40509765D01*
X57012518Y-40467708D01*
X56940110Y-40342292D01*
X56837708Y-40239890D01*
X56712292Y-40167482D01*
X56670234Y-40156212D01*
X57180218Y-39646228D01*
X58819500Y-39646228D01*
X58819500Y-39813771D01*
X58852182Y-39978074D01*
X58852184Y-39978082D01*
X58916295Y-40132860D01*
X59009373Y-40272162D01*
X59127837Y-40390626D01*
X59220494Y-40452537D01*
X59267137Y-40483703D01*
X59267138Y-40483703D01*
X59267139Y-40483704D01*
X59302201Y-40498227D01*
X59421918Y-40547816D01*
X59546321Y-40572561D01*
X59586228Y-40580499D01*
X59586232Y-40580500D01*
X59586233Y-40580500D01*
X59753768Y-40580500D01*
X59753769Y-40580499D01*
X59918082Y-40547816D01*
X60072863Y-40483703D01*
X60212162Y-40390626D01*
X60330626Y-40272162D01*
X60423703Y-40132863D01*
X60487816Y-39978082D01*
X60520500Y-39813767D01*
X60520500Y-39646233D01*
X60487816Y-39481918D01*
X60429938Y-39342191D01*
X60420500Y-39294739D01*
X60420500Y-37868625D01*
X60432902Y-37819125D01*
X60431372Y-37818492D01*
X60467382Y-37731555D01*
X60497816Y-37658082D01*
X60530500Y-37493767D01*
X60530500Y-37326233D01*
X60497816Y-37161918D01*
X60433703Y-37007137D01*
X60348819Y-36880099D01*
X60340626Y-36867837D01*
X60222162Y-36749373D01*
X60082860Y-36656295D01*
X59928082Y-36592184D01*
X59928074Y-36592182D01*
X59763771Y-36559500D01*
X59763767Y-36559500D01*
X59596233Y-36559500D01*
X59596228Y-36559500D01*
X59431925Y-36592182D01*
X59431917Y-36592184D01*
X59277139Y-36656295D01*
X59137837Y-36749373D01*
X59019373Y-36867837D01*
X58926295Y-37007139D01*
X58862184Y-37161917D01*
X58862182Y-37161925D01*
X58829500Y-37326228D01*
X58829500Y-37493771D01*
X58858700Y-37640568D01*
X58862184Y-37658082D01*
X58900465Y-37750500D01*
X58910061Y-37773665D01*
X58919500Y-37821118D01*
X58919500Y-39294739D01*
X58910061Y-39342192D01*
X58852184Y-39481917D01*
X58852182Y-39481925D01*
X58819500Y-39646228D01*
X57180218Y-39646228D01*
X57273986Y-39552460D01*
X57369105Y-39457340D01*
X57369104Y-39457338D01*
X57286174Y-39397087D01*
X57075802Y-39289897D01*
X56851247Y-39216934D01*
X56851248Y-39216934D01*
X56618052Y-39180000D01*
X56381948Y-39180000D01*
X56148752Y-39216934D01*
X55924197Y-39289897D01*
X55713830Y-39397084D01*
X55630894Y-39457340D01*
X56329766Y-40156212D01*
X56287708Y-40167482D01*
X56162292Y-40239890D01*
X56059890Y-40342292D01*
X55987482Y-40467708D01*
X55976212Y-40509766D01*
X55277340Y-39810894D01*
X55217084Y-39893830D01*
X55109897Y-40104197D01*
X55036934Y-40328752D01*
X55000000Y-40561947D01*
X51500000Y-40561947D01*
X51463065Y-40328752D01*
X51390102Y-40104197D01*
X51282914Y-39893828D01*
X51222658Y-39810894D01*
X51222658Y-39810893D01*
X50523787Y-40509765D01*
X50512518Y-40467708D01*
X50440110Y-40342292D01*
X50337708Y-40239890D01*
X50212292Y-40167482D01*
X50170234Y-40156212D01*
X50869105Y-39457340D01*
X50869104Y-39457339D01*
X50786174Y-39397087D01*
X50575802Y-39289897D01*
X50351247Y-39216934D01*
X50351248Y-39216934D01*
X50118052Y-39180000D01*
X49881948Y-39180000D01*
X49648752Y-39216934D01*
X49424197Y-39289897D01*
X49213830Y-39397084D01*
X49130894Y-39457340D01*
X49829766Y-40156212D01*
X49787708Y-40167482D01*
X49662292Y-40239890D01*
X49559890Y-40342292D01*
X49487482Y-40467708D01*
X49476212Y-40509766D01*
X48777340Y-39810894D01*
X48717084Y-39893830D01*
X48609897Y-40104197D01*
X48536934Y-40328752D01*
X48500000Y-40561947D01*
X45811212Y-40561947D01*
X45787816Y-40544949D01*
X45771131Y-40536447D01*
X45763866Y-40531322D01*
X45747455Y-40510641D01*
X45728259Y-40492512D01*
X45726076Y-40483700D01*
X45720435Y-40476591D01*
X45717809Y-40450319D01*
X45711463Y-40424692D01*
X45714390Y-40416100D01*
X45713488Y-40407068D01*
X45725483Y-40383547D01*
X45733999Y-40358556D01*
X45741577Y-40351989D01*
X45745231Y-40344825D01*
X45759345Y-40336593D01*
X45779054Y-40319515D01*
X45787816Y-40315051D01*
X45846848Y-40272162D01*
X45959786Y-40190109D01*
X45959788Y-40190106D01*
X45959792Y-40190104D01*
X46110104Y-40039792D01*
X46110106Y-40039788D01*
X46110109Y-40039786D01*
X46235048Y-39867820D01*
X46235047Y-39867820D01*
X46235051Y-39867816D01*
X46331557Y-39678412D01*
X46397246Y-39476243D01*
X46430500Y-39266287D01*
X46430500Y-39053713D01*
X46397246Y-38843757D01*
X46331557Y-38641588D01*
X46235051Y-38452184D01*
X46235049Y-38452181D01*
X46235048Y-38452179D01*
X46110109Y-38280213D01*
X45996569Y-38166673D01*
X45963084Y-38105350D01*
X45968068Y-38035658D01*
X46009940Y-37979725D01*
X46040915Y-37962810D01*
X46172331Y-37913796D01*
X46287546Y-37827546D01*
X46373796Y-37712331D01*
X46424091Y-37577483D01*
X46430500Y-37517873D01*
X46430499Y-35722128D01*
X46424091Y-35662517D01*
X46400851Y-35600208D01*
X46373797Y-35527671D01*
X46373793Y-35527664D01*
X46287547Y-35412455D01*
X46287544Y-35412452D01*
X46172335Y-35326206D01*
X46172328Y-35326202D01*
X46037482Y-35275908D01*
X46037483Y-35275908D01*
X45977883Y-35269501D01*
X45977881Y-35269500D01*
X45977873Y-35269500D01*
X45977864Y-35269500D01*
X44182129Y-35269500D01*
X44182123Y-35269501D01*
X44122516Y-35275908D01*
X43987671Y-35326202D01*
X43987664Y-35326206D01*
X43872455Y-35412452D01*
X43872452Y-35412455D01*
X43786206Y-35527664D01*
X43786202Y-35527671D01*
X43735908Y-35662517D01*
X43729913Y-35718282D01*
X43729501Y-35722123D01*
X43729500Y-35722135D01*
X14840500Y-35722135D01*
X14840500Y-34974500D01*
X14860185Y-34907461D01*
X14912989Y-34861706D01*
X14964500Y-34850500D01*
X48908111Y-34850500D01*
X48975150Y-34870185D01*
G37*
%TD.AperFunction*%
%TA.AperFunction,Conductor*%
G36*
X129130000Y-46066447D02*
G01*
X129130000Y-46348189D01*
X129130000Y-46696087D01*
X129126416Y-46708289D01*
X129127479Y-46720964D01*
X129116760Y-46741176D01*
X129110315Y-46763126D01*
X129100704Y-46771453D01*
X129094745Y-46782691D01*
X129074800Y-46793899D01*
X129057511Y-46808881D01*
X129044922Y-46810691D01*
X129033835Y-46816922D01*
X129010999Y-46815568D01*
X128988353Y-46818825D01*
X128975133Y-46813443D01*
X128964088Y-46812789D01*
X128941909Y-46799918D01*
X128932907Y-46796254D01*
X128926979Y-46791928D01*
X128925199Y-46790148D01*
X128773759Y-46680121D01*
X128773397Y-46679857D01*
X128752180Y-46652224D01*
X128730939Y-46624678D01*
X128730927Y-46624544D01*
X128730846Y-46624438D01*
X128727933Y-46589687D01*
X128724960Y-46555065D01*
X128725022Y-46554947D01*
X128725011Y-46554813D01*
X128741283Y-46524127D01*
X128757565Y-46493270D01*
X128757717Y-46493137D01*
X128757745Y-46493086D01*
X128757837Y-46493034D01*
X128773605Y-46479372D01*
X128809638Y-46453191D01*
X128809639Y-46453191D01*
X128104094Y-45747647D01*
X128191571Y-45724208D01*
X128292930Y-45665689D01*
X128375689Y-45582930D01*
X128434208Y-45481571D01*
X128457647Y-45394094D01*
X129130000Y-46066447D01*
G37*
%TD.AperFunction*%
%TD*%
M02*
