%TF.GenerationSoftware,KiCad,Pcbnew,9.0.3*%
%TF.CreationDate,2025-08-15T19:38:52+02:00*%
%TF.ProjectId,Drone_Controller,44726f6e-655f-4436-9f6e-74726f6c6c65,rev?*%
%TF.SameCoordinates,Original*%
%TF.FileFunction,Soldermask,Bot*%
%TF.FilePolarity,Negative*%
%FSLAX46Y46*%
G04 Gerber Fmt 4.6, Leading zero omitted, Abs format (unit mm)*
G04 Created by KiCad (PCBNEW 9.0.3) date 2025-08-15 19:38:52*
%MOMM*%
%LPD*%
G01*
G04 APERTURE LIST*
G04 Aperture macros list*
%AMRoundRect*
0 Rectangle with rounded corners*
0 $1 Rounding radius*
0 $2 $3 $4 $5 $6 $7 $8 $9 X,Y pos of 4 corners*
0 Add a 4 corners polygon primitive as box body*
4,1,4,$2,$3,$4,$5,$6,$7,$8,$9,$2,$3,0*
0 Add four circle primitives for the rounded corners*
1,1,$1+$1,$2,$3*
1,1,$1+$1,$4,$5*
1,1,$1+$1,$6,$7*
1,1,$1+$1,$8,$9*
0 Add four rect primitives between the rounded corners*
20,1,$1+$1,$2,$3,$4,$5,0*
20,1,$1+$1,$4,$5,$6,$7,0*
20,1,$1+$1,$6,$7,$8,$9,0*
20,1,$1+$1,$8,$9,$2,$3,0*%
G04 Aperture macros list end*
%ADD10C,2.000000*%
%ADD11O,1.000000X2.100000*%
%ADD12O,1.000000X1.800000*%
%ADD13RoundRect,0.250001X-0.499999X-0.499999X0.499999X-0.499999X0.499999X0.499999X-0.499999X0.499999X0*%
%ADD14C,1.500000*%
%ADD15C,1.982000*%
%ADD16C,2.490000*%
%ADD17R,1.700000X1.700000*%
%ADD18C,1.700000*%
G04 APERTURE END LIST*
D10*
%TO.C,SW1*%
X56500000Y-40680000D03*
X50000000Y-40680000D03*
X56500000Y-36180000D03*
X50000000Y-36180000D03*
%TD*%
D11*
%TO.C,J9*%
X44180000Y-69925000D03*
D12*
X44180000Y-74105000D03*
D11*
X52820000Y-69925000D03*
D12*
X52820000Y-74105000D03*
%TD*%
D13*
%TO.C,BT1*%
X122050000Y-62960000D03*
D14*
X122050000Y-65960000D03*
%TD*%
D15*
%TO.C,U5*%
X128020000Y-50390000D03*
X128020000Y-47850000D03*
X128020000Y-45310000D03*
D16*
X111150000Y-55580000D03*
X124450000Y-55530000D03*
X124510000Y-40030000D03*
X111210000Y-40080000D03*
D15*
X115320000Y-58010000D03*
X117860000Y-58010000D03*
X120400000Y-58010000D03*
%TD*%
D17*
%TO.C,J2*%
X45080000Y-36620000D03*
D18*
X45080000Y-39160000D03*
X45080000Y-41700000D03*
X45080000Y-44240000D03*
X45080000Y-46780000D03*
X45080000Y-49320000D03*
X45080000Y-51860000D03*
X45080000Y-54400000D03*
%TD*%
D17*
%TO.C,J1*%
X122230000Y-36480000D03*
D18*
X124770000Y-36480000D03*
X127310000Y-36480000D03*
%TD*%
D10*
%TO.C,SW6*%
X92440000Y-71870000D03*
X85940000Y-71870000D03*
X92440000Y-67370000D03*
X85940000Y-67370000D03*
%TD*%
%TO.C,SW4*%
X73240000Y-71860000D03*
X66740000Y-71860000D03*
X73240000Y-67360000D03*
X66740000Y-67360000D03*
%TD*%
D15*
%TO.C,U4*%
X33137500Y-50370000D03*
X33137500Y-47830000D03*
X33137500Y-45290000D03*
D16*
X16310000Y-55450000D03*
X29645000Y-55450000D03*
X29645000Y-40210000D03*
X16310000Y-40210000D03*
D15*
X20437500Y-57990000D03*
X22977500Y-57990000D03*
X25517500Y-57990000D03*
%TD*%
D10*
%TO.C,SW2*%
X95120000Y-40750000D03*
X88620000Y-40750000D03*
X95120000Y-36250000D03*
X88620000Y-36250000D03*
%TD*%
%TO.C,SW5*%
X82890000Y-71860000D03*
X76390000Y-71860000D03*
X82890000Y-67360000D03*
X76390000Y-67360000D03*
%TD*%
%TO.C,SW3*%
X63670000Y-71860000D03*
X57170000Y-71860000D03*
X63670000Y-67360000D03*
X57170000Y-67360000D03*
%TD*%
M02*
