%TF.GenerationSoftware,KiCad,Pcbnew,9.0.3*%
%TF.CreationDate,2025-08-15T19:38:52+02:00*%
%TF.ProjectId,Drone_Controller,44726f6e-655f-4436-9f6e-74726f6c6c65,rev?*%
%TF.SameCoordinates,Original*%
%TF.FileFunction,Paste,Top*%
%TF.FilePolarity,Positive*%
%FSLAX46Y46*%
G04 Gerber Fmt 4.6, Leading zero omitted, Abs format (unit mm)*
G04 Created by KiCad (PCBNEW 9.0.3) date 2025-08-15 19:38:52*
%MOMM*%
%LPD*%
G01*
G04 APERTURE LIST*
G04 Aperture macros list*
%AMRoundRect*
0 Rectangle with rounded corners*
0 $1 Rounding radius*
0 $2 $3 $4 $5 $6 $7 $8 $9 X,Y pos of 4 corners*
0 Add a 4 corners polygon primitive as box body*
4,1,4,$2,$3,$4,$5,$6,$7,$8,$9,$2,$3,0*
0 Add four circle primitives for the rounded corners*
1,1,$1+$1,$2,$3*
1,1,$1+$1,$4,$5*
1,1,$1+$1,$6,$7*
1,1,$1+$1,$8,$9*
0 Add four rect primitives between the rounded corners*
20,1,$1+$1,$2,$3,$4,$5,0*
20,1,$1+$1,$4,$5,$6,$7,0*
20,1,$1+$1,$6,$7,$8,$9,0*
20,1,$1+$1,$8,$9,$2,$3,0*%
G04 Aperture macros list end*
%ADD10R,0.900000X0.900000*%
%ADD11R,1.500000X0.900000*%
%ADD12R,0.900000X1.500000*%
%ADD13RoundRect,0.150000X0.150000X-0.825000X0.150000X0.825000X-0.150000X0.825000X-0.150000X-0.825000X0*%
%ADD14RoundRect,0.250000X0.440000X-0.255000X0.440000X0.255000X-0.440000X0.255000X-0.440000X-0.255000X0*%
%ADD15RoundRect,0.150000X-0.150000X-0.425000X0.150000X-0.425000X0.150000X0.425000X-0.150000X0.425000X0*%
%ADD16RoundRect,0.075000X-0.075000X-0.500000X0.075000X-0.500000X0.075000X0.500000X-0.075000X0.500000X0*%
%ADD17O,1.000000X2.100000*%
%ADD18O,1.000000X1.800000*%
%ADD19RoundRect,0.200000X0.275000X-0.200000X0.275000X0.200000X-0.275000X0.200000X-0.275000X-0.200000X0*%
%ADD20RoundRect,0.200000X0.200000X0.275000X-0.200000X0.275000X-0.200000X-0.275000X0.200000X-0.275000X0*%
%ADD21RoundRect,0.200000X-0.200000X-0.275000X0.200000X-0.275000X0.200000X0.275000X-0.200000X0.275000X0*%
%ADD22RoundRect,0.225000X-0.225000X-0.250000X0.225000X-0.250000X0.225000X0.250000X-0.225000X0.250000X0*%
%ADD23RoundRect,0.218750X-0.218750X-0.256250X0.218750X-0.256250X0.218750X0.256250X-0.218750X0.256250X0*%
%ADD24RoundRect,0.200000X-0.275000X0.200000X-0.275000X-0.200000X0.275000X-0.200000X0.275000X0.200000X0*%
%ADD25RoundRect,0.375000X0.375000X-0.625000X0.375000X0.625000X-0.375000X0.625000X-0.375000X-0.625000X0*%
%ADD26RoundRect,0.500000X1.400000X-0.500000X1.400000X0.500000X-1.400000X0.500000X-1.400000X-0.500000X0*%
%ADD27RoundRect,0.140000X0.170000X-0.140000X0.170000X0.140000X-0.170000X0.140000X-0.170000X-0.140000X0*%
%ADD28RoundRect,0.140000X-0.140000X-0.170000X0.140000X-0.170000X0.140000X0.170000X-0.140000X0.170000X0*%
%ADD29RoundRect,0.218750X0.256250X-0.218750X0.256250X0.218750X-0.256250X0.218750X-0.256250X-0.218750X0*%
G04 APERTURE END LIST*
D10*
%TO.C,U2*%
X69600000Y-42490000D03*
X69600000Y-43890000D03*
X69600000Y-45290000D03*
X71000000Y-42490000D03*
X71000000Y-45290000D03*
X72400000Y-42490000D03*
X72400000Y-43890000D03*
X72400000Y-45290000D03*
D11*
X63750000Y-36170000D03*
X63750000Y-37440000D03*
X63750000Y-38710000D03*
X63750000Y-39980000D03*
X63750000Y-41250000D03*
X63750000Y-42520000D03*
X63750000Y-43790000D03*
X63750000Y-45060000D03*
X63750000Y-46330000D03*
X63750000Y-47600000D03*
X63750000Y-48870000D03*
X63750000Y-50140000D03*
X63750000Y-51410000D03*
X63750000Y-52680000D03*
D12*
X65515000Y-53930000D03*
X66785000Y-53930000D03*
X68055000Y-53930000D03*
X69325000Y-53930000D03*
X70595000Y-53930000D03*
X71865000Y-53930000D03*
X73135000Y-53930000D03*
X74405000Y-53930000D03*
X75675000Y-53930000D03*
X76945000Y-53930000D03*
X78215000Y-53930000D03*
X79485000Y-53930000D03*
D11*
X81250000Y-52680000D03*
X81250000Y-51410000D03*
X81250000Y-50140000D03*
X81250000Y-48870000D03*
X81250000Y-47600000D03*
X81250000Y-46330000D03*
X81250000Y-45060000D03*
X81250000Y-43790000D03*
X81250000Y-42520000D03*
X81250000Y-41250000D03*
X81250000Y-39980000D03*
X81250000Y-38710000D03*
X81250000Y-37440000D03*
X81250000Y-36170000D03*
%TD*%
D13*
%TO.C,U1*%
X115975000Y-68015000D03*
X117245000Y-68015000D03*
X118515000Y-68015000D03*
X119785000Y-68015000D03*
X119785000Y-72965000D03*
X118515000Y-72965000D03*
X117245000Y-72965000D03*
X115975000Y-72965000D03*
D14*
X118705000Y-69890000D03*
X117055000Y-69890000D03*
X118705000Y-71090000D03*
X117055000Y-71090000D03*
%TD*%
D15*
%TO.C,J9*%
X45300000Y-69350000D03*
X46100000Y-69350000D03*
D16*
X47250000Y-69350000D03*
X48250000Y-69350000D03*
X48750000Y-69350000D03*
X49750000Y-69350000D03*
D15*
X50900000Y-69350000D03*
X51700000Y-69350000D03*
X51700000Y-69350000D03*
X50900000Y-69350000D03*
D16*
X50250000Y-69350000D03*
X49250000Y-69350000D03*
X47750000Y-69350000D03*
X46750000Y-69350000D03*
D15*
X46100000Y-69350000D03*
X45300000Y-69350000D03*
D17*
X44180000Y-69925000D03*
D18*
X44180000Y-74105000D03*
D17*
X52820000Y-69925000D03*
D18*
X52820000Y-74105000D03*
%TD*%
D19*
%TO.C,R16*%
X54710000Y-68200000D03*
X54710000Y-69850000D03*
%TD*%
D20*
%TO.C,R8*%
X90065000Y-65140000D03*
X88415000Y-65140000D03*
%TD*%
D21*
%TO.C,R1*%
X59870000Y-64960000D03*
X61520000Y-64960000D03*
%TD*%
D19*
%TO.C,R18*%
X114400000Y-74740000D03*
X114400000Y-73090000D03*
%TD*%
D21*
%TO.C,R2*%
X58680000Y-52690000D03*
X60330000Y-52690000D03*
%TD*%
D22*
%TO.C,C11*%
X97670000Y-54470000D03*
X99220000Y-54470000D03*
%TD*%
D21*
%TO.C,R5*%
X78920000Y-65120000D03*
X80570000Y-65120000D03*
%TD*%
D23*
%TO.C,D2*%
X110085000Y-67510000D03*
X111660000Y-67510000D03*
%TD*%
D19*
%TO.C,R20*%
X98180000Y-39480000D03*
X98180000Y-37830000D03*
%TD*%
D20*
%TO.C,R14*%
X113035000Y-67510000D03*
X114685000Y-67510000D03*
%TD*%
%TO.C,R6*%
X46975000Y-66460000D03*
X45325000Y-66460000D03*
%TD*%
D24*
%TO.C,R22*%
X119740000Y-60610000D03*
X119740000Y-62260000D03*
%TD*%
D21*
%TO.C,R7*%
X51410000Y-66040000D03*
X53060000Y-66040000D03*
%TD*%
D24*
%TO.C,R15*%
X116680000Y-60700000D03*
X116680000Y-62350000D03*
%TD*%
D21*
%TO.C,R19*%
X47610000Y-42950000D03*
X49260000Y-42950000D03*
%TD*%
D25*
%TO.C,U3*%
X92797500Y-52350000D03*
X95097500Y-52350000D03*
D26*
X95097500Y-46050000D03*
D25*
X97397500Y-52350000D03*
%TD*%
D20*
%TO.C,R17*%
X118820000Y-74940000D03*
X117170000Y-74940000D03*
%TD*%
%TO.C,R4*%
X70850000Y-65050000D03*
X69200000Y-65050000D03*
%TD*%
D27*
%TO.C,C3*%
X61230000Y-37330000D03*
X61230000Y-36370000D03*
%TD*%
D24*
%TO.C,R3*%
X95420000Y-57490000D03*
X95420000Y-59140000D03*
%TD*%
D27*
%TO.C,C2*%
X62250000Y-37330000D03*
X62250000Y-36370000D03*
%TD*%
D28*
%TO.C,C1*%
X121510000Y-64450000D03*
X122470000Y-64450000D03*
%TD*%
D22*
%TO.C,C12*%
X97690000Y-55990000D03*
X99240000Y-55990000D03*
%TD*%
D29*
%TO.C,D3*%
X116680000Y-65335000D03*
X116680000Y-63760000D03*
%TD*%
%TO.C,D1*%
X95380000Y-56010000D03*
X95380000Y-54435000D03*
%TD*%
D24*
%TO.C,R21*%
X119730000Y-63740000D03*
X119730000Y-65390000D03*
%TD*%
M02*
